<svg width="243" height="250" viewBox="0 0 243 250" fill="none" xmlns="http://www.w3.org/2000/svg">
<g filter="url(#filter0_d_115_17775)">
<path d="M38.4776 207.572C32.2113 207.572 26.4462 206.695 21.1824 204.94C16.044 203.185 11.9082 200.553 8.77499 197.044C5.76713 193.41 4.2632 188.961 4.2632 183.697C4.2632 181.316 4.63918 179.373 5.39115 177.869C6.14311 176.24 7.27106 174.861 8.77499 173.733C12.2842 179.122 16.42 183.321 21.1824 186.329C26.0702 189.337 32.2113 190.841 39.6056 190.841C44.9947 190.841 50.0078 189.901 54.6449 188.021C59.282 186.141 63.0419 183.446 65.9244 179.937C68.8069 176.428 70.2482 172.104 70.2482 166.966C70.2482 161.577 68.4936 157.503 64.9844 154.746C61.6006 151.864 57.0888 149.858 51.449 148.731C45.9346 147.603 39.8562 147.039 33.2139 147.039L35.0938 135.383C39.2296 135.007 43.4907 134.193 47.8772 132.939C52.2637 131.686 56.3368 129.994 60.0966 127.863C63.9818 125.608 67.115 122.913 69.4962 119.78C72.0028 116.521 73.3187 112.699 73.444 108.312C73.5694 103.299 71.8774 99.4768 68.3683 96.8449C64.9844 94.213 59.9713 92.8344 53.329 92.7091C47.3132 92.5838 41.7362 93.9624 36.5977 96.8449C31.4593 99.6021 27.1982 103.299 23.8143 107.936C22.4357 107.059 21.3704 105.868 20.6185 104.365C19.8665 102.861 19.5532 101.169 19.6785 99.2888C19.9292 95.4036 21.1824 92.0198 23.4383 89.1372C25.8195 86.2547 28.8901 83.8735 32.6499 81.9936C36.5351 79.9883 40.7335 78.5471 45.2453 77.6698C49.8825 76.6671 54.4569 76.2285 58.9687 76.3538C66.4884 76.3538 72.8801 77.4818 78.1438 79.7377C83.4076 81.8682 87.4181 84.9388 90.1753 88.9492C92.9325 92.8344 94.2484 97.7848 94.1231 103.801C94.1231 110.067 92.7445 115.519 89.9873 120.156C87.2301 124.793 83.5329 128.615 78.8958 131.623C74.384 134.506 69.4336 136.699 64.0445 138.203C73.444 140.208 80.2744 143.467 84.5355 147.979C88.7967 152.365 90.9272 158.193 90.9272 165.462C90.9272 173.859 88.546 181.253 83.7836 187.645C79.1464 193.911 72.8801 198.799 64.9844 202.308C57.0888 205.817 48.2532 207.572 38.4776 207.572ZM116.34 208.136C112.329 208.136 109.008 207.133 106.376 205.128C103.744 203.248 102.428 200.365 102.428 196.48C102.428 192.345 103.807 189.337 106.564 187.457C109.447 185.452 112.893 184.449 116.904 184.449C120.914 184.449 124.173 185.452 126.679 187.457C129.311 189.337 130.627 192.219 130.627 196.104C130.627 200.115 129.249 203.123 126.491 205.128C123.734 207.133 120.35 208.136 116.34 208.136ZM180.338 206.632C172.818 206.632 166.614 205.065 161.727 201.932C156.839 198.799 153.204 194.162 150.823 188.021C148.567 181.88 147.377 174.172 147.251 164.898C147.126 152.616 148.442 141.211 151.199 130.683C153.956 120.03 157.904 110.694 163.043 102.673C168.306 94.6517 174.51 88.4479 181.654 84.0615C188.923 79.5497 196.944 77.2938 205.717 77.2938C213.362 77.2938 219.565 78.8604 224.328 81.9936C229.215 85.1268 232.85 89.7639 235.231 95.9049C237.612 102.046 238.803 109.754 238.803 119.028C238.928 131.185 237.612 142.589 234.855 153.242C232.098 163.895 228.088 173.232 222.824 181.253C217.685 189.149 211.482 195.352 204.213 199.864C197.069 204.376 189.111 206.632 180.338 206.632ZM184.098 194.412C187.983 194.412 191.617 193.034 195.001 190.277C198.385 187.394 201.393 183.446 204.025 178.433C206.782 173.295 209.163 167.404 211.168 160.762C213.174 154.12 214.677 147.039 215.68 139.519C216.683 131.874 217.184 124.041 217.184 116.02C217.184 107.122 215.993 100.542 213.612 96.2809C211.231 91.8945 207.22 89.7012 201.581 89.7012C197.696 89.7012 194.124 91.1425 190.865 94.025C187.607 96.7822 184.599 100.73 181.842 105.868C179.084 110.882 176.766 116.772 174.886 123.54C173.006 130.182 171.502 137.388 170.374 145.159C169.372 152.929 168.87 160.887 168.87 169.034C168.87 177.681 170.061 184.073 172.442 188.209C174.949 192.345 178.834 194.412 184.098 194.412Z" fill="#BE3F38"/>
<path d="M21.1824 204.94L19.8899 208.725L19.9037 208.73L19.9175 208.735L21.1824 204.94ZM8.77499 197.044L5.69342 199.595L5.74126 199.652L5.79124 199.708L8.77499 197.044ZM5.39115 177.869L8.96886 179.658L8.9968 179.602L9.02299 179.545L5.39115 177.869ZM8.77499 173.733L12.127 171.551L9.79454 167.969L6.37499 170.533L8.77499 173.733ZM21.1824 186.329L19.0465 189.711L19.0662 189.723L19.086 189.735L21.1824 186.329ZM54.6449 188.021L56.1477 191.728H56.1477L54.6449 188.021ZM65.9244 179.937L62.8335 177.398L65.9244 179.937ZM64.9844 154.746L62.3906 157.791L62.4509 157.843L62.5131 157.892L64.9844 154.746ZM51.449 148.731L50.6475 152.649L50.656 152.651L50.6646 152.653L51.449 148.731ZM33.2139 147.039L29.2649 146.402L28.517 151.039H33.2139V147.039ZM35.0938 135.383L34.7316 131.4L31.6393 131.681L31.1448 134.746L35.0938 135.383ZM60.0966 127.863L62.0687 131.344L62.087 131.333L62.1052 131.323L60.0966 127.863ZM69.4962 119.78L66.3257 117.341L66.3186 117.35L66.3116 117.36L69.4962 119.78ZM73.444 108.312L77.4424 108.427L77.4426 108.419L77.4428 108.412L73.444 108.312ZM68.3683 96.8449L65.9125 100.002L65.9402 100.024L65.9683 100.045L68.3683 96.8449ZM53.329 92.7091L53.2456 96.7082L53.2535 96.7084L53.329 92.7091ZM36.5977 96.8449L38.489 100.37L38.522 100.352L38.5547 100.333L36.5977 96.8449ZM23.8143 107.936L21.6668 111.311L24.8331 113.326L27.0455 110.294L23.8143 107.936ZM20.6185 104.365L24.1962 102.576L24.1962 102.576L20.6185 104.365ZM19.6785 99.2888L23.6696 99.5549L23.6702 99.5463L19.6785 99.2888ZM23.4383 89.1372L20.3545 86.5897L20.3208 86.6304L20.2883 86.672L23.4383 89.1372ZM32.6499 81.9936L34.4388 85.5713L34.4617 85.5598L34.4845 85.548L32.6499 81.9936ZM45.2453 77.6698L46.0088 81.5962L46.0498 81.5882L46.0907 81.5794L45.2453 77.6698ZM58.9687 76.3538L58.8576 80.3523L58.9132 80.3538H58.9687V76.3538ZM78.1438 79.7377L76.5682 83.4143L76.6054 83.4302L76.6431 83.4455L78.1438 79.7377ZM90.1753 88.9492L86.8791 91.2154L86.896 91.2399L86.9133 91.2642L90.1753 88.9492ZM94.1231 103.801L90.124 103.717L90.1231 103.759V103.801H94.1231ZM89.9873 120.156L86.5491 118.112L89.9873 120.156ZM78.8958 131.623L81.0494 134.994L81.061 134.987L81.0726 134.979L78.8958 131.623ZM64.0445 138.203L62.9693 134.35L63.2099 142.115L64.0445 138.203ZM84.5355 147.979L81.6275 150.725L81.6468 150.746L81.6664 150.766L84.5355 147.979ZM83.7836 187.645L80.576 185.255L80.5682 185.265L83.7836 187.645ZM64.9844 202.308L66.609 205.963L64.9844 202.308ZM38.4776 203.572C32.5863 203.572 27.2542 202.748 22.4473 201.145L19.9175 208.735C25.6381 210.642 31.8362 211.572 38.4776 211.572V203.572ZM22.475 201.155C17.8859 199.588 14.3675 197.302 11.7587 194.38L5.79124 199.708C9.44885 203.805 14.2021 206.783 19.8899 208.725L22.475 201.155ZM11.8566 194.494C9.51157 191.661 8.2632 188.144 8.2632 183.697H0.2632C0.2632 189.777 2.02269 195.159 5.69342 199.595L11.8566 194.494ZM8.2632 183.697C8.2632 181.695 8.5856 180.425 8.96886 179.658L1.81344 176.08C0.692768 178.322 0.2632 180.937 0.2632 183.697H8.2632ZM9.02299 179.545C9.48362 178.547 10.1755 177.683 11.175 176.933L6.37499 170.533C4.36664 172.04 2.8026 173.932 1.75931 176.193L9.02299 179.545ZM5.423 175.916C9.20196 181.719 13.7325 186.355 19.0465 189.711L23.3184 182.947C19.1074 180.287 15.3664 176.525 12.127 171.551L5.423 175.916ZM19.086 189.735C24.7619 193.228 31.6811 194.841 39.6056 194.841V186.841C32.7415 186.841 27.3785 185.445 23.2788 182.922L19.086 189.735ZM39.6056 194.841C45.4698 194.841 50.9975 193.816 56.1477 191.728L53.1421 184.314C49.0181 185.986 44.5196 186.841 39.6056 186.841V194.841ZM56.1477 191.728C61.339 189.623 65.6671 186.552 69.0153 182.476L62.8335 177.398C60.4166 180.34 57.225 182.659 53.1421 184.314L56.1477 191.728ZM69.0153 182.476C72.5626 178.158 74.2482 172.901 74.2482 166.966H66.2482C66.2482 171.307 65.0513 174.698 62.8335 177.398L69.0153 182.476ZM74.2482 166.966C74.2482 160.633 72.1329 155.276 67.4557 151.601L62.5131 157.892C64.8543 159.731 66.2482 162.521 66.2482 166.966H74.2482ZM67.5783 151.701C63.5453 148.266 58.3501 146.032 52.2335 144.808L50.6646 152.653C55.8275 153.685 59.6558 155.462 62.3906 157.791L67.5783 151.701ZM52.2506 144.812C46.4303 143.621 40.0788 143.039 33.2139 143.039V151.039C39.6337 151.039 45.4389 151.584 50.6475 152.649L52.2506 144.812ZM37.1628 147.676L39.0428 136.02L31.1448 134.746L29.2649 146.402L37.1628 147.676ZM35.4559 139.367C39.8641 138.966 44.3722 138.101 48.9761 136.785L46.7783 129.093C42.6093 130.284 38.5951 131.048 34.7316 131.4L35.4559 139.367ZM48.9761 136.785C53.6502 135.45 58.0185 133.639 62.0687 131.344L58.1246 124.383C54.6552 126.349 50.8772 127.922 46.7783 129.093L48.9761 136.785ZM62.1052 131.323C66.3829 128.839 69.938 125.809 72.6809 122.2L66.3116 117.36C64.292 120.017 61.5807 122.376 58.0881 124.404L62.1052 131.323ZM72.6667 122.219C75.7229 118.246 77.2947 113.596 77.4424 108.427L69.4457 108.198C69.3427 111.802 68.2827 114.797 66.3257 117.341L72.6667 122.219ZM77.4428 108.412C77.5951 102.319 75.4727 97.1732 70.7683 93.6449L65.9683 100.045C68.2822 101.78 69.5436 104.28 69.4453 108.212L77.4428 108.412ZM70.824 93.6875C66.4753 90.3051 60.4651 88.843 53.4044 88.7098L53.2535 96.7084C59.4776 96.8258 63.4936 98.1209 65.9125 100.002L70.824 93.6875ZM53.4123 88.71C46.699 88.5701 40.4153 90.1169 34.6407 93.3563L38.5547 100.333C43.057 97.8078 47.9275 96.5974 53.2456 96.7082L53.4123 88.71ZM34.7065 93.3202C29.0482 96.3564 24.3263 100.449 20.5831 105.579L27.0455 110.294C30.0701 106.149 33.8704 102.848 38.489 100.37L34.7065 93.3202ZM25.9618 104.562C25.2132 104.085 24.6338 103.451 24.1962 102.576L17.0407 106.153C18.1071 108.286 19.6582 110.033 21.6668 111.311L25.9618 104.562ZM24.1962 102.576C23.7993 101.782 23.5858 100.813 23.6696 99.5549L15.6874 99.0227C15.5206 101.525 15.9337 103.939 17.0407 106.153L24.1962 102.576ZM23.6702 99.5463C23.8725 96.4111 24.8612 93.8094 26.5883 91.6025L20.2883 86.672C17.5037 90.2302 15.9858 94.3961 15.6868 99.0312L23.6702 99.5463ZM26.5222 91.6848C28.5066 89.2826 31.1156 87.2329 34.4388 85.5713L30.861 78.4159C26.6645 80.5141 23.1325 83.2268 20.3545 86.5897L26.5222 91.6848ZM34.4845 85.548C38.0152 83.7258 41.8507 82.4047 46.0088 81.5962L44.4818 73.7433C39.6163 74.6894 35.055 76.2509 30.8153 78.4391L34.4845 85.548ZM46.0907 81.5794C50.4297 80.6413 54.683 80.2363 58.8576 80.3523L59.0798 72.3554C54.2308 72.2207 49.3352 72.693 44.4 73.7601L46.0907 81.5794ZM58.9687 80.3538C66.1081 80.3538 71.9319 81.4273 76.5682 83.4143L79.7195 76.0611C73.8283 73.5363 66.8686 72.3538 58.9687 72.3538V80.3538ZM76.6431 83.4455C81.304 85.332 84.6363 87.9531 86.8791 91.2154L93.4715 86.6831C90.1999 81.9244 85.5112 78.4045 79.6446 76.0299L76.6431 83.4455ZM86.9133 91.2642C89.0565 94.2842 90.2362 98.3314 90.124 103.717L98.1222 103.884C98.2607 97.2383 96.8085 91.3846 93.4373 86.6343L86.9133 91.2642ZM90.1231 103.801C90.1231 109.465 88.8827 114.187 86.5491 118.112L93.4254 122.2C96.6063 116.851 98.1231 110.669 98.1231 103.801H90.1231ZM86.5491 118.112C84.1139 122.207 80.8536 125.586 76.719 128.267L81.0726 134.979C86.2122 131.645 90.3462 127.379 93.4254 122.2L86.5491 118.112ZM76.7422 128.253C72.5788 130.912 67.9943 132.948 62.9693 134.35L65.1197 142.056C70.8728 140.45 76.1892 138.099 81.0494 134.994L76.7422 128.253ZM63.2099 142.115C72.2208 144.037 78.1523 147.045 81.6275 150.725L87.4436 145.232C82.3965 139.888 74.6672 136.379 64.879 134.291L63.2099 142.115ZM81.6664 150.766C85.0682 154.268 86.9272 159.024 86.9272 165.462H94.9272C94.9272 157.362 92.5251 150.462 87.4047 145.191L81.6664 150.766ZM86.9272 165.462C86.9272 173.047 84.7953 179.592 80.576 185.255L86.9911 190.035C92.2967 182.914 94.9272 174.671 94.9272 165.462H86.9272ZM80.5682 185.265C76.3855 190.918 70.694 195.393 63.3599 198.653L66.609 205.963C75.0662 202.205 81.9074 196.905 86.9989 190.024L80.5682 185.265ZM63.3599 198.653C56.0388 201.907 47.767 203.572 38.4776 203.572V211.572C48.7393 211.572 58.1387 209.728 66.609 205.963L63.3599 198.653ZM106.376 205.128L108.8 201.946L108.751 201.909L108.701 201.873L106.376 205.128ZM106.564 187.457L108.818 190.762L108.833 190.751L108.849 190.74L106.564 187.457ZM126.679 187.457L124.181 190.58L124.266 190.648L124.354 190.712L126.679 187.457ZM126.491 205.128L128.844 208.363L126.491 205.128ZM116.34 204.136C113.014 204.136 110.598 203.316 108.8 201.946L103.952 208.31C107.419 210.951 111.644 212.136 116.34 212.136V204.136ZM108.701 201.873C107.339 200.9 106.428 199.368 106.428 196.48H98.4285C98.4285 201.363 100.149 205.596 104.051 208.383L108.701 201.873ZM106.428 196.48C106.428 193.309 107.419 191.715 108.818 190.762L104.311 184.152C100.195 186.958 98.4285 191.38 98.4285 196.48H106.428ZM108.849 190.74C110.968 189.266 113.59 188.449 116.904 188.449V180.449C112.197 180.449 107.925 181.637 104.28 184.173L108.849 190.74ZM116.904 188.449C120.238 188.449 122.545 189.272 124.181 190.58L129.178 184.333C125.8 181.631 121.591 180.449 116.904 180.449V188.449ZM124.354 190.712C125.716 191.684 126.627 193.216 126.627 196.104H134.627C134.627 191.222 132.906 186.989 129.004 184.202L124.354 190.712ZM126.627 196.104C126.627 199.092 125.669 200.78 124.139 201.893L128.844 208.363C132.828 205.466 134.627 201.138 134.627 196.104H126.627ZM124.139 201.893C122.18 203.318 119.659 204.136 116.34 204.136V212.136C121.042 212.136 125.289 210.949 128.844 208.363L124.139 201.893ZM150.823 188.021L147.068 189.4L147.081 189.434L147.094 189.467L150.823 188.021ZM147.251 164.898L143.251 164.939L143.252 164.952L147.251 164.898ZM151.199 130.683L155.069 131.697L155.071 131.686L151.199 130.683ZM163.043 102.673L159.698 100.478L159.686 100.496L159.674 100.515L163.043 102.673ZM181.654 84.0615L183.747 87.4702L183.755 87.4651L183.763 87.46L181.654 84.0615ZM224.328 81.9936L222.129 85.3352L222.149 85.3483L222.169 85.3611L224.328 81.9936ZM235.231 95.9049L238.961 94.4588L235.231 95.9049ZM238.803 119.028H234.803V119.049L234.803 119.069L238.803 119.028ZM234.855 153.242L230.983 152.24L234.855 153.242ZM222.824 181.253L219.48 179.058L219.475 179.065L219.471 179.071L222.824 181.253ZM204.213 199.864L202.103 196.466L202.09 196.474L202.077 196.482L204.213 199.864ZM195.001 190.277L197.528 193.378L197.562 193.35L197.595 193.322L195.001 190.277ZM204.025 178.433L200.5 176.542L200.491 176.558L200.483 176.574L204.025 178.433ZM211.168 160.762L214.998 161.918V161.918L211.168 160.762ZM215.68 139.519L219.645 140.048L219.646 140.039L215.68 139.519ZM213.612 96.2809L210.097 98.1893L210.108 98.2108L210.12 98.2322L213.612 96.2809ZM190.865 94.025L193.449 97.0786L193.483 97.0501L193.516 97.021L190.865 94.025ZM181.842 105.868L185.347 107.796L185.356 107.778L185.366 107.76L181.842 105.868ZM174.886 123.54L178.735 124.629L178.737 124.62L178.74 124.61L174.886 123.54ZM170.374 145.159L166.416 144.584L166.411 144.615L166.407 144.647L170.374 145.159ZM172.442 188.209L168.976 190.205L168.998 190.244L169.021 190.282L172.442 188.209ZM180.338 202.632C173.361 202.632 167.964 201.179 163.885 198.565L159.568 205.3C165.265 208.951 172.276 210.632 180.338 210.632V202.632ZM163.885 198.565C159.806 195.949 156.67 192.036 154.553 186.575L147.094 189.467C149.738 196.288 153.872 201.648 159.568 205.3L163.885 198.565ZM154.578 186.641C152.528 181.062 151.372 173.839 151.251 164.844L143.252 164.952C143.381 174.505 144.606 182.697 147.068 189.4L154.578 186.641ZM151.251 164.857C151.129 152.886 152.412 141.839 155.069 131.697L147.33 129.67C144.472 140.582 143.123 152.346 143.251 164.939L151.251 164.857ZM155.071 131.686C157.739 121.38 161.533 112.445 166.411 104.83L159.674 100.515C154.276 108.942 150.174 118.681 147.327 129.681L155.071 131.686ZM166.387 104.867C171.374 97.267 177.172 91.5073 183.747 87.4702L179.561 80.6528C171.848 85.3886 165.238 92.0363 159.698 100.478L166.387 104.867ZM183.763 87.46C190.382 83.3518 197.669 81.2938 205.717 81.2938V73.2938C196.218 73.2938 187.463 75.7476 179.544 80.6629L183.763 87.46ZM205.717 81.2938C212.84 81.2938 218.208 82.7552 222.129 85.3352L226.526 78.6519C220.923 74.9656 213.883 73.2938 205.717 73.2938V81.2938ZM222.169 85.3611C226.249 87.9763 229.384 91.8899 231.502 97.351L238.961 94.4588C236.316 87.6379 232.182 82.2773 226.486 78.6261L222.169 85.3611ZM231.502 97.351C233.647 102.884 234.803 110.062 234.803 119.028H242.803C242.803 109.446 241.578 101.208 238.961 94.4588L231.502 97.351ZM234.803 119.069C234.925 130.91 233.643 141.961 230.983 152.24L238.728 154.245C241.582 143.217 242.931 131.459 242.803 118.987L234.803 119.069ZM230.983 152.24C228.319 162.53 224.471 171.453 219.48 179.058L226.168 183.448C231.704 175.011 235.877 165.26 238.728 154.245L230.983 152.24ZM219.471 179.071C214.62 186.525 208.825 192.293 202.103 196.466L206.322 203.263C214.138 198.411 220.751 191.772 226.176 183.435L219.471 179.071ZM202.077 196.482C195.598 200.574 188.385 202.632 180.338 202.632V210.632C189.836 210.632 198.54 208.178 206.349 203.246L202.077 196.482ZM184.098 198.412C189.017 198.412 193.524 196.64 197.528 193.378L192.474 187.176C189.711 189.428 186.948 190.412 184.098 190.412V198.412ZM197.595 193.322C201.458 190.031 204.759 185.639 207.566 180.292L200.483 176.574C198.026 181.253 195.312 184.757 192.407 187.232L197.595 193.322ZM207.549 180.324C210.453 174.913 212.93 168.769 214.998 161.918L207.339 159.606C205.397 166.04 203.11 171.677 200.5 176.542L207.549 180.324ZM214.998 161.918C217.07 155.053 218.617 147.76 219.645 140.048L211.715 138.99C210.738 146.317 209.277 153.187 207.339 159.606L214.998 161.918ZM219.646 140.039C220.672 132.215 221.184 124.208 221.184 116.02H213.184C213.184 123.874 212.693 131.533 211.714 138.999L219.646 140.039ZM221.184 116.02C221.184 106.917 219.992 99.4984 217.104 94.3296L210.12 98.2322C211.994 101.586 213.184 107.327 213.184 116.02H221.184ZM217.128 94.3726C213.943 88.5053 208.455 85.7012 201.581 85.7012V93.7012C205.986 93.7012 208.519 95.2836 210.097 98.1893L217.128 94.3726ZM201.581 85.7012C196.601 85.7012 192.111 87.5827 188.215 91.029L193.516 97.021C196.137 94.7022 198.791 93.7012 201.581 93.7012V85.7012ZM188.281 90.9715C184.527 94.1487 181.231 98.5473 178.317 103.977L185.366 107.76C187.967 102.913 190.687 99.4157 193.449 97.0786L188.281 90.9715ZM178.337 103.941C175.401 109.278 172.977 115.468 171.032 122.469L178.74 124.61C180.555 118.076 182.768 112.485 185.347 107.796L178.337 103.941ZM171.037 122.45C169.103 129.283 167.565 136.663 166.416 144.584L174.333 145.733C175.439 138.114 176.909 131.081 178.735 124.629L171.037 122.45ZM166.407 144.647C165.382 152.593 164.87 160.723 164.87 169.034H172.87C172.87 161.052 173.361 153.265 174.341 145.671L166.407 144.647ZM164.87 169.034C164.87 177.896 166.063 185.147 168.976 190.205L175.909 186.213C174.058 182.999 172.87 177.467 172.87 169.034H164.87ZM169.021 190.282C172.327 195.736 177.584 198.412 184.098 198.412V190.412C180.083 190.412 177.57 188.953 175.863 186.136L169.021 190.282Z" fill="white"/>
</g>
<defs>
<filter id="filter0_d_115_17775" x="0.263184" y="76.1658" width="242.728" height="139.97" filterUnits="userSpaceOnUse" color-interpolation-filters="sRGB">
<feFlood flood-opacity="0" result="BackgroundImageFix"/>
<feColorMatrix in="SourceAlpha" type="matrix" values="0 0 0 0 0 0 0 0 0 0 0 0 0 0 0 0 0 0 127 0" result="hardAlpha"/>
<feOffset dy="4"/>
<feGaussianBlur stdDeviation="2"/>
<feComposite in2="hardAlpha" operator="out"/>
<feColorMatrix type="matrix" values="0 0 0 0 0 0 0 0 0 0 0 0 0 0 0 0 0 0 0.25 0"/>
<feBlend mode="normal" in2="BackgroundImageFix" result="effect1_dropShadow_115_17775"/>
<feBlend mode="normal" in="SourceGraphic" in2="effect1_dropShadow_115_17775" result="shape"/>
</filter>
</defs>
</svg>
