<svg width="82" height="40" viewBox="0 0 82 40" fill="none" xmlns="http://www.w3.org/2000/svg">
<path d="M19.5076 20.0954L32.8225 12.4124C33.567 11.9818 34.2193 11.4088 34.7423 10.7262C35.2653 10.0435 35.6487 9.26447 35.8707 8.43361C36.0926 7.60275 36.1487 6.73631 36.0358 5.88377C35.9229 5.03122 35.6432 4.20926 35.2126 3.46482C34.782 2.72038 34.209 2.06803 33.5264 1.54503C32.8437 1.02203 32.0647 0.638613 31.2338 0.416674C29.5558 -0.0315528 27.7685 0.20516 26.265 1.07474L3.27246 14.3462L19.5076 20.0954Z" fill="#EA4335"/>
<path d="M29.5326 39.8378C30.974 39.8393 32.3756 39.3652 33.5202 38.4891C34.6647 37.613 35.4883 36.3837 35.8631 34.9919C36.2379 33.6001 36.1431 32.1235 35.5933 30.7911C35.0435 29.4586 34.0695 28.3448 32.8222 27.6223L9.82098 14.3465C8.31751 13.4781 6.53064 13.2425 4.85346 13.6915C3.17628 14.1405 1.74617 15.2374 0.877741 16.7409C0.00931423 18.2444 -0.226294 20.0313 0.222748 21.7084C0.671789 23.3856 1.7687 24.8157 3.27217 25.6842L26.2604 38.9556C27.2543 39.533 28.3832 39.8374 29.5326 39.8378Z" fill="#4285F4"/>
<path d="M52.3993 39.8381C53.5461 39.8409 54.6733 39.5411 55.6672 38.969L78.6554 25.6975L62.6288 19.8223L49.1184 27.6226C47.8696 28.3438 46.8938 29.457 46.3424 30.7894C45.791 32.1219 45.6948 33.5991 46.0687 34.9918C46.4427 36.3845 47.2658 37.6148 48.4105 38.4919C49.5551 39.369 50.9573 39.8437 52.3993 39.8424V39.8381Z" fill="#FBBC04"/>
<path d="M75.3749 26.5615C76.8174 26.5646 78.2205 26.0912 79.3662 25.2147C80.5118 24.3382 81.3357 23.1077 81.7099 21.7146C82.0841 20.3215 81.9875 18.8438 81.4352 17.5112C80.8829 16.1787 79.9058 15.0659 78.6559 14.346L55.6677 1.07452C54.1642 0.206091 52.3773 -0.0295164 50.7001 0.419525C49.023 0.868567 47.5928 1.96547 46.7244 3.46894C45.856 4.97241 45.6204 6.75928 46.0694 8.43646C46.5185 10.1136 47.6154 11.5438 49.1188 12.4122L72.1071 25.6836C73.1001 26.2588 74.2274 26.5616 75.3749 26.5615Z" fill="#0F9D58"/>
</svg>
