<svg width="37" height="38" viewBox="0 0 37 38" fill="none" xmlns="http://www.w3.org/2000/svg">
<path fill-rule="evenodd" clip-rule="evenodd" d="M18.5 0.453613C28.7173 0.453613 37 8.73635 37 18.9536C37 29.1709 28.7173 37.4536 18.5 37.4536C8.28273 37.4536 0 29.1709 0 18.9536C0 8.73635 8.28273 0.453613 18.5 0.453613ZM22.209 14.7659C21.2504 13.8493 20.031 13.3826 18.673 13.3826C16.2638 13.3826 14.2249 15.0097 13.4975 17.1961C13.3125 17.7511 13.2074 18.3439 13.2074 18.9536C13.2074 19.5632 13.3122 20.1561 13.4972 20.7111C14.2245 22.8974 16.2638 24.5246 18.673 24.5246C19.9175 24.5246 20.9774 24.1967 21.8057 23.6417C22.7854 22.9858 23.4371 22.0061 23.6515 20.8499H18.6733V17.2718H27.3852C27.4945 17.8773 27.5533 18.508 27.5533 19.1639C27.5533 21.9809 26.5443 24.3523 24.7952 25.9626C23.2647 27.3754 21.1705 28.2036 18.673 28.2036C15.0571 28.2036 11.9289 26.1307 10.4068 23.1077C9.78034 21.8589 9.42332 20.4462 9.42332 18.9536C9.42332 17.461 9.78071 16.0482 10.4072 14.7995C11.9292 11.7764 15.0571 9.70361 18.673 9.70361C21.1663 9.70361 23.2601 10.6202 24.8621 12.1128L22.209 14.7659Z" fill="white"/>
</svg>
