<svg width="37" height="38" viewBox="0 0 37 38" fill="none" xmlns="http://www.w3.org/2000/svg">
<path d="M18.5 22.1911C16.7656 22.1911 15.2625 20.8036 15.2625 18.9536C15.2625 17.2192 16.65 15.7161 18.5 15.7161C20.2344 15.7161 21.7375 17.1036 21.7375 18.9536C21.7375 20.688 20.2344 22.1911 18.5 22.1911Z" fill="white"/>
<path fill-rule="evenodd" clip-rule="evenodd" d="M22.4312 11.0911H14.5688C13.6438 11.2067 13.1813 11.3224 12.8344 11.438C12.3719 11.5536 12.025 11.7849 11.6781 12.1317C11.4036 12.4062 11.274 12.6807 11.1172 13.0125C11.0759 13.0999 11.0326 13.1915 10.9844 13.288C10.9665 13.3416 10.9458 13.3981 10.9237 13.4586C10.8027 13.789 10.6375 14.2405 10.6375 15.0224V22.8849C10.7531 23.8099 10.8687 24.2724 10.9844 24.6192C11.1 25.0817 11.3313 25.4286 11.6781 25.7755C11.9526 26.05 12.2271 26.1796 12.5589 26.3364C12.6464 26.3777 12.7378 26.421 12.8344 26.4692C12.888 26.4871 12.9445 26.5078 13.0049 26.5299C13.3354 26.6509 13.7868 26.8161 14.5688 26.8161H22.4312C23.3562 26.7005 23.8188 26.5849 24.1656 26.4692C24.6281 26.3536 24.975 26.1224 25.3219 25.7755C25.5964 25.501 25.726 25.2265 25.8828 24.8948C25.9241 24.8073 25.9674 24.7157 26.0156 24.6192C26.0335 24.5656 26.0542 24.5091 26.0763 24.4487C26.1973 24.1182 26.3625 23.6668 26.3625 22.8849V15.0224C26.2469 14.0974 26.1313 13.6349 26.0156 13.288C25.9 12.8255 25.6687 12.4786 25.3219 12.1317C25.0474 11.8573 24.7729 11.7276 24.4412 11.5708C24.3538 11.5295 24.262 11.4862 24.1656 11.438C24.112 11.4201 24.0555 11.3994 23.9951 11.3773C23.6646 11.2563 23.2132 11.0911 22.4312 11.0911ZM18.5 13.9817C15.725 13.9817 13.5281 16.1786 13.5281 18.9536C13.5281 21.7286 15.725 23.9255 18.5 23.9255C21.275 23.9255 23.4719 21.7286 23.4719 18.9536C23.4719 16.1786 21.275 13.9817 18.5 13.9817ZM24.7437 13.8661C24.7437 14.5047 24.2261 15.0224 23.5875 15.0224C22.9489 15.0224 22.4312 14.5047 22.4312 13.8661C22.4312 13.2275 22.9489 12.7099 23.5875 12.7099C24.2261 12.7099 24.7437 13.2275 24.7437 13.8661Z" fill="white"/>
<path fill-rule="evenodd" clip-rule="evenodd" d="M0 18.9536C0 8.73635 8.28273 0.453613 18.5 0.453613C28.7173 0.453613 37 8.73635 37 18.9536C37 29.1709 28.7173 37.4536 18.5 37.4536C8.28273 37.4536 0 29.1709 0 18.9536ZM14.5688 9.35674H22.4312C23.4719 9.47236 24.1656 9.58799 24.7437 9.81924C25.4375 10.1661 25.9 10.3974 26.4781 10.9755C27.0562 11.5536 27.4031 12.1317 27.6344 12.7099C27.8656 13.288 28.0969 13.9817 28.0969 15.0224V22.8849C27.9812 23.9255 27.8656 24.6192 27.6344 25.1974C27.2875 25.8911 27.0562 26.3536 26.4781 26.9317C25.9 27.5099 25.3219 27.8567 24.7437 28.088C24.1656 28.3192 23.4719 28.5505 22.4312 28.5505H14.5688C13.5281 28.4349 12.8344 28.3192 12.2563 28.088C11.5625 27.7411 11.1 27.5099 10.5219 26.9317C9.94375 26.3536 9.59688 25.7755 9.36563 25.1974C9.13438 24.6192 8.90312 23.9255 8.90312 22.8849V15.0224C9.01875 13.9817 9.13438 13.288 9.36563 12.7099C9.7125 12.0161 9.94375 11.5536 10.5219 10.9755C11.1 10.3974 11.6781 10.0505 12.2563 9.81924C12.8344 9.58799 13.5281 9.35674 14.5688 9.35674Z" fill="white"/>
</svg>
