<svg width="158" height="516" viewBox="0 0 158 516" fill="none" xmlns="http://www.w3.org/2000/svg">
<g filter="url(#filter0_d_115_17751)">
<mask id="path-1-outside-1_115_17751" maskUnits="userSpaceOnUse" x="4" y="85.8941" width="150" height="422" fill="black">
<rect fill="white" x="4" y="85.8941" width="150" height="422"/>
<path d="M43.1462 95.5841C73.5977 102.092 105.321 116.098 119.368 143.751C133.869 172.219 125.351 207.553 108.674 234.755C91.9079 261.957 67.7996 283.737 47.95 308.769C30.4575 330.91 16.0483 356.034 9.97545 383.597C3.90258 411.069 6.80273 441.252 21.6676 465.202C36.4409 489.241 64.084 505.959 92.2699 504.152C120.456 502.345 147.102 480.024 150.183 452.008C151.361 441.615 148.099 429.235 138.493 425.258C151.272 445.231 143.659 474.421 124.263 488.247C104.959 501.984 77.1346 500.899 56.923 488.336C36.7113 475.775 23.9333 453.363 19.583 430.048C17.1364 416.674 17.2258 402.846 19.8556 389.472C25.9285 359.197 44.5985 332.9 64.5375 309.313C84.4766 285.635 106.411 263.225 121.184 236.023C135.866 208.82 142.573 175.204 130.066 146.917C121.727 128.211 105.595 113.57 87.1064 104.353C68.7089 95.2254 48.0437 91.2486 27.5617 89.8941C31.9119 93.3273 37.7122 94.4122 43.1505 95.5885"/>
</mask>
<path d="M43.1462 95.5841C73.5977 102.092 105.321 116.098 119.368 143.751C133.869 172.219 125.351 207.553 108.674 234.755C91.9079 261.957 67.7996 283.737 47.95 308.769C30.4575 330.91 16.0483 356.034 9.97545 383.597C3.90258 411.069 6.80273 441.252 21.6676 465.202C36.4409 489.241 64.084 505.959 92.2699 504.152C120.456 502.345 147.102 480.024 150.183 452.008C151.361 441.615 148.099 429.235 138.493 425.258C151.272 445.231 143.659 474.421 124.263 488.247C104.959 501.984 77.1346 500.899 56.923 488.336C36.7113 475.775 23.9333 453.363 19.583 430.048C17.1364 416.674 17.2258 402.846 19.8556 389.472C25.9285 359.197 44.5985 332.9 64.5375 309.313C84.4766 285.635 106.411 263.225 121.184 236.023C135.866 208.82 142.573 175.204 130.066 146.917C121.727 128.211 105.595 113.57 87.1064 104.353C68.7089 95.2254 48.0437 91.2486 27.5617 89.8941C31.9119 93.3273 37.7122 94.4122 43.1505 95.5885" fill="#C60E1C"/>
<path d="M119.368 143.751L116.693 145.11L116.695 145.112L119.368 143.751ZM108.674 234.755L111.228 236.329L111.232 236.323L108.674 234.755ZM47.95 308.769L45.5993 306.906L45.596 306.91L47.95 308.769ZM9.97545 383.597L12.9047 384.245L12.9052 384.243L9.97545 383.597ZM21.6676 465.202L24.2236 463.631L24.2166 463.62L21.6676 465.202ZM150.183 452.008L147.203 451.671L147.201 451.68L150.183 452.008ZM138.493 425.258L139.641 422.487L130.823 418.836L135.966 426.875L138.493 425.258ZM124.263 488.247L126.002 490.691L126.004 490.69L124.263 488.247ZM56.923 488.336L58.5067 485.788L58.5065 485.788L56.923 488.336ZM19.583 430.048L16.632 430.588L16.6339 430.599L19.583 430.048ZM19.8556 389.472L16.9142 388.882L16.912 388.893L19.8556 389.472ZM64.5375 309.313L66.8286 311.25L66.8323 311.245L64.5375 309.313ZM121.184 236.023L123.82 237.454L123.824 237.448L121.184 236.023ZM130.066 146.917L132.809 145.703L132.806 145.695L130.066 146.917ZM87.1064 104.353L88.4448 101.668L88.4397 101.666L87.1064 104.353ZM27.5617 89.8941L27.7597 86.9006L18.1181 86.263L25.7032 92.249L27.5617 89.8941ZM42.5192 98.5179C72.741 104.976 103.285 118.715 116.693 145.11L122.042 142.392C107.356 113.482 74.4545 99.2071 43.7731 92.6504L42.5192 98.5179ZM116.695 145.112C130.513 172.241 122.541 206.397 106.117 233.187L111.232 236.323C128.161 208.709 137.224 172.196 122.041 142.389L116.695 145.112ZM106.12 233.181C97.8779 246.554 87.8004 258.642 77.2224 270.587C66.6962 282.473 55.5916 294.304 45.5993 306.906L50.3006 310.633C60.158 298.202 71.0324 286.627 81.7143 274.565C92.3445 262.561 102.704 250.158 111.228 236.329L106.12 233.181ZM45.596 306.91C27.9328 329.266 13.2484 354.799 7.04572 382.952L12.9052 384.243C18.8482 357.269 32.9822 332.554 50.3039 310.629L45.596 306.91ZM7.04617 382.95C0.842585 411.013 3.7561 442.033 19.1187 466.784L24.2166 463.62C9.84936 440.472 6.96258 411.125 12.9047 384.245L7.04617 382.95ZM19.1117 466.773C34.3719 491.604 62.9972 509.034 92.4618 507.146L92.078 501.158C65.1707 502.883 38.51 486.878 24.2235 463.631L19.1117 466.773ZM92.4618 507.146C121.885 505.26 149.902 482.006 153.165 452.336L147.201 451.68C144.302 478.042 119.027 499.43 92.078 501.158L92.4618 507.146ZM153.164 452.346C153.798 446.75 153.251 440.564 151.184 435.156C149.113 429.735 145.414 424.877 139.641 422.487L137.346 428.03C141.178 429.617 143.913 432.937 145.58 437.298C147.251 441.673 147.746 446.873 147.203 451.671L153.164 452.346ZM135.966 426.875C147.762 445.313 140.807 472.77 122.522 485.804L126.004 490.69C146.512 476.072 154.781 445.15 141.021 423.642L135.966 426.875ZM122.524 485.803C104.363 498.726 77.8662 497.822 58.5067 485.788L55.3393 490.884C76.403 503.977 105.555 505.242 126.002 490.691L122.524 485.803ZM58.5065 485.788C39.165 473.768 26.7647 452.182 22.5321 429.498L16.6339 430.599C21.1018 454.544 34.2577 477.783 55.3395 490.884L58.5065 485.788ZM22.5341 429.508C20.1552 416.505 20.242 403.056 22.7992 390.051L16.912 388.893C14.2097 402.636 14.1177 416.844 16.632 430.588L22.5341 429.508ZM22.797 390.062C28.7116 360.576 46.9459 334.77 66.8286 311.25L62.2465 307.376C42.251 331.029 23.1453 357.819 16.9142 388.882L22.797 390.062ZM66.8323 311.245C86.5717 287.805 108.855 265.011 123.82 237.454L118.548 234.591C103.967 261.439 82.3814 283.466 62.2428 307.381L66.8323 311.245ZM123.824 237.448C138.746 209.8 145.835 175.161 132.809 145.703L127.322 148.13C139.312 175.246 132.986 207.84 118.544 234.598L123.824 237.448ZM132.806 145.695C124.122 126.215 107.405 111.12 88.4448 101.668L85.7679 107.038C103.785 116.02 119.332 130.207 127.326 148.138L132.806 145.695ZM88.4397 101.666C69.5639 92.3007 48.4703 88.2703 27.7597 86.9006L27.3637 92.8875C47.6171 94.227 67.8539 98.1501 85.773 107.04L88.4397 101.666ZM25.7032 92.249C30.7175 96.2063 37.3204 97.3968 42.5163 98.5207L43.7848 92.6563C38.104 91.4276 33.1063 90.4482 29.4202 87.5391L25.7032 92.249Z" fill="white" mask="url(#path-1-outside-1_115_17751)"/>
<path d="M22.1966 72.2347L23.0098 73.5685L24.3095 72.7019C38.1778 63.4546 57.2245 65.7734 72.7829 72.9949C93.4844 82.6041 110.315 99.538 122.066 119.216L122.563 120.048L123.526 119.937C124.515 119.822 125.313 119.352 125.869 118.643C126.393 117.974 126.644 117.171 126.752 116.425C126.966 114.945 126.682 113.269 126.215 111.973L126.21 111.961L126.206 111.949C118.696 92.2215 105.916 73.6325 87.3968 63.0158C68.8898 52.3128 44.1538 50.7557 26.177 62.8891C24.8186 63.793 23.3691 65.1433 22.4561 66.6958C21.544 68.2468 21.019 70.3031 22.1966 72.2347Z" fill="#C60E1C" stroke="white" stroke-width="3"/>
<mask id="path-4-outside-2_115_17751" maskUnits="userSpaceOnUse" x="22.5669" y="20.1784" width="104" height="66" fill="black">
<rect fill="white" x="22.5669" y="20.1784" width="104" height="66"/>
<path d="M122.267 83.3824C123.536 81.3951 123.355 78.8642 123.083 76.5139C120.091 56.3605 106.679 38.0162 88.2789 29.2495C69.8815 20.3915 47.1317 21.296 29.5498 31.5086C27.7378 32.5914 25.7426 34.6721 26.9201 36.3876C44.4125 30.7845 63.8981 31.8695 80.6644 39.3707C97.3414 46.872 111.118 60.6982 118.549 77.4184C119.457 79.5861 120.362 81.9365 122.265 83.3824"/>
</mask>
<path d="M122.267 83.3824C123.536 81.3951 123.355 78.8642 123.083 76.5139C120.091 56.3605 106.679 38.0162 88.2789 29.2495C69.8815 20.3915 47.1317 21.296 29.5498 31.5086C27.7378 32.5914 25.7426 34.6721 26.9201 36.3876C44.4125 30.7845 63.8981 31.8695 80.6644 39.3707C97.3414 46.872 111.118 60.6982 118.549 77.4184C119.457 79.5861 120.362 81.9365 122.265 83.3824" fill="#C60E1C"/>
<path d="M123.083 76.5139L126.063 76.1683L126.057 76.1207L126.05 76.0733L123.083 76.5139ZM88.2789 29.2495L86.9775 31.9525L86.9885 31.9578L88.2789 29.2495ZM29.5498 31.5086L28.043 28.9144L28.0269 28.9238L28.011 28.9333L29.5498 31.5086ZM26.9201 36.3876L24.4467 38.0854L25.7097 39.9255L27.8352 39.2446L26.9201 36.3876ZM80.6644 39.3707L81.895 36.6348L81.8896 36.6323L80.6644 39.3707ZM118.549 77.4184L121.317 76.2603L121.304 76.23L121.291 76.1999L118.549 77.4184ZM124.796 84.997C126.717 81.988 126.32 78.3872 126.063 76.1683L120.103 76.8594C120.391 79.3413 120.356 80.8022 119.739 81.7677L124.796 84.997ZM126.05 76.0733C122.914 54.9455 108.883 35.7433 89.5693 26.5412L86.9885 31.9578C104.474 40.289 117.268 57.7756 120.115 76.9544L126.05 76.0733ZM89.5804 26.5465C70.2865 17.2569 46.4848 18.2024 28.043 28.9144L31.0566 34.1027C47.7786 24.3896 69.4765 23.5261 86.9775 31.9525L89.5804 26.5465ZM28.011 28.9333C26.865 29.6181 25.5197 30.6894 24.6152 32.0505C23.6981 33.4306 22.8741 35.7943 24.4467 38.0854L29.3935 34.6899C29.5205 34.8749 29.5872 35.1467 29.5615 35.3813C29.5432 35.5473 29.4959 35.5467 29.6125 35.3712C29.7223 35.2059 29.9139 34.9832 30.1952 34.7347C30.4708 34.4912 30.7838 34.266 31.0887 34.0838L28.011 28.9333ZM27.8352 39.2446C44.6234 33.8671 63.3468 34.9094 79.4392 42.1092L81.8896 36.6323C64.4493 28.8296 44.2017 27.7019 26.0049 33.5306L27.8352 39.2446ZM79.4338 42.1067C95.4383 49.3055 108.677 62.5918 115.808 78.6368L121.291 76.1999C113.559 58.8046 99.2444 44.4385 81.895 36.6348L79.4338 42.1067ZM115.782 78.5764C116.583 80.4915 117.769 83.7349 120.451 85.7714L124.08 80.9934C122.954 80.1381 122.33 78.6807 121.317 76.2603L115.782 78.5764Z" fill="white" mask="url(#path-4-outside-2_115_17751)"/>
<mask id="path-6-outside-3_115_17751" maskUnits="userSpaceOnUse" x="51.9492" y="0" width="72" height="46" fill="black">
<rect fill="white" x="51.9492" width="72" height="46"/>
<path d="M120.111 43.3625C120.962 42.0297 120.842 40.3337 120.659 38.7574C118.652 25.2465 109.66 12.9466 97.3243 7.06954C84.9889 1.1316 69.7358 1.73822 57.9499 8.58501C56.7353 9.31121 55.3965 10.7049 56.1858 11.8573C67.9129 8.10014 80.9788 8.82852 92.2196 13.8554C103.399 18.8845 112.636 28.1556 117.619 39.364C118.227 40.8186 118.836 42.3928 120.111 43.3625Z"/>
</mask>
<path d="M120.111 43.3625C120.962 42.0297 120.842 40.3337 120.659 38.7574C118.652 25.2465 109.66 12.9466 97.3243 7.06954C84.9889 1.1316 69.7358 1.73822 57.9499 8.58501C56.7353 9.31121 55.3965 10.7049 56.1858 11.8573C67.9129 8.10014 80.9788 8.82852 92.2196 13.8554C103.399 18.8845 112.636 28.1556 117.619 39.364C118.227 40.8186 118.836 42.3928 120.111 43.3625Z" fill="#C60E1C"/>
<path d="M120.659 38.7574L123.639 38.4111L123.633 38.3639L123.626 38.3168L120.659 38.7574ZM97.3243 7.06954L96.0231 9.77268L96.034 9.77786L97.3243 7.06954ZM57.9499 8.58501L56.4429 5.99096L56.4266 6.00046L56.4104 6.01016L57.9499 8.58501ZM56.1858 11.8573L53.7108 13.5527L54.9734 15.3959L57.1011 14.7142L56.1858 11.8573ZM92.2196 13.8554L93.4504 11.1195L93.4444 11.1168L92.2196 13.8554ZM117.619 39.364L120.387 38.2064L120.374 38.1758L120.36 38.1454L117.619 39.364ZM122.64 44.9762C124.142 42.6228 123.807 39.8596 123.639 38.4111L117.679 39.1037C117.768 39.8758 117.813 40.4573 117.779 40.9482C117.748 41.4159 117.653 41.6371 117.582 41.7488L122.64 44.9762ZM123.626 38.3168C121.475 23.8315 111.864 10.6737 98.6147 4.36122L96.034 9.77786C107.455 15.2195 115.83 26.6615 117.691 39.198L123.626 38.3168ZM98.6255 4.36642C85.3938 -2.00296 69.089 -1.35546 56.4429 5.99096L59.4569 11.1791C70.3827 4.83191 84.584 4.26616 96.0231 9.77266L98.6255 4.36642ZM56.4104 6.01016C55.5645 6.51592 54.5327 7.32586 53.8183 8.4001C53.0906 9.49445 52.3349 11.544 53.7108 13.5527L58.6608 10.1619C58.7576 10.3031 58.8465 10.4867 58.8996 10.7043C58.9524 10.9205 58.9581 11.1222 58.9396 11.2904C58.9049 11.6055 58.7931 11.7546 58.8144 11.7226C58.8291 11.7006 58.8947 11.6147 59.0367 11.4893C59.173 11.3689 59.3333 11.2532 59.4894 11.1599L56.4104 6.01016ZM57.1011 14.7142C68.1237 11.1828 80.4276 11.8683 90.9949 16.5941L93.4444 11.1168C81.53 5.7887 67.7021 5.01746 55.2705 9.00033L57.1011 14.7142ZM90.9889 16.5914C101.496 21.318 110.195 30.0492 114.877 40.5827L120.36 38.1454C115.078 26.2621 105.303 16.4511 93.4504 11.1195L90.9889 16.5914ZM114.851 40.5216C115.356 41.7281 116.244 44.1912 118.296 45.7508L121.927 40.9742C121.427 40.5944 121.099 39.9091 120.387 38.2064L114.851 40.5216Z" fill="white" mask="url(#path-6-outside-3_115_17751)"/>
<mask id="path-8-outside-4_115_17751" maskUnits="userSpaceOnUse" x="35.7031" y="145.643" width="56" height="61" fill="black">
<rect fill="white" x="35.7031" y="145.643" width="56" height="61"/>
<path d="M49.2191 188.847C54.7468 198.427 66.258 203.217 77.3157 203.397C79.0383 203.489 80.7588 203.397 82.3898 202.765C86.7401 201.047 88.3711 195.624 88.3711 190.926C88.3711 184.781 86.4675 178.726 82.9328 173.666C76.9515 165.263 67.2545 160.382 58.0089 155.953C53.3883 153.694 48.7655 151.526 44.1427 149.265C42.6011 148.543 40.2461 148.18 39.7031 149.717C45.3203 154.959 52.3002 158.392 59.1886 161.917C65.9855 165.441 72.7823 169.235 77.8586 175.021C82.8434 180.896 85.652 189.119 83.116 196.348C82.8434 197.162 82.4814 197.975 81.7575 198.518C80.9419 199.24 79.6728 199.332 78.4953 199.332C64.5375 199.512 51.3059 188.217 49.3107 174.299C48.5867 168.785 49.2213 162.371 45.233 158.303C43.1484 161.736 43.6914 166.165 44.1449 170.233C45.052 176.65 45.957 183.246 49.2213 188.849"/>
</mask>
<path d="M49.2191 188.847C54.7468 198.427 66.258 203.217 77.3157 203.397C79.0383 203.489 80.7588 203.397 82.3898 202.765C86.7401 201.047 88.3711 195.624 88.3711 190.926C88.3711 184.781 86.4675 178.726 82.9328 173.666C76.9515 165.263 67.2545 160.382 58.0089 155.953C53.3883 153.694 48.7655 151.526 44.1427 149.265C42.6011 148.543 40.2461 148.18 39.7031 149.717C45.3203 154.959 52.3002 158.392 59.1886 161.917C65.9855 165.441 72.7823 169.235 77.8586 175.021C82.8434 180.896 85.652 189.119 83.116 196.348C82.8434 197.162 82.4814 197.975 81.7575 198.518C80.9419 199.24 79.6728 199.332 78.4953 199.332C64.5375 199.512 51.3059 188.217 49.3107 174.299C48.5867 168.785 49.2213 162.371 45.233 158.303C43.1484 161.736 43.6914 166.165 44.1449 170.233C45.052 176.65 45.957 183.246 49.2213 188.849" fill="#C60E1C"/>
<path d="M77.3157 203.397L77.4745 200.402L77.4196 200.399L77.3646 200.398L77.3157 203.397ZM82.3898 202.765L83.4748 205.562L83.4832 205.558L83.4916 205.555L82.3898 202.765ZM82.9328 173.666L85.3921 171.948L85.3845 171.938L85.3769 171.927L82.9328 173.666ZM58.0089 155.953L56.6913 158.648L56.702 158.653L56.7129 158.658L58.0089 155.953ZM44.1427 149.265L45.4609 146.57L45.438 146.558L45.4149 146.548L44.1427 149.265ZM39.7031 149.717L36.8744 148.718L36.2202 150.57L37.6563 151.91L39.7031 149.717ZM59.1886 161.917L60.5697 159.253L60.5624 159.25L60.5551 159.246L59.1886 161.917ZM77.8586 175.021L80.1461 173.08L80.1301 173.061L80.1137 173.042L77.8586 175.021ZM83.116 196.348L80.2851 195.355L80.2781 195.375L80.2715 195.395L83.116 196.348ZM81.7575 198.518L79.9562 196.119L79.8596 196.192L79.7691 196.272L81.7575 198.518ZM78.4953 199.332V196.332H78.4759L78.4565 196.332L78.4953 199.332ZM49.3107 174.299L46.3362 174.69L46.3385 174.707L46.341 174.725L49.3107 174.299ZM45.233 158.303L47.3753 156.203L44.6725 153.446L42.6687 156.746L45.233 158.303ZM44.1449 170.233L41.1634 170.566L41.1683 170.61L41.1745 170.653L44.1449 170.233ZM46.6207 190.347C52.8415 201.128 65.5356 206.206 77.2667 206.397L77.3646 200.398C66.9804 200.228 56.6522 195.727 51.8176 187.348L46.6207 190.347ZM77.1569 206.393C79.0635 206.494 81.2726 206.416 83.4748 205.562L81.3049 199.968C80.245 200.379 79.0131 200.483 77.4745 200.402L77.1569 206.393ZM83.4916 205.555C86.6127 204.323 88.5921 201.814 89.7567 199.174C90.9153 196.546 91.3711 193.584 91.3711 190.926H85.3711C85.3711 192.967 85.0114 195.064 84.2669 196.753C83.5284 198.427 82.5172 199.489 81.2881 199.974L83.4916 205.555ZM91.3711 190.926C91.3711 184.166 89.2783 177.511 85.3921 171.948L80.4735 175.385C83.6567 179.941 85.3711 185.397 85.3711 190.926H91.3711ZM85.3769 171.927C78.8793 162.798 68.4524 157.629 59.305 153.247L56.7129 158.658C66.0567 163.134 75.0237 167.728 80.4887 175.406L85.3769 171.927ZM59.3266 153.257C57.0036 152.122 54.6818 151.01 52.3726 149.904C50.0598 148.796 47.7594 147.694 45.4609 146.57L42.8245 151.959C45.1488 153.096 47.4713 154.209 49.7807 155.315C52.0938 156.423 54.3936 157.524 56.6913 158.648L59.3266 153.257ZM45.4149 146.548C44.3637 146.055 42.9356 145.625 41.5091 145.644C40.1131 145.662 37.7599 146.211 36.8744 148.718L42.5319 150.716C42.4773 150.87 42.3828 151.044 42.2396 151.207C42.0983 151.368 41.9461 151.477 41.8178 151.545C41.5847 151.669 41.4644 151.645 41.5878 151.643C41.6945 151.642 41.8869 151.66 42.1473 151.725C42.401 151.788 42.6552 151.881 42.8706 151.981L45.4149 146.548ZM37.6563 151.91C43.6433 157.497 51.0462 161.12 57.8221 164.587L60.5551 159.246C53.5542 155.664 46.9972 152.421 41.75 147.524L37.6563 151.91ZM57.8076 164.58C64.6163 168.111 70.9403 171.685 75.6036 177L80.1137 173.042C74.6243 166.786 67.3546 162.772 60.5697 159.253L57.8076 164.58ZM75.5711 176.962C80.1331 182.339 82.3507 189.467 80.2851 195.355L85.9468 197.341C88.9532 188.771 85.5537 179.453 80.1461 173.08L75.5711 176.962ZM80.2715 195.395C80.1615 195.723 80.0772 195.914 80.0072 196.036C79.9461 196.142 79.9249 196.143 79.9562 196.119L83.5588 200.917C85.0539 199.795 85.6524 198.221 85.9604 197.302L80.2715 195.395ZM79.7691 196.272C79.8969 196.159 79.9383 196.201 79.6749 196.254C79.4072 196.307 79.0357 196.332 78.4953 196.332V202.332C79.1325 202.332 79.9842 202.31 80.8494 202.138C81.7188 201.964 82.8025 201.6 83.7459 200.765L79.7691 196.272ZM78.4565 196.332C66.0084 196.493 54.062 186.302 52.2803 173.873L46.341 174.725C48.5498 190.132 63.0667 202.531 78.5341 202.331L78.4565 196.332ZM52.2851 173.909C52.1181 172.637 52.0282 171.303 51.9211 169.828C51.8168 168.393 51.6968 166.837 51.4612 165.303C50.9907 162.241 50.0093 158.89 47.3753 156.203L43.0908 160.403C44.445 161.785 45.1405 163.674 45.5308 166.214C45.7255 167.482 45.8318 168.817 45.9369 170.263C46.039 171.669 46.1412 173.205 46.3362 174.69L52.2851 173.909ZM42.6687 156.746C41.2626 159.062 40.8166 161.595 40.7388 163.93C40.662 166.235 40.9432 168.591 41.1634 170.566L47.1265 169.901C46.8931 167.808 46.676 165.915 46.7355 164.13C46.794 162.375 47.1188 160.977 47.7973 159.86L42.6687 156.746ZM41.1745 170.653C42.0635 176.942 43.0157 184.157 46.6291 190.36L51.8134 187.339C48.8982 182.335 48.0406 176.357 47.1154 169.813L41.1745 170.653Z" fill="white" mask="url(#path-8-outside-4_115_17751)"/>
<mask id="path-10-outside-5_115_17751" maskUnits="userSpaceOnUse" x="31.0381" y="118.334" width="72" height="84" fill="black">
<rect fill="white" x="31.0381" y="118.334" width="72" height="84"/>
<path d="M35.1688 126.128C43.5073 136.341 57.1009 140.046 68.5205 146.642C75.2279 150.439 81.3008 155.409 86.4644 161.193C89.3645 164.445 91.9921 168.061 93.4444 172.216C96.4339 180.441 94.4409 189.567 92.4457 198.064C93.2612 198.877 94.5303 197.883 95.1648 196.979C102.053 187.038 100.331 173.032 93.8064 162.819C87.2821 152.698 76.7674 145.738 66.1634 140.046C55.4677 134.353 44.2312 129.563 34.6237 122.334C33.4462 123.239 34.2617 125.045 35.1688 126.128Z"/>
</mask>
<path d="M35.1688 126.128C43.5073 136.341 57.1009 140.046 68.5205 146.642C75.2279 150.439 81.3008 155.409 86.4644 161.193C89.3645 164.445 91.9921 168.061 93.4444 172.216C96.4339 180.441 94.4409 189.567 92.4457 198.064C93.2612 198.877 94.5303 197.883 95.1648 196.979C102.053 187.038 100.331 173.032 93.8064 162.819C87.2821 152.698 76.7674 145.738 66.1634 140.046C55.4677 134.353 44.2312 129.563 34.6237 122.334C33.4462 123.239 34.2617 125.045 35.1688 126.128Z" fill="#C60E1C"/>
<path d="M68.5205 146.642L67.0199 149.24L67.0313 149.247L67.0428 149.253L68.5205 146.642ZM86.4644 161.193L88.7036 159.196L88.7023 159.195L86.4644 161.193ZM93.4444 172.216L90.6124 173.206L90.6185 173.224L90.6248 173.241L93.4444 172.216ZM92.4457 198.064L89.5251 197.378L89.1427 199.007L90.3274 200.188L92.4457 198.064ZM95.1648 196.979L97.6208 198.702L97.6257 198.695L97.6307 198.688L95.1648 196.979ZM93.8064 162.819L96.3345 161.204L96.3279 161.194L93.8064 162.819ZM66.1634 140.046L67.5823 137.402L67.5728 137.397L66.1634 140.046ZM34.6237 122.334L36.4275 119.937L34.605 118.565L32.7962 119.955L34.6237 122.334ZM32.845 128.025C37.4034 133.608 43.3205 137.315 49.3138 140.407C52.3036 141.95 55.4065 143.384 58.3738 144.798C61.3728 146.227 64.2737 147.654 67.0199 149.24L70.0211 144.045C67.0576 142.333 63.9769 140.822 60.9548 139.382C57.9009 137.927 54.943 136.56 52.0647 135.075C46.3217 132.112 41.2727 128.86 37.4926 124.231L32.845 128.025ZM67.0428 149.253C73.4512 152.88 79.2703 157.639 84.2265 163.191L88.7023 159.195C83.3314 153.179 77.0047 147.997 69.9982 144.032L67.0428 149.253ZM84.2252 163.189C87.0116 166.314 89.3472 169.586 90.6124 173.206L96.2764 171.226C94.6371 166.536 91.7175 162.576 88.7036 159.196L84.2252 163.189ZM90.6248 173.241C93.2598 180.491 91.5575 188.723 89.5251 197.378L95.3662 198.75C97.3243 190.411 99.608 180.392 96.2639 171.191L90.6248 173.241ZM90.3274 200.188C91.0764 200.935 92.0368 201.334 93.0384 201.363C93.9543 201.39 94.7236 201.105 95.2597 200.826C96.302 200.283 97.1149 199.423 97.6208 198.702L92.7089 195.256C92.6659 195.317 92.6016 195.393 92.5325 195.458C92.458 195.528 92.4351 195.532 92.4866 195.505C92.5242 195.486 92.7836 195.354 93.2124 195.366C93.7268 195.381 94.2227 195.599 94.5639 195.94L90.3274 200.188ZM97.6307 198.688C105.42 187.447 103.283 172.081 96.3345 161.204L91.2782 164.434C97.3781 173.982 98.6867 186.629 92.699 195.27L97.6307 198.688ZM96.3279 161.194C89.3718 150.402 78.2815 143.146 67.5822 137.402L64.7445 142.689C75.2534 148.33 85.1925 154.993 91.2848 164.444L96.3279 161.194ZM67.5728 137.397C56.5666 131.54 45.7857 126.979 36.4275 119.937L32.8199 124.731C42.6768 132.148 54.3688 137.167 64.7539 142.694L67.5728 137.397ZM32.7962 119.955C30.9042 121.408 30.8753 123.539 31.1993 124.872C31.5114 126.157 32.2253 127.286 32.8692 128.055L37.4685 124.202C37.3579 124.07 37.248 123.912 37.1609 123.754C37.0706 123.591 37.0371 123.486 37.0297 123.456C37.0204 123.417 37.0689 123.575 37.0023 123.854C36.967 124.001 36.9022 124.168 36.7966 124.333C36.6904 124.498 36.5666 124.624 36.4512 124.713L32.7962 119.955Z" fill="white" mask="url(#path-10-outside-5_115_17751)"/>
<path d="M82.6336 271.408C77.9083 263.145 69.4372 257.095 60.0558 255.419L60.0415 255.404L59.5534 255.331C58.8983 255.234 58.0446 255.221 57.2679 255.458C56.4816 255.699 55.416 256.345 55.293 257.723L55.1935 258.839L56.2354 259.251C64.345 262.459 71.1694 268.727 75.0471 276.523C75.7535 277.948 76.3576 279.43 76.8646 280.948L78.0943 284.632L79.6601 281.078C80.8006 278.49 81.8444 275.666 82.7684 272.583L82.9532 271.966L82.6336 271.408Z" fill="#C60E1C" stroke="white" stroke-width="3"/>
<path d="M46.7393 270.758C54.8489 273.965 61.6712 280.234 65.5489 288.029C66.5952 290.141 67.415 292.37 68.0164 294.665L68.7123 297.319L70.571 295.3C72.2128 293.516 73.7877 291.496 75.2723 289.22L75.679 288.597L75.4286 287.896C75.3673 287.724 75.3047 287.553 75.2407 287.381H75.3449L74.3589 285.251C69.9099 275.639 60.507 268.533 50.0757 266.843L50.0663 266.841L50.0569 266.84C49.4024 266.742 48.5489 266.729 47.7723 266.965C46.9849 267.205 45.9199 267.852 45.797 269.229L45.6974 270.345L46.7393 270.758Z" fill="#C60E1C" stroke="white" stroke-width="3"/>
<path d="M37.2407 282.264C45.3502 285.472 52.1743 291.74 56.0498 299.535C56.5899 300.626 57.0664 301.755 57.4933 302.91L58.0803 304.499L59.5865 303.724C61.4416 302.77 63.2927 301.618 65.111 300.252L66.0232 299.567L65.7565 298.888H65.8464L64.8604 296.757C60.4115 287.146 51.0109 280.038 40.5768 278.35L40.5678 278.348L40.5588 278.347C39.9047 278.249 39.0514 278.236 38.2748 278.472C37.4882 278.712 36.4214 279.358 36.2984 280.736L36.1988 281.852L37.2407 282.264Z" fill="#C60E1C" stroke="white" stroke-width="3"/>
<path d="M52.1015 160.349L53.4313 159.655L50.5985 160.416L50.5985 160.416L50.5985 160.416L50.5985 160.417L50.5986 160.418L50.5989 160.425L50.6 160.454L50.6047 160.567C50.6087 160.668 50.6147 160.817 50.6223 161.012L50.6235 161.042L50.6258 161.072C50.6316 161.145 50.6376 161.241 50.6447 161.353C50.667 161.708 50.7003 162.237 50.7728 162.812C50.9322 164.318 51.2512 166.422 51.8091 168.9L51.81 168.904C52.3781 171.395 53.2128 174.257 54.3704 177.243C54.6548 178.015 54.9805 178.774 55.3036 179.509C55.6313 180.297 56.0056 181.07 56.3634 181.805C56.7395 182.577 57.144 183.341 57.5466 184.085L57.558 184.106L57.5702 184.127C57.6658 184.29 57.7624 184.457 57.8602 184.625C58.1866 185.188 58.5254 185.771 58.8773 186.343L58.8874 186.359L58.898 186.375C59.8236 187.794 60.8155 189.278 61.9856 190.647C63.1111 192.053 64.3908 193.3 65.6471 194.412L65.6725 194.435L65.6989 194.456C65.7519 194.499 65.8054 194.542 65.8592 194.586C66.4402 195.056 67.0675 195.564 67.729 196.014L67.7675 196.04L67.8075 196.064C68.0192 196.19 68.2047 196.311 68.4161 196.45C68.5239 196.521 68.6384 196.596 68.7665 196.678C69.1068 196.896 69.5053 197.139 69.9577 197.342C70.0218 197.373 70.0873 197.406 70.1542 197.439C70.7432 197.733 71.4376 198.078 72.1761 198.31C72.3467 198.37 72.4988 198.422 72.6479 198.474C72.8149 198.532 72.978 198.588 73.1587 198.652L73.2432 198.681L73.3307 198.7C73.5805 198.756 73.8244 198.811 74.0679 198.865C74.157 198.885 74.246 198.905 74.3352 198.925L74.3546 198.93L74.3742 198.934C74.4381 198.946 74.5186 198.963 74.6093 198.983C74.846 199.033 75.1521 199.098 75.4132 199.136L75.4644 199.143L75.516 199.147C75.6434 199.156 75.7658 199.165 75.8853 199.174C76.0779 199.188 76.2631 199.201 76.4503 199.216L76.471 199.218L76.4917 199.219C76.6708 199.228 76.8403 199.237 77.0114 199.247C77.1285 199.253 77.2464 199.26 77.3686 199.266L77.4655 199.272L77.5622 199.264C77.7549 199.249 77.9423 199.236 78.1289 199.223C78.2028 199.217 78.2766 199.212 78.3505 199.207C79.41 199.183 80.36 198.934 80.9884 198.77C81.112 198.738 81.2232 198.709 81.3203 198.685L81.3348 198.682L81.3492 198.678C81.8145 198.555 82.2037 198.399 82.5062 198.266C82.674 198.192 82.7832 198.141 82.8648 198.104C82.9622 198.059 83.0202 198.032 83.0913 198.005L83.1461 197.985L83.1992 197.961C83.3752 197.879 83.5103 197.817 83.6013 197.775L83.7043 197.728L83.7302 197.716L83.7366 197.713L83.7382 197.712L83.7386 197.712L83.7387 197.712L83.1289 194.849L83.1288 194.849H83.1285L83.1278 194.849L83.1255 194.849L83.1173 194.849L83.0861 194.848L82.9667 194.848C82.8648 194.847 82.7163 194.847 82.5246 194.846C82.3587 194.843 82.1567 194.848 81.9744 194.851C81.9047 194.853 81.8379 194.854 81.7771 194.855C81.5277 194.859 81.2661 194.858 80.9839 194.841C80.8189 194.823 80.6597 194.808 80.5042 194.793C79.916 194.737 79.379 194.686 78.7678 194.53L78.7373 194.522L78.7065 194.516C78.5108 194.474 78.3092 194.432 78.1029 194.387C77.9017 194.316 77.6936 194.241 77.4811 194.164L77.4664 194.159L77.4515 194.154C77.3456 194.118 77.2443 194.084 77.1438 194.05C77.0132 194.006 76.8842 193.963 76.7486 193.917C76.6487 193.875 76.5753 193.839 76.4751 193.789C76.3856 193.744 76.2747 193.689 76.1043 193.61L75.4728 194.97L76.1043 193.61C75.8773 193.504 75.6468 193.397 75.4126 193.288C75.3215 193.232 75.2332 193.178 75.1452 193.124C75.008 193.04 74.8717 192.956 74.7274 192.867L74.6927 192.846L74.6569 192.826C74.2504 192.605 73.8435 192.3 73.3107 191.9L73.3047 191.896L73.2701 191.87L73.2339 191.846C73.0584 191.73 72.8707 191.575 72.6316 191.365C72.5789 191.319 72.5214 191.268 72.4604 191.214C72.2864 191.059 72.0838 190.879 71.8822 190.713C71.4201 190.27 70.9556 189.817 70.5019 189.351C69.5705 188.324 68.6598 187.256 67.8119 186.094L67.8045 186.083L67.797 186.073C66.9214 184.914 66.0853 183.656 65.2628 182.352L65.2609 182.349C64.4459 181.065 63.675 179.733 62.9152 178.386L62.8964 178.352C62.1544 176.999 61.4316 175.682 60.7673 174.387L60.7673 174.387L60.7641 174.381C59.3945 171.74 58.1558 169.225 57.0884 167.042L57.087 167.039C56.539 165.924 56.0375 164.905 55.5941 164.003C55.1615 163.124 54.7841 162.357 54.4727 161.723L54.4718 161.721C54.1505 161.069 53.8915 160.555 53.7123 160.203C53.6226 160.026 53.553 159.891 53.5054 159.798L53.451 159.693L53.4367 159.665L53.4329 159.658L53.4318 159.656L53.4315 159.656L53.4314 159.655L53.4313 159.655L52.1015 160.349Z" fill="#C60E1C" stroke="white" stroke-width="3"/>
</g>
<defs>
<filter id="filter0_d_115_17751" x="0.000488281" y="0" width="157.413" height="515.286" filterUnits="userSpaceOnUse" color-interpolation-filters="sRGB">
<feFlood flood-opacity="0" result="BackgroundImageFix"/>
<feColorMatrix in="SourceAlpha" type="matrix" values="0 0 0 0 0 0 0 0 0 0 0 0 0 0 0 0 0 0 127 0" result="hardAlpha"/>
<feOffset dy="4"/>
<feGaussianBlur stdDeviation="2"/>
<feComposite in2="hardAlpha" operator="out"/>
<feColorMatrix type="matrix" values="0 0 0 0 0 0 0 0 0 0 0 0 0 0 0 0 0 0 0.25 0"/>
<feBlend mode="normal" in2="BackgroundImageFix" result="effect1_dropShadow_115_17751"/>
<feBlend mode="normal" in="SourceGraphic" in2="effect1_dropShadow_115_17751" result="shape"/>
</filter>
</defs>
</svg>
