<svg width="158" height="516" viewBox="0 0 158 516" fill="none" xmlns="http://www.w3.org/2000/svg">
<g filter="url(#filter0_d_115_17762)">
<mask id="path-1-outside-1_115_17762" maskUnits="userSpaceOnUse" x="4" y="85.8941" width="150" height="422" fill="black">
<rect fill="white" x="4" y="85.8941" width="150" height="422"/>
<path d="M114.854 95.5841C84.4023 102.092 52.6794 116.098 38.6322 143.751C24.1315 172.219 32.6488 207.553 49.3257 234.755C66.0921 261.957 90.2004 283.737 110.05 308.769C127.543 330.91 141.952 356.034 148.025 383.597C154.097 411.069 151.197 441.252 136.332 465.202C121.559 489.241 93.916 505.959 65.7301 504.152C37.5441 502.345 10.8977 480.024 7.81651 452.008C6.63901 441.615 9.90114 429.235 19.5065 425.258C6.72841 445.231 14.3408 474.421 33.7369 488.247C53.0414 501.984 80.8654 500.899 101.077 488.336C121.289 475.775 134.067 453.363 138.417 430.048C140.864 416.674 140.774 402.846 138.144 389.472C132.072 359.197 113.402 332.9 93.4625 309.313C73.5234 285.635 51.5891 263.225 36.8158 236.023C22.1341 208.82 15.4267 175.204 27.9344 146.917C36.2729 128.211 52.4047 113.57 70.8936 104.353C89.2911 95.2254 109.956 91.2486 130.438 89.8941C126.088 93.3273 120.288 94.4122 114.849 95.5885"/>
</mask>
<path d="M114.854 95.5841C84.4023 102.092 52.6794 116.098 38.6322 143.751C24.1315 172.219 32.6488 207.553 49.3257 234.755C66.0921 261.957 90.2004 283.737 110.05 308.769C127.543 330.91 141.952 356.034 148.025 383.597C154.097 411.069 151.197 441.252 136.332 465.202C121.559 489.241 93.916 505.959 65.7301 504.152C37.5441 502.345 10.8977 480.024 7.81651 452.008C6.63901 441.615 9.90114 429.235 19.5065 425.258C6.72841 445.231 14.3408 474.421 33.7369 488.247C53.0414 501.984 80.8654 500.899 101.077 488.336C121.289 475.775 134.067 453.363 138.417 430.048C140.864 416.674 140.774 402.846 138.144 389.472C132.072 359.197 113.402 332.9 93.4625 309.313C73.5234 285.635 51.5891 263.225 36.8158 236.023C22.1341 208.82 15.4267 175.204 27.9344 146.917C36.2729 128.211 52.4047 113.57 70.8936 104.353C89.2911 95.2254 109.956 91.2486 130.438 89.8941C126.088 93.3273 120.288 94.4122 114.849 95.5885" fill="#C60E1C"/>
<path d="M38.6322 143.751L41.3069 145.11L41.3054 145.112L38.6322 143.751ZM49.3257 234.755L46.7718 236.329L46.7681 236.323L49.3257 234.755ZM110.05 308.769L112.401 306.906L112.404 306.91L110.05 308.769ZM148.025 383.597L145.095 384.245L145.095 384.243L148.025 383.597ZM136.332 465.202L133.776 463.631L133.783 463.62L136.332 465.202ZM7.81651 452.008L10.7975 451.671L10.7985 451.68L7.81651 452.008ZM19.5065 425.258L18.3589 422.487L27.1769 418.836L22.0336 426.875L19.5065 425.258ZM33.7369 488.247L31.9975 490.691L31.9955 490.69L33.7369 488.247ZM101.077 488.336L99.4933 485.788L99.4935 485.788L101.077 488.336ZM138.417 430.048L141.368 430.588L141.366 430.599L138.417 430.048ZM138.144 389.472L141.086 388.882L141.088 388.893L138.144 389.472ZM93.4625 309.313L91.1714 311.25L91.1677 311.245L93.4625 309.313ZM36.8158 236.023L34.1795 237.454L34.1758 237.448L36.8158 236.023ZM27.9344 146.917L25.1906 145.703L25.1943 145.695L27.9344 146.917ZM70.8936 104.353L69.5552 101.668L69.5603 101.666L70.8936 104.353ZM130.438 89.8941L130.24 86.9006L139.882 86.263L132.297 92.249L130.438 89.8941ZM115.481 98.5179C85.259 104.976 54.715 118.715 41.3069 145.11L35.9576 142.392C50.6439 113.482 83.5455 99.2071 114.227 92.6504L115.481 98.5179ZM41.3054 145.112C27.4869 172.241 35.4589 206.397 51.8833 233.187L46.7681 236.323C29.8387 208.709 20.7761 172.196 35.959 142.389L41.3054 145.112ZM51.8796 233.181C60.1221 246.554 70.1996 258.642 80.7776 270.587C91.3038 282.473 102.408 294.304 112.401 306.906L107.699 310.633C97.842 298.202 86.9676 286.627 76.2857 274.565C65.6555 262.561 55.2956 250.158 46.7719 236.329L51.8796 233.181ZM112.404 306.91C130.067 329.266 144.752 354.799 150.954 382.952L145.095 384.243C139.152 357.269 125.018 332.554 107.696 310.629L112.404 306.91ZM150.954 382.95C157.157 411.013 154.244 442.033 138.881 466.784L133.783 463.62C148.151 440.472 151.037 411.125 145.095 384.245L150.954 382.95ZM138.888 466.773C123.628 491.604 95.0028 509.034 65.5382 507.146L65.922 501.158C92.8293 502.883 119.49 486.878 133.776 463.631L138.888 466.773ZM65.5382 507.146C36.1151 505.26 8.09755 482.006 4.8345 452.336L10.7985 451.68C13.6978 478.042 38.9731 499.43 65.922 501.158L65.5382 507.146ZM4.83559 452.346C4.20161 446.75 4.74922 440.564 6.81555 435.156C8.88721 429.735 12.5856 424.877 18.3589 422.487L20.6541 428.03C16.822 429.617 14.0867 432.937 12.4203 437.298C10.7486 441.673 10.2539 446.873 10.7975 451.671L4.83559 452.346ZM22.0336 426.875C10.2376 445.313 17.1932 472.77 35.4782 485.804L31.9955 490.69C11.4883 476.072 3.21922 445.15 16.9794 423.642L22.0336 426.875ZM35.4762 485.803C53.6374 498.726 80.1338 497.822 99.4933 485.788L102.661 490.884C81.597 503.977 52.4454 505.242 31.9975 490.691L35.4762 485.803ZM99.4935 485.788C118.835 473.768 131.235 452.182 135.468 429.498L141.366 430.599C136.898 454.544 123.742 477.783 102.661 490.884L99.4935 485.788ZM135.466 429.508C137.845 416.505 137.758 403.056 135.201 390.051L141.088 388.893C143.79 402.636 143.882 416.844 141.368 430.588L135.466 429.508ZM135.203 390.062C129.288 360.576 111.054 334.77 91.1714 311.25L95.7535 307.376C115.749 331.029 134.855 357.819 141.086 388.882L135.203 390.062ZM91.1677 311.245C71.4283 287.805 49.1452 265.011 34.1795 237.454L39.4521 234.591C54.0331 261.439 75.6186 283.466 95.7572 307.381L91.1677 311.245ZM34.1758 237.448C19.2539 209.8 12.1652 175.161 25.1907 145.703L30.6781 148.13C18.6881 175.246 25.0143 207.84 39.4558 234.598L34.1758 237.448ZM25.1943 145.695C33.878 126.215 50.5946 111.12 69.5552 101.668L72.2321 107.038C54.2147 116.02 38.6677 130.207 30.6745 148.138L25.1943 145.695ZM69.5603 101.666C88.4361 92.3007 109.53 88.2703 130.24 86.9006L130.636 92.8875C110.383 94.227 90.1461 98.1501 72.227 107.04L69.5603 101.666ZM132.297 92.249C127.282 96.2063 120.68 97.3968 115.484 98.5207L114.215 92.6563C119.896 91.4276 124.894 90.4482 128.58 87.5391L132.297 92.249Z" fill="white" mask="url(#path-1-outside-1_115_17762)"/>
<path d="M135.803 72.2347L134.99 73.5685L133.69 72.7019C119.822 63.4546 100.776 65.7734 85.2171 72.9949C64.5156 82.6041 47.6855 99.538 35.9341 119.216L35.4372 120.048L34.4743 119.937C33.4847 119.822 32.6867 119.352 32.1312 118.643C31.6065 117.974 31.3558 117.171 31.2478 116.425C31.0336 114.945 31.3177 113.269 31.7854 111.973L31.7898 111.961L31.7944 111.949C39.3044 92.2215 52.084 73.6325 70.6032 63.0158C89.1102 52.3128 113.846 50.7557 131.823 62.8891C133.181 63.793 134.631 65.1433 135.544 66.6958C136.456 68.2468 136.981 70.3031 135.803 72.2347Z" fill="#C60E1C" stroke="white" stroke-width="3"/>
<mask id="path-4-outside-2_115_17762" maskUnits="userSpaceOnUse" x="31.4331" y="20.1784" width="104" height="66" fill="black">
<rect fill="white" x="31.4331" y="20.1784" width="104" height="66"/>
<path d="M35.7326 83.3824C34.4635 81.3951 34.6445 78.8642 34.9171 76.5139C37.9088 56.3605 51.3215 38.0162 69.7211 29.2495C88.1185 20.3915 110.868 21.296 128.45 31.5086C130.262 32.5914 132.257 34.6721 131.08 36.3876C113.587 30.7845 94.1019 31.8695 77.3356 39.3707C60.6586 46.872 46.8819 60.6982 39.4505 77.4184C38.5434 79.5861 37.6384 81.9365 35.7348 83.3824"/>
</mask>
<path d="M35.7326 83.3824C34.4635 81.3951 34.6445 78.8642 34.9171 76.5139C37.9088 56.3605 51.3215 38.0162 69.7211 29.2495C88.1185 20.3915 110.868 21.296 128.45 31.5086C130.262 32.5914 132.257 34.6721 131.08 36.3876C113.587 30.7845 94.1019 31.8695 77.3356 39.3707C60.6586 46.872 46.8819 60.6982 39.4505 77.4184C38.5434 79.5861 37.6384 81.9365 35.7348 83.3824" fill="#C60E1C"/>
<path d="M34.9171 76.5139L31.9371 76.1683L31.9426 76.1207L31.9496 76.0733L34.9171 76.5139ZM69.7211 29.2495L71.0225 31.9525L71.0115 31.9578L69.7211 29.2495ZM128.45 31.5086L129.957 28.9144L129.973 28.9238L129.989 28.9333L128.45 31.5086ZM131.08 36.3876L133.553 38.0854L132.29 39.9255L130.165 39.2446L131.08 36.3876ZM77.3356 39.3707L76.105 36.6348L76.1104 36.6323L77.3356 39.3707ZM39.4505 77.4184L36.683 76.2603L36.6957 76.23L36.7091 76.1999L39.4505 77.4184ZM33.2042 84.997C31.2826 81.988 31.6797 78.3872 31.9371 76.1683L37.8971 76.8594C37.6093 79.3413 37.6444 80.8022 38.261 81.7677L33.2042 84.997ZM31.9496 76.0733C35.086 54.9455 49.1172 35.7433 68.4307 26.5412L71.0115 31.9578C53.5258 40.289 40.7316 57.7756 37.8846 76.9544L31.9496 76.0733ZM68.4196 26.5465C87.7135 17.2569 111.515 18.2024 129.957 28.9144L126.943 34.1027C110.221 24.3896 88.5235 23.5261 71.0225 31.9525L68.4196 26.5465ZM129.989 28.9333C131.135 29.6181 132.48 30.6894 133.385 32.0505C134.302 33.4306 135.126 35.7943 133.553 38.0854L128.607 34.6899C128.48 34.8749 128.413 35.1467 128.439 35.3813C128.457 35.5473 128.504 35.5467 128.388 35.3712C128.278 35.2059 128.086 34.9832 127.805 34.7347C127.529 34.4912 127.216 34.266 126.911 34.0838L129.989 28.9333ZM130.165 39.2446C113.377 33.8671 94.6532 34.9094 78.5608 42.1092L76.1104 36.6323C93.5507 28.8296 113.798 27.7019 131.995 33.5306L130.165 39.2446ZM78.5662 42.1067C62.5617 49.3055 49.3232 62.5918 42.1919 78.6368L36.7091 76.1999C44.4405 58.8046 58.7556 44.4385 76.105 36.6348L78.5662 42.1067ZM42.218 78.5764C41.4166 80.4915 40.2306 83.7349 37.5494 85.7714L33.9202 80.9934C35.0463 80.1381 35.6702 78.6807 36.683 76.2603L42.218 78.5764Z" fill="white" mask="url(#path-4-outside-2_115_17762)"/>
<mask id="path-6-outside-3_115_17762" maskUnits="userSpaceOnUse" x="34.0508" y="0" width="72" height="46" fill="black">
<rect fill="white" x="34.0508" width="72" height="46"/>
<path d="M37.8888 43.3625C37.0384 42.0297 37.1583 40.3337 37.3414 38.7574C39.3476 25.2465 48.3402 12.9466 60.6757 7.06954C73.0111 1.1316 88.2642 1.73822 100.05 8.58501C101.265 9.31121 102.604 10.7049 101.814 11.8573C90.0871 8.10014 77.0212 8.82852 65.7804 13.8554C54.6006 18.8845 45.3638 28.1556 40.3812 39.364C39.7728 40.8186 39.1644 42.3928 37.8888 43.3625Z"/>
</mask>
<path d="M37.8888 43.3625C37.0384 42.0297 37.1583 40.3337 37.3414 38.7574C39.3476 25.2465 48.3402 12.9466 60.6757 7.06954C73.0111 1.1316 88.2642 1.73822 100.05 8.58501C101.265 9.31121 102.604 10.7049 101.814 11.8573C90.0871 8.10014 77.0212 8.82852 65.7804 13.8554C54.6006 18.8845 45.3638 28.1556 40.3812 39.364C39.7728 40.8186 39.1644 42.3928 37.8888 43.3625Z" fill="#C60E1C"/>
<path d="M37.3414 38.7574L34.3615 38.4111L34.367 38.3639L34.374 38.3168L37.3414 38.7574ZM60.6757 7.06954L61.9769 9.77268L61.966 9.77786L60.6757 7.06954ZM100.05 8.58501L101.557 5.99096L101.573 6.00046L101.59 6.01016L100.05 8.58501ZM101.814 11.8573L104.289 13.5527L103.027 15.3959L100.899 14.7142L101.814 11.8573ZM65.7804 13.8554L64.5496 11.1195L64.5556 11.1168L65.7804 13.8554ZM40.3812 39.364L37.6135 38.2064L37.6263 38.1758L37.6398 38.1454L40.3812 39.364ZM35.3597 44.9762C33.8581 42.6228 34.1932 39.8596 34.3615 38.4111L40.3214 39.1037C40.2317 39.8758 40.1873 40.4573 40.2206 40.9482C40.2524 41.4159 40.3465 41.6371 40.4178 41.7488L35.3597 44.9762ZM34.374 38.3168C36.5248 23.8315 46.1359 10.6737 59.3853 4.36122L61.966 9.77786C50.5445 15.2195 42.1704 26.6615 40.3089 39.198L34.374 38.3168ZM59.3745 4.36642C72.6062 -2.00296 88.911 -1.35546 101.557 5.99096L98.5431 11.1791C87.6173 4.83191 73.416 4.26616 61.9769 9.77266L59.3745 4.36642ZM101.59 6.01016C102.436 6.51592 103.467 7.32586 104.182 8.4001C104.909 9.49445 105.665 11.544 104.289 13.5527L99.3392 10.1619C99.2424 10.3031 99.1535 10.4867 99.1004 10.7043C99.0476 10.9205 99.0419 11.1222 99.0604 11.2904C99.0951 11.6055 99.2069 11.7546 99.1856 11.7226C99.1709 11.7006 99.1053 11.6147 98.9633 11.4893C98.827 11.3689 98.6667 11.2532 98.5106 11.1599L101.59 6.01016ZM100.899 14.7142C89.8763 11.1828 77.5724 11.8683 67.0051 16.5941L64.5556 11.1168C76.47 5.7887 90.2979 5.01746 102.729 9.00033L100.899 14.7142ZM67.0111 16.5914C56.5038 21.318 47.8051 30.0492 43.1225 40.5827L37.6398 38.1454C42.9224 26.2621 52.6974 16.4511 64.5496 11.1195L67.0111 16.5914ZM43.1488 40.5216C42.6442 41.7281 41.7559 44.1912 39.7043 45.7508L36.0732 40.9742C36.5729 40.5944 36.9013 39.9091 37.6135 38.2064L43.1488 40.5216Z" fill="white" mask="url(#path-6-outside-3_115_17762)"/>
<mask id="path-8-outside-4_115_17762" maskUnits="userSpaceOnUse" x="66.2969" y="145.643" width="56" height="61" fill="black">
<rect fill="white" x="66.2969" y="145.643" width="56" height="61"/>
<path d="M108.781 188.847C103.253 198.427 91.742 203.217 80.6843 203.397C78.9617 203.489 77.2412 203.397 75.6102 202.765C71.2599 201.047 69.6289 195.624 69.6289 190.926C69.6289 184.781 71.5325 178.726 75.0672 173.666C81.0485 165.263 90.7455 160.382 99.9911 155.953C104.612 153.694 109.234 151.526 113.857 149.265C115.399 148.543 117.754 148.18 118.297 149.717C112.68 154.959 105.7 158.392 98.8114 161.917C92.0145 165.441 85.2177 169.235 80.1414 175.021C75.1566 180.896 72.348 189.119 74.884 196.348C75.1566 197.162 75.5186 197.975 76.2425 198.518C77.0581 199.24 78.3272 199.332 79.5047 199.332C93.4625 199.512 106.694 188.217 108.689 174.299C109.413 168.785 108.779 162.371 112.767 158.303C114.852 161.736 114.309 166.165 113.855 170.233C112.948 176.65 112.043 183.246 108.779 188.849"/>
</mask>
<path d="M108.781 188.847C103.253 198.427 91.742 203.217 80.6843 203.397C78.9617 203.489 77.2412 203.397 75.6102 202.765C71.2599 201.047 69.6289 195.624 69.6289 190.926C69.6289 184.781 71.5325 178.726 75.0672 173.666C81.0485 165.263 90.7455 160.382 99.9911 155.953C104.612 153.694 109.234 151.526 113.857 149.265C115.399 148.543 117.754 148.18 118.297 149.717C112.68 154.959 105.7 158.392 98.8114 161.917C92.0145 165.441 85.2177 169.235 80.1414 175.021C75.1566 180.896 72.348 189.119 74.884 196.348C75.1566 197.162 75.5186 197.975 76.2425 198.518C77.0581 199.24 78.3272 199.332 79.5047 199.332C93.4625 199.512 106.694 188.217 108.689 174.299C109.413 168.785 108.779 162.371 112.767 158.303C114.852 161.736 114.309 166.165 113.855 170.233C112.948 176.65 112.043 183.246 108.779 188.849" fill="#C60E1C"/>
<path d="M80.6843 203.397L80.5255 200.402L80.5804 200.399L80.6354 200.398L80.6843 203.397ZM75.6102 202.765L74.5252 205.562L74.5168 205.558L74.5084 205.555L75.6102 202.765ZM75.0672 173.666L72.6079 171.948L72.6155 171.938L72.6231 171.927L75.0672 173.666ZM99.9911 155.953L101.309 158.648L101.298 158.653L101.287 158.658L99.9911 155.953ZM113.857 149.265L112.539 146.57L112.562 146.558L112.585 146.548L113.857 149.265ZM118.297 149.717L121.126 148.718L121.78 150.57L120.344 151.91L118.297 149.717ZM98.8114 161.917L97.4303 159.253L97.4376 159.25L97.4449 159.246L98.8114 161.917ZM80.1414 175.021L77.8539 173.08L77.8699 173.061L77.8863 173.042L80.1414 175.021ZM74.884 196.348L77.7149 195.355L77.7219 195.375L77.7285 195.395L74.884 196.348ZM76.2425 198.518L78.0438 196.119L78.1404 196.192L78.2309 196.272L76.2425 198.518ZM79.5047 199.332V196.332H79.5241L79.5435 196.332L79.5047 199.332ZM108.689 174.299L111.664 174.69L111.661 174.707L111.659 174.725L108.689 174.299ZM112.767 158.303L110.625 156.203L113.328 153.446L115.331 156.746L112.767 158.303ZM113.855 170.233L116.837 170.566L116.832 170.61L116.826 170.653L113.855 170.233ZM111.379 190.347C105.159 201.128 92.4644 206.206 80.7333 206.397L80.6354 200.398C91.0196 200.228 101.348 195.727 106.182 187.348L111.379 190.347ZM80.8431 206.393C78.9365 206.494 76.7274 206.416 74.5252 205.562L76.6951 199.968C77.755 200.379 78.9869 200.483 80.5255 200.402L80.8431 206.393ZM74.5084 205.555C71.3873 204.323 69.4079 201.814 68.2433 199.174C67.0847 196.546 66.6289 193.584 66.6289 190.926H72.6289C72.6289 192.967 72.9886 195.064 73.7331 196.753C74.4716 198.427 75.4828 199.489 76.7119 199.974L74.5084 205.555ZM66.6289 190.926C66.6289 184.166 68.7217 177.511 72.6079 171.948L77.5265 175.385C74.3433 179.941 72.6289 185.397 72.6289 190.926H66.6289ZM72.6231 171.927C79.1207 162.798 89.5476 157.629 98.695 153.247L101.287 158.658C91.9433 163.134 82.9763 167.728 77.5113 175.406L72.6231 171.927ZM98.6734 153.257C100.996 152.122 103.318 151.01 105.627 149.904C107.94 148.796 110.241 147.694 112.539 146.57L115.175 151.959C112.851 153.096 110.529 154.209 108.219 155.315C105.906 156.423 103.606 157.524 101.309 158.648L98.6734 153.257ZM112.585 146.548C113.636 146.055 115.064 145.625 116.491 145.644C117.887 145.662 120.24 146.211 121.126 148.718L115.468 150.716C115.523 150.87 115.617 151.044 115.76 151.207C115.902 151.368 116.054 151.477 116.182 151.545C116.415 151.669 116.536 151.645 116.412 151.643C116.305 151.642 116.113 151.66 115.853 151.725C115.599 151.788 115.345 151.881 115.129 151.981L112.585 146.548ZM120.344 151.91C114.357 157.497 106.954 161.12 100.178 164.587L97.4449 159.246C104.446 155.664 111.003 152.421 116.25 147.524L120.344 151.91ZM100.192 164.58C93.3837 168.111 87.0597 171.685 82.3964 177L77.8863 173.042C83.3757 166.786 90.6454 162.772 97.4303 159.253L100.192 164.58ZM82.4289 176.962C77.8669 182.339 75.6493 189.467 77.7149 195.355L72.0532 197.341C69.0468 188.771 72.4463 179.453 77.8539 173.08L82.4289 176.962ZM77.7285 195.395C77.8385 195.723 77.9228 195.914 77.9928 196.036C78.0539 196.142 78.0751 196.143 78.0438 196.119L74.4412 200.917C72.9461 199.795 72.3476 198.221 72.0396 197.302L77.7285 195.395ZM78.2309 196.272C78.1031 196.159 78.0617 196.201 78.3251 196.254C78.5928 196.307 78.9643 196.332 79.5047 196.332V202.332C78.8675 202.332 78.0158 202.31 77.1506 202.138C76.2812 201.964 75.1975 201.6 74.2541 200.765L78.2309 196.272ZM79.5435 196.332C91.9916 196.493 103.938 186.302 105.72 173.873L111.659 174.725C109.45 190.132 94.9333 202.531 79.4659 202.331L79.5435 196.332ZM105.715 173.909C105.882 172.637 105.972 171.303 106.079 169.828C106.183 168.393 106.303 166.837 106.539 165.303C107.009 162.241 107.991 158.89 110.625 156.203L114.909 160.403C113.555 161.785 112.86 163.674 112.469 166.214C112.274 167.482 112.168 168.817 112.063 170.263C111.961 171.669 111.859 173.205 111.664 174.69L105.715 173.909ZM115.331 156.746C116.737 159.062 117.183 161.595 117.261 163.93C117.338 166.235 117.057 168.591 116.837 170.566L110.874 169.901C111.107 167.808 111.324 165.915 111.264 164.13C111.206 162.375 110.881 160.977 110.203 159.86L115.331 156.746ZM116.826 170.653C115.936 176.942 114.984 184.157 111.371 190.36L106.187 187.339C109.102 182.335 109.959 176.357 110.885 169.813L116.826 170.653Z" fill="white" mask="url(#path-8-outside-4_115_17762)"/>
<mask id="path-10-outside-5_115_17762" maskUnits="userSpaceOnUse" x="54.9619" y="118.334" width="72" height="84" fill="black">
<rect fill="white" x="54.9619" y="118.334" width="72" height="84"/>
<path d="M122.831 126.128C114.493 136.341 100.899 140.046 89.4795 146.642C82.7721 150.439 76.6992 155.409 71.5356 161.193C68.6355 164.445 66.0079 168.061 64.5556 172.216C61.5661 180.441 63.5591 189.567 65.5543 198.064C64.7388 198.877 63.4697 197.883 62.8352 196.979C55.9468 187.038 57.6694 173.032 64.1936 162.819C70.7179 152.698 81.2326 145.738 91.8366 140.046C102.532 134.353 113.769 129.563 123.376 122.334C124.554 123.239 123.738 125.045 122.831 126.128Z"/>
</mask>
<path d="M122.831 126.128C114.493 136.341 100.899 140.046 89.4795 146.642C82.7721 150.439 76.6992 155.409 71.5356 161.193C68.6355 164.445 66.0079 168.061 64.5556 172.216C61.5661 180.441 63.5591 189.567 65.5543 198.064C64.7388 198.877 63.4697 197.883 62.8352 196.979C55.9468 187.038 57.6694 173.032 64.1936 162.819C70.7179 152.698 81.2326 145.738 91.8366 140.046C102.532 134.353 113.769 129.563 123.376 122.334C124.554 123.239 123.738 125.045 122.831 126.128Z" fill="#C60E1C"/>
<path d="M89.4795 146.642L90.9801 149.24L90.9687 149.247L90.9572 149.253L89.4795 146.642ZM71.5356 161.193L69.2964 159.196L69.2977 159.195L71.5356 161.193ZM64.5556 172.216L67.3876 173.206L67.3815 173.224L67.3752 173.241L64.5556 172.216ZM65.5543 198.064L68.4749 197.378L68.8573 199.007L67.6726 200.188L65.5543 198.064ZM62.8352 196.979L60.3792 198.702L60.3743 198.695L60.3693 198.688L62.8352 196.979ZM64.1936 162.819L61.6655 161.204L61.6721 161.194L64.1936 162.819ZM91.8366 140.046L90.4177 137.402L90.4272 137.397L91.8366 140.046ZM123.376 122.334L121.573 119.937L123.395 118.565L125.204 119.955L123.376 122.334ZM125.155 128.025C120.597 133.608 114.68 137.315 108.686 140.407C105.696 141.95 102.593 143.384 99.6262 144.798C96.6272 146.227 93.7263 147.654 90.9801 149.24L87.9789 144.045C90.9424 142.333 94.0231 140.822 97.0452 139.382C100.099 137.927 103.057 136.56 105.935 135.075C111.678 132.112 116.727 128.86 120.507 124.231L125.155 128.025ZM90.9572 149.253C84.5488 152.88 78.7297 157.639 73.7735 163.191L69.2977 159.195C74.6686 153.179 80.9953 147.997 88.0018 144.032L90.9572 149.253ZM73.7748 163.189C70.9884 166.314 68.6528 169.586 67.3876 173.206L61.7236 171.226C63.3629 166.536 66.2825 162.576 69.2964 159.196L73.7748 163.189ZM67.3752 173.241C64.7402 180.491 66.4425 188.723 68.4749 197.378L62.6338 198.75C60.6757 190.411 58.392 180.392 61.7361 171.191L67.3752 173.241ZM67.6726 200.188C66.9236 200.935 65.9632 201.334 64.9616 201.363C64.0457 201.39 63.2764 201.105 62.7403 200.826C61.698 200.283 60.8851 199.423 60.3792 198.702L65.2911 195.256C65.3341 195.317 65.3984 195.393 65.4675 195.458C65.542 195.528 65.5649 195.532 65.5134 195.505C65.4758 195.486 65.2164 195.354 64.7876 195.366C64.2732 195.381 63.7773 195.599 63.4361 195.94L67.6726 200.188ZM60.3693 198.688C52.5802 187.447 54.7169 172.081 61.6655 161.204L66.7218 164.434C60.6219 173.982 59.3133 186.629 65.301 195.27L60.3693 198.688ZM61.6721 161.194C68.6282 150.402 79.7185 143.146 90.4178 137.402L93.2555 142.689C82.7466 148.33 72.8075 154.993 66.7152 164.444L61.6721 161.194ZM90.4272 137.397C101.433 131.54 112.214 126.979 121.573 119.937L125.18 124.731C115.323 132.148 103.631 137.167 93.2461 142.694L90.4272 137.397ZM125.204 119.955C127.096 121.408 127.125 123.539 126.801 124.872C126.489 126.157 125.775 127.286 125.131 128.055L120.532 124.202C120.642 124.07 120.752 123.912 120.839 123.754C120.929 123.591 120.963 123.486 120.97 123.456C120.98 123.417 120.931 123.575 120.998 123.854C121.033 124.001 121.098 124.168 121.203 124.333C121.31 124.498 121.433 124.624 121.549 124.713L125.204 119.955Z" fill="white" mask="url(#path-10-outside-5_115_17762)"/>
<path d="M75.3664 271.408C80.0917 263.145 88.5628 257.095 97.9442 255.419L97.9585 255.404L98.4466 255.331C99.1017 255.234 99.9554 255.221 100.732 255.458C101.518 255.699 102.584 256.345 102.707 257.723L102.807 258.839L101.765 259.251C93.655 262.459 86.8306 268.727 82.9529 276.523C82.2465 277.948 81.6424 279.43 81.1354 280.948L79.9057 284.632L78.3399 281.078C77.1994 278.49 76.1556 275.666 75.2316 272.583L75.0468 271.966L75.3664 271.408Z" fill="#C60E1C" stroke="white" stroke-width="3"/>
<path d="M111.261 270.758C103.151 273.965 96.3288 280.234 92.4511 288.029C91.4048 290.141 90.585 292.37 89.9836 294.665L89.2877 297.319L87.429 295.3C85.7872 293.516 84.2123 291.496 82.7277 289.22L82.321 288.597L82.5714 287.896C82.6327 287.724 82.6953 287.553 82.7593 287.381H82.6551L83.6411 285.251C88.0901 275.639 97.493 268.533 107.924 266.843L107.934 266.841L107.943 266.84C108.598 266.742 109.451 266.729 110.228 266.965C111.015 267.205 112.08 267.852 112.203 269.229L112.303 270.345L111.261 270.758Z" fill="#C60E1C" stroke="white" stroke-width="3"/>
<path d="M120.76 282.264C112.65 285.472 105.826 291.74 101.951 299.535C101.411 300.626 100.934 301.755 100.507 302.91L99.9202 304.499L98.414 303.724C96.5589 302.77 94.7078 301.618 92.8895 300.252L91.9772 299.567L92.244 298.888H92.1541L93.1401 296.757C97.589 287.146 106.99 280.038 117.424 278.35L117.433 278.348L117.442 278.347C118.096 278.249 118.949 278.236 119.726 278.472C120.512 278.712 121.579 279.358 121.702 280.736L121.802 281.852L120.76 282.264Z" fill="#C60E1C" stroke="white" stroke-width="3"/>
<path d="M105.899 160.349L104.569 159.655L107.402 160.416L107.402 160.416L107.402 160.416L107.402 160.417L107.402 160.418L107.402 160.425L107.4 160.454L107.396 160.567C107.392 160.668 107.386 160.817 107.378 161.012L107.377 161.042L107.375 161.072C107.369 161.145 107.363 161.241 107.356 161.353C107.333 161.708 107.3 162.237 107.228 162.812C107.068 164.318 106.749 166.422 106.191 168.9L106.19 168.904C105.622 171.395 104.788 174.257 103.63 177.243C103.346 178.015 103.02 178.774 102.697 179.509C102.369 180.297 101.995 181.07 101.637 181.805C101.261 182.577 100.856 183.341 100.454 184.085L100.442 184.106L100.43 184.127C100.335 184.29 100.238 184.457 100.14 184.625C99.8139 185.188 99.4751 185.771 99.1232 186.343L99.113 186.359L99.1025 186.375C98.1769 187.794 97.185 189.278 96.0149 190.647C94.8894 192.053 93.6097 193.3 92.3534 194.412L92.328 194.435L92.3016 194.456C92.2485 194.499 92.1951 194.542 92.1412 194.586C91.5603 195.056 90.9329 195.564 90.2715 196.014L90.233 196.04L90.1929 196.064C89.9813 196.19 89.7958 196.311 89.5844 196.45C89.4766 196.521 89.3621 196.596 89.2339 196.678C88.8937 196.896 88.4952 197.139 88.0428 197.342C87.9787 197.373 87.9132 197.406 87.8463 197.439C87.2573 197.733 86.5629 198.078 85.8244 198.31C85.6538 198.37 85.5016 198.422 85.3526 198.474C85.1856 198.532 85.0225 198.588 84.8418 198.652L84.7572 198.681L84.6698 198.7C84.42 198.756 84.1761 198.811 83.9325 198.865C83.8435 198.885 83.7545 198.905 83.6653 198.925L83.6458 198.93L83.6263 198.934C83.5624 198.946 83.4819 198.963 83.3912 198.983C83.1545 199.033 82.8484 199.098 82.5872 199.136L82.536 199.143L82.4845 199.147C82.357 199.156 82.2347 199.165 82.1152 199.174C81.9226 199.188 81.7373 199.201 81.5502 199.216L81.5295 199.218L81.5088 199.219C81.3297 199.228 81.1601 199.237 80.989 199.247C80.8719 199.253 80.7541 199.26 80.6319 199.266L80.535 199.272L80.4382 199.264C80.2456 199.249 80.0581 199.236 79.8716 199.223C79.7977 199.217 79.7239 199.212 79.65 199.207C78.5905 199.183 77.6405 198.934 77.0121 198.77C76.8885 198.738 76.7773 198.709 76.6802 198.685L76.6657 198.682L76.6513 198.678C76.186 198.555 75.7968 198.399 75.4943 198.266C75.3265 198.192 75.2173 198.141 75.1357 198.104C75.0383 198.059 74.9803 198.032 74.9092 198.005L74.8544 197.985L74.8013 197.961C74.6253 197.879 74.4901 197.817 74.3991 197.775L74.2962 197.728L74.2703 197.716L74.2638 197.713L74.2623 197.712L74.2619 197.712L74.2618 197.712L74.8716 194.849L74.8717 194.849H74.872L74.8726 194.849L74.8749 194.849L74.8832 194.849L74.9144 194.848L75.0338 194.848C75.1357 194.847 75.2842 194.847 75.4758 194.846C75.6418 194.843 75.8438 194.848 76.0261 194.851C76.0958 194.853 76.1626 194.854 76.2234 194.855C76.4728 194.859 76.7344 194.858 77.0166 194.841C77.1816 194.823 77.3408 194.808 77.4963 194.793C78.0845 194.737 78.6215 194.686 79.2327 194.53L79.2632 194.522L79.294 194.516C79.4897 194.474 79.6913 194.432 79.8976 194.387C80.0988 194.316 80.3069 194.241 80.5194 194.164L80.5341 194.159L80.5489 194.154C80.6548 194.118 80.7562 194.084 80.8567 194.05C80.9873 194.006 81.1163 193.963 81.2519 193.917C81.3518 193.875 81.4252 193.839 81.5254 193.789C81.6148 193.744 81.7257 193.689 81.8961 193.61L82.5277 194.97L81.8962 193.61C82.1232 193.504 82.3537 193.397 82.5879 193.288C82.679 193.232 82.7673 193.178 82.8553 193.124C82.9925 193.04 83.1288 192.956 83.2731 192.867L83.3078 192.846L83.3435 192.826C83.75 192.605 84.157 192.3 84.6898 191.9L84.6958 191.896L84.7304 191.87L84.7665 191.846C84.9421 191.73 85.1298 191.575 85.3689 191.365C85.4216 191.319 85.4791 191.268 85.5401 191.214C85.7141 191.059 85.9167 190.879 86.1183 190.713C86.5804 190.27 87.0449 189.817 87.4986 189.351C88.43 188.324 89.3407 187.256 90.1886 186.094L90.1959 186.083L90.2035 186.073C91.0791 184.914 91.9152 183.656 92.7377 182.352L92.7396 182.349C93.5546 181.065 94.3254 179.733 95.0853 178.386L95.1041 178.352C95.8461 176.999 96.5689 175.682 97.2332 174.387L97.2332 174.387L97.2364 174.381C98.6059 171.74 99.8447 169.225 100.912 167.042L100.913 167.039C101.462 165.924 101.963 164.905 102.406 164.003C102.839 163.124 103.216 162.357 103.528 161.723L103.529 161.721C103.85 161.069 104.109 160.555 104.288 160.203C104.378 160.026 104.448 159.891 104.495 159.798L104.55 159.693L104.564 159.665L104.568 159.658L104.569 159.656L104.569 159.656L104.569 159.655L104.569 159.655L105.899 160.349Z" fill="#C60E1C" stroke="white" stroke-width="3"/>
</g>
<defs>
<filter id="filter0_d_115_17762" x="0.586426" y="0" width="157.413" height="515.286" filterUnits="userSpaceOnUse" color-interpolation-filters="sRGB">
<feFlood flood-opacity="0" result="BackgroundImageFix"/>
<feColorMatrix in="SourceAlpha" type="matrix" values="0 0 0 0 0 0 0 0 0 0 0 0 0 0 0 0 0 0 127 0" result="hardAlpha"/>
<feOffset dy="4"/>
<feGaussianBlur stdDeviation="2"/>
<feComposite in2="hardAlpha" operator="out"/>
<feColorMatrix type="matrix" values="0 0 0 0 0 0 0 0 0 0 0 0 0 0 0 0 0 0 0.25 0"/>
<feBlend mode="normal" in2="BackgroundImageFix" result="effect1_dropShadow_115_17762"/>
<feBlend mode="normal" in="SourceGraphic" in2="effect1_dropShadow_115_17762" result="shape"/>
</filter>
</defs>
</svg>
