<svg width="37" height="38" viewBox="0 0 37 38" fill="none" xmlns="http://www.w3.org/2000/svg">
<path fill-rule="evenodd" clip-rule="evenodd" d="M0 18.9536C0 8.73635 8.28273 0.453613 18.5 0.453613C28.7173 0.453613 37 8.73635 37 18.9536C37 29.1709 28.7173 37.4536 18.5 37.4536C8.28273 37.4536 0 29.1709 0 18.9536ZM9.48125 15.8317V28.2036H13.4125V15.8317H9.48125ZM9.25 11.9005C9.25 13.1724 10.175 14.0974 11.4469 14.0974C12.7188 14.0974 13.6438 13.1724 13.6438 11.9005C13.6438 10.6286 12.7188 9.70361 11.4469 9.70361C10.2906 9.70361 9.25 10.6286 9.25 11.9005ZM23.8188 28.2036H27.5188V20.5724C27.5188 16.7567 25.2062 15.4849 23.0094 15.4849C21.0437 15.4849 19.6562 16.7567 19.3094 17.5661V15.8317H15.6094V28.2036H19.5406V21.613C19.5406 19.8786 20.6969 18.9536 21.8531 18.9536C23.0094 18.9536 23.8188 19.5317 23.8188 21.4974V28.2036Z" fill="white"/>
</svg>
