<svg width="57" height="29" viewBox="0 0 57 29" fill="none" xmlns="http://www.w3.org/2000/svg">
<path d="M13.5678 14.4313L22.8283 9.08782C23.3461 8.78836 23.7998 8.38985 24.1635 7.91504C24.5273 7.44024 24.7939 6.89844 24.9483 6.32059C25.1026 5.74273 25.1417 5.14012 25.0631 4.54718C24.9846 3.95424 24.7901 3.38257 24.4906 2.86481C24.1911 2.34706 23.7926 1.89335 23.3178 1.52961C22.843 1.16586 22.3012 0.899199 21.7234 0.744841C20.5563 0.433101 19.3132 0.597734 18.2676 1.20252L2.27637 10.4328L13.5678 14.4313Z" fill="#EA4335"/>
<path d="M20.5398 28.1619C21.5423 28.163 22.5171 27.8333 23.3131 27.2239C24.1092 26.6145 24.6819 25.7596 24.9426 24.7916C25.2033 23.8236 25.1373 22.7966 24.755 21.8699C24.3726 20.9432 23.6952 20.1686 22.8277 19.6661L6.83045 10.4328C5.78479 9.82883 4.54203 9.66497 3.37556 9.97728C2.20909 10.2896 1.21445 11.0525 0.610465 12.0981C0.006478 13.1438 -0.157386 14.3865 0.15492 15.553C0.467226 16.7195 1.23012 17.7141 2.27578 18.3181L18.264 27.5484C18.9552 27.9499 19.7404 28.1616 20.5398 28.1619Z" fill="#4285F4"/>
<path d="M36.4435 28.1622C37.241 28.1641 38.025 27.9556 38.7163 27.5577L54.7045 18.3274L43.558 14.2412L34.1616 19.6663C33.2931 20.1679 32.6144 20.9421 32.2309 21.8689C31.8474 22.7956 31.7805 23.8229 32.0406 24.7916C32.3006 25.7602 32.8731 26.6159 33.6692 27.2259C34.4653 27.8359 35.4405 28.1661 36.4435 28.1652V28.1622Z" fill="#FBBC04"/>
<path d="M52.423 18.9288C53.4262 18.931 54.4021 18.6017 55.1989 17.9921C55.9956 17.3825 56.5687 16.5267 56.8289 15.5578C57.0892 14.5889 57.022 13.5612 56.6379 12.6344C56.2538 11.7076 55.5742 10.9337 54.7049 10.433L38.7167 1.20275C37.671 0.598763 36.4283 0.434899 35.2618 0.747205C34.0953 1.05951 33.1007 1.82241 32.4967 2.86806C31.8927 3.91372 31.7288 5.15648 32.0412 6.32295C32.3535 7.48942 33.1164 8.48406 34.162 9.08805L50.1502 18.3183C50.8409 18.7183 51.6249 18.9289 52.423 18.9288Z" fill="#0F9D58"/>
</svg>
