<svg width="82" height="59" viewBox="0 0 82 59" fill="none" xmlns="http://www.w3.org/2000/svg">
<path d="M74.7172 1.57715C73.8485 5.48543 70.8765 8.63772 67.0324 11.8732C67.0532 12.4142 67.1017 13.1095 67.2179 13.7095C67.2179 13.7095 66.8729 13.0662 66.611 12.227C64.8997 13.647 63.0322 15.0879 61.1058 16.6207C54.6226 21.7827 54.2637 29.6582 54.6469 29.6218C56.145 29.4761 59.8504 28.8866 63.6894 27.5393C62.6854 26.6706 62.2381 25.7568 62.2381 25.7568C63.0721 26.4175 64.187 26.7989 65.0869 27.0157C68.6051 25.6077 72.0226 23.5322 73.7427 20.5481C71.7435 20.373 70.8332 19.6118 70.8332 19.6118C72.0764 19.9551 73.4011 19.7488 74.2438 19.5355C74.3166 19.3604 74.386 19.1835 74.4467 19.0032C75.4298 16.1092 75.7246 12.983 75.7055 10.1879C74.7241 10.415 73.9109 10.4757 73.9109 10.4757C74.4606 10.3387 75.1472 9.84627 75.6916 9.39371C75.5685 4.98086 74.7172 1.57888 74.7172 1.57888V1.57715Z" fill="#58722B"/>
<g style="mix-blend-mode:multiply" opacity="0.45">
<path d="M63.8201 19.5824C71.0367 14.339 74.5912 8.82511 74.7144 1.57727C73.8457 5.48555 70.8737 8.63784 67.0296 11.8734C67.0504 12.4143 67.0989 13.1097 67.2151 13.7096C67.2151 13.7096 66.87 13.0663 66.6082 12.2271C64.8968 13.6472 63.0294 15.0881 61.103 16.6209C54.8834 21.573 54.3008 29.0219 54.6025 29.5872L54.6458 29.6219C54.6458 29.6219 56.6052 24.8276 63.8218 19.5842L63.8201 19.5824Z" fill="#58722B"/>
</g>
<path d="M62.731 21.9353C64.0765 21.9509 65.4081 22.0116 66.7398 22.0411C67.4056 22.0602 68.0715 22.0636 68.7373 22.0688C69.4031 22.0654 70.069 22.0515 70.7435 22.0359C70.0915 22.2024 69.4205 22.2977 68.7494 22.3532C68.0784 22.4052 67.4039 22.4174 66.7311 22.4052C66.0584 22.3844 65.3873 22.3428 64.7198 22.2665C64.0522 22.1902 63.3864 22.0914 62.731 21.9336V21.9353Z" fill="#2F4407"/>
<path d="M66.4971 18.8152C67.0987 18.6696 67.697 18.5396 68.2969 18.4112C68.8951 18.2777 69.4933 18.1564 70.0863 18.0142C70.3845 17.9483 70.681 17.8772 70.9758 17.8044L71.4197 17.6951C71.5654 17.6535 71.7127 17.6154 71.8619 17.5772C72.4497 17.4142 73.0323 17.2408 73.6131 17.0293C73.0999 17.3761 72.5277 17.6327 71.9486 17.8494C71.3677 18.0697 70.7677 18.2274 70.1678 18.3714C69.5644 18.5083 68.9558 18.6158 68.3437 18.6921C67.7316 18.7684 67.1161 18.8204 66.4971 18.817V18.8152Z" fill="#2F4407"/>
<path d="M70.6411 14.7193C70.9862 14.5147 71.3382 14.3326 71.6919 14.1592C72.0439 13.9824 72.4011 13.8177 72.7548 13.6495C73.112 13.4865 73.4657 13.32 73.8246 13.1605C74.1818 12.9958 74.5373 12.8328 74.9101 12.6785C74.624 12.9611 74.298 13.1986 73.9616 13.4119C73.6235 13.6252 73.2698 13.809 72.9108 13.9806C72.5484 14.1436 72.1808 14.2962 71.8011 14.4211C71.4231 14.5476 71.0399 14.6569 70.6428 14.7193H70.6411Z" fill="#2F4407"/>
<path d="M59.2319 25.0543C59.6619 25.4063 60.0261 25.7878 60.4023 26.1571C60.5896 26.3409 60.7734 26.5282 60.9641 26.7085C61.1566 26.8871 61.3491 27.0622 61.5641 27.2425C61.2866 27.2027 61.0266 27.0813 60.7907 26.9356C60.5515 26.79 60.3416 26.6097 60.1457 26.4172C59.9498 26.223 59.7764 26.0097 59.6221 25.7843C59.4677 25.5589 59.329 25.3196 59.2354 25.0561L59.2319 25.0543Z" fill="#2F4407"/>
<path d="M61.3348 20.5427C61.2741 20.1404 61.2828 19.733 61.3192 19.3307C61.3556 18.9267 61.4371 18.5279 61.5429 18.136C61.6521 17.7441 61.8012 17.3627 61.9867 17.0003C62.1688 16.6362 62.4064 16.2998 62.6838 16.005C62.5329 16.383 62.3752 16.7419 62.2486 17.1147C62.122 17.4858 61.9937 17.8551 61.8949 18.2348C61.6781 18.9891 61.5151 19.7555 61.3348 20.5427Z" fill="#2F4407"/>
<path d="M65.3932 17.4242C65.3482 17.1017 65.3568 16.7774 65.3863 16.4584C65.4158 16.1376 65.4765 15.822 65.558 15.5099C65.6395 15.1978 65.7504 14.8944 65.8892 14.6013C66.0261 14.3083 66.1978 14.0309 66.4111 13.7847C66.333 14.102 66.2394 14.4002 66.1562 14.7019L65.9117 15.6036L65.6655 16.5087C65.5822 16.8121 65.4973 17.1155 65.3915 17.4242H65.3932Z" fill="#2F4407"/>
<path d="M69.3574 13.4257C69.3245 13.1119 69.3384 12.7998 69.3678 12.4929C69.3956 12.1843 69.4476 11.8791 69.5204 11.5774C69.5915 11.2757 69.6817 10.9774 69.8065 10.6896C69.9279 10.4035 70.0753 10.1174 70.2886 9.88159C70.2105 10.1868 70.1464 10.4815 70.0788 10.7763L69.8776 11.6623C69.8065 11.9571 69.7337 12.2519 69.6487 12.5466C69.5672 12.8414 69.4753 13.1344 69.3592 13.4275L69.3574 13.4257Z" fill="#2F4407"/>
<path d="M59.1224 19.5497C58.949 20.1548 58.7774 20.727 58.6473 21.3148C58.5797 21.6061 58.5225 21.9009 58.4722 22.1991C58.4167 22.4974 58.389 22.7991 58.3317 23.1129C58.2364 22.8112 58.1843 22.4939 58.1878 22.1783C58.1809 21.861 58.219 21.5437 58.2901 21.2351C58.3612 20.9264 58.4618 20.6247 58.6005 20.3404C58.7357 20.056 58.9022 19.782 59.1207 19.5514L59.1224 19.5497Z" fill="#2F4407"/>
<path opacity="0.35" d="M61.6604 26.9659C61.3449 27.1636 61.0102 27.3145 60.6686 27.4445C60.3271 27.5746 59.9785 27.6855 59.6248 27.7722C59.2711 27.8607 58.9122 27.9248 58.5498 27.9682C58.1874 28.0115 57.8215 28.0323 57.4487 28.0046C57.7903 27.8555 58.1354 27.741 58.4804 27.637C58.8255 27.5329 59.1723 27.4358 59.5208 27.3509C59.8693 27.2642 60.2213 27.1879 60.575 27.1203C60.9305 27.0526 61.2877 26.992 61.6587 26.9659H61.6604Z" fill="white"/>
<path opacity="0.35" d="M71.6698 21.2427C71.2276 21.801 70.704 22.29 70.1613 22.746C69.6168 23.2038 69.0377 23.6182 68.4412 24.0066C67.8378 24.3811 67.224 24.7435 66.5807 25.0435C65.9426 25.3556 65.282 25.6191 64.604 25.8324C64.9022 25.6382 65.2126 25.4683 65.5143 25.2845C65.816 25.1007 66.1229 24.929 66.4212 24.7452C66.5703 24.6533 66.7211 24.5632 66.8737 24.4765L67.3211 24.199C67.6228 24.0204 67.9158 23.828 68.2106 23.6424C68.8018 23.2679 69.381 22.876 69.9601 22.479C70.5358 22.0784 71.108 21.671 71.6732 21.2427H71.6698Z" fill="white"/>
<path opacity="0.35" d="M74.674 8.12112C74.811 8.99675 74.8578 9.88279 74.8613 10.7671C74.8647 11.6531 74.8075 12.5392 74.7104 13.42C74.6064 14.3009 74.4416 15.1765 74.2197 16.0348C73.9925 16.8931 73.6839 17.7323 73.2886 18.523C73.5175 17.6664 73.729 16.8203 73.8902 15.9602C73.9336 15.747 73.9631 15.5285 74.003 15.3152C74.0428 15.1002 74.0792 14.8852 74.1053 14.6684L74.2006 14.02L74.2786 13.3697C74.3827 12.5028 74.4572 11.6306 74.5231 10.755C74.5838 9.87933 74.6324 9.00369 74.674 8.11938V8.12112Z" fill="white"/>
<path d="M57.716 13.9953C58.5049 13.9554 59.2436 13.7629 59.8279 13.5566C60.0499 13.1231 60.2285 12.6913 60.3516 12.2683C60.8787 10.4598 61.0053 8.30795 60.955 6.31567C59.9892 6.75262 59.0893 6.99884 59.0893 6.99884C59.8973 6.57055 60.5163 6.00876 60.929 5.56661C60.7868 2.50968 60.2805 0.00415039 60.2805 0.00415039C59.8921 1.26472 58.9956 2.38831 57.8564 3.48069L57.9449 4.16212L57.6848 3.64367C56.341 4.90424 54.6903 6.13187 53.1436 7.4878C53.2182 7.95423 53.3534 8.52296 53.5996 9.05528C53.5996 9.05528 53.1436 8.5403 52.757 7.83112C51.7842 8.71023 50.8652 9.64655 50.111 10.6852C49.6775 11.2816 49.3151 11.9683 49.0099 12.7104C49.2111 13.4352 49.4746 14.2779 49.7746 14.9559C49.7746 14.9559 49.2666 14.2918 48.729 13.4543C47.165 17.9868 47.4979 23.9775 47.4979 23.9775C50.0173 23.1261 56.8404 18.5607 59.4829 14.1686C58.5015 14.108 57.7125 13.9935 57.7125 13.9935L57.716 13.9953Z" fill="#58722B"/>
<g style="mix-blend-mode:multiply" opacity="0.45">
<path d="M60.2776 0.00173298C59.8892 1.2623 58.9927 2.38589 57.8535 3.47826L57.942 4.1597L57.6819 3.64125C56.3381 4.90182 54.6874 6.12945 53.1407 7.48538C53.2153 7.95181 53.3505 8.52053 53.5967 9.05285C53.5967 9.05285 53.1407 8.53787 52.754 7.8287C51.7813 8.7078 50.8623 9.64412 50.1081 10.6827C49.6746 11.2792 49.3122 11.9659 49.007 12.708C49.2081 13.4328 49.4717 14.2755 49.7717 14.9534C49.7717 14.9534 49.2636 14.2893 48.7261 13.4518C47.1621 17.9843 47.495 23.9751 47.495 23.9751C47.495 23.9751 49.7387 18.1369 52.787 13.9304C55.8352 9.72388 59.5909 5.27635 60.2741 0L60.2776 0.00173298Z" fill="#58722B"/>
</g>
<path d="M54.9261 12.5317C55.3283 12.4225 55.7289 12.3323 56.1277 12.2456L57.3241 11.9873C57.7229 11.9075 58.12 11.8156 58.5188 11.7324C58.9193 11.6492 59.3146 11.5538 59.7273 11.481C59.3701 11.696 58.9887 11.8694 58.5968 12.0063C58.2066 12.1468 57.8044 12.256 57.3986 12.3445C56.9929 12.426 56.582 12.4936 56.1693 12.5265C55.7566 12.5612 55.3405 12.5733 54.9243 12.5317H54.9261Z" fill="#2F4407"/>
<path d="M57.1646 9.32882C57.4125 9.17103 57.6691 9.04272 57.9257 8.92307C58.1824 8.8017 58.4425 8.69073 58.7026 8.58496C58.9644 8.48092 59.2227 8.37689 59.4863 8.27805C59.7481 8.17575 60.0082 8.08212 60.2735 7.95728C60.1036 8.20176 59.8591 8.38035 59.6129 8.53294C59.3666 8.68726 59.1048 8.81557 58.8395 8.92307C58.5725 9.03058 58.3003 9.12248 58.0211 9.19183C57.742 9.26293 57.4593 9.31668 57.1646 9.33055V9.32882Z" fill="#2F4407"/>
<path d="M53.0513 15.3662C53.3929 15.3662 53.7258 15.3853 54.0569 15.4096C54.3881 15.4304 54.7176 15.4599 55.0453 15.4893L56.0302 15.5812C56.3596 15.6125 56.6891 15.6385 57.0289 15.6853C56.7029 15.7893 56.3648 15.8448 56.0267 15.8673C55.6886 15.8899 55.3487 15.8864 55.0123 15.8535C54.676 15.8223 54.3413 15.7702 54.0136 15.6905C53.6859 15.6125 53.3599 15.5136 53.0513 15.3645V15.3662Z" fill="#2F4407"/>
<path d="M51.3103 18.064C51.5635 18.0934 51.801 18.1472 52.0368 18.2079C52.2727 18.2651 52.5015 18.3345 52.7304 18.4055C52.9593 18.4766 53.1847 18.5512 53.4119 18.6327C53.639 18.7107 53.8644 18.7905 54.1002 18.8876C53.8505 18.9431 53.5957 18.9396 53.3477 18.9119C53.0997 18.8858 52.857 18.8286 52.6194 18.7558C52.3836 18.6812 52.1548 18.5893 51.9345 18.4749C51.7143 18.3622 51.5011 18.2339 51.3086 18.0657L51.3103 18.064Z" fill="#2F4407"/>
<path d="M50.1694 11.6165C50.3168 11.8401 50.4382 12.0655 50.5561 12.2944C50.6757 12.5198 50.785 12.7487 50.8925 12.9759C51.0017 13.203 51.1092 13.4284 51.215 13.6608C51.3242 13.8879 51.4352 14.1151 51.5427 14.3613C51.319 14.2139 51.1335 14.0179 50.9722 13.8081C50.8127 13.5966 50.6775 13.3695 50.5648 13.1336C50.4538 12.8961 50.3602 12.6516 50.2925 12.3967C50.2232 12.1436 50.1729 11.8852 50.1712 11.6165H50.1694Z" fill="#2F4407"/>
<path d="M52.3647 9.1012C52.5139 9.29713 52.6335 9.5 52.7462 9.70634C52.8606 9.91094 52.9612 10.119 53.06 10.3271C53.1571 10.5369 53.249 10.7467 53.3375 10.96C53.4276 11.1732 53.5126 11.3865 53.601 11.6154C53.393 11.4802 53.23 11.2946 53.0895 11.1004C52.9456 10.9062 52.8294 10.6964 52.7289 10.4814C52.6283 10.2647 52.5451 10.0427 52.4844 9.81211C52.4202 9.58323 52.3734 9.34741 52.3665 9.1012H52.3647Z" fill="#2F4407"/>
<path d="M55.5197 6.40149C55.6133 6.56448 55.674 6.7292 55.7295 6.89393C55.7815 7.05865 55.8231 7.22337 55.8578 7.38983C55.8925 7.55455 55.9168 7.72275 55.9376 7.8892C55.9567 8.05913 55.9705 8.22558 55.9775 8.41458C55.8318 8.29147 55.7382 8.13022 55.6602 7.96896C55.5839 7.80597 55.5336 7.63431 55.4989 7.46265C55.4642 7.28926 55.4452 7.11413 55.4469 6.93727C55.4504 6.76041 55.4642 6.58182 55.5214 6.40149H55.5197Z" fill="#2F4407"/>
<path d="M48.8434 15.6851C48.9613 15.8151 49.048 15.9486 49.1312 16.0821C49.2127 16.2156 49.2873 16.3509 49.3549 16.4879C49.4226 16.6249 49.4884 16.7618 49.5474 16.904C49.6064 17.0479 49.667 17.1901 49.7139 17.3618C49.5526 17.2941 49.4191 17.1832 49.3064 17.0618C49.1954 16.937 49.1 16.8 49.0289 16.6526C48.9561 16.5052 48.9006 16.3509 48.866 16.1896C48.833 16.0284 48.8157 15.8619 48.8434 15.6868V15.6851Z" fill="#2F4407"/>
<path opacity="0.35" d="M57.5681 15.0078C57.1988 15.743 56.7341 16.4297 56.2087 17.0677C55.6851 17.7076 55.0938 18.2919 54.4626 18.8277C53.8263 19.3565 53.1501 19.8368 52.4357 20.2495C51.723 20.6657 50.9774 21.0228 50.2041 21.3003C50.8994 20.8599 51.586 20.4246 52.2536 19.9634C52.9194 19.5005 53.5679 19.0167 54.1835 18.4948C54.8042 17.9798 55.392 17.4249 55.9556 16.8423C56.5173 16.2597 57.0462 15.6425 57.5664 15.0061L57.5681 15.0078Z" fill="white"/>
<path opacity="0.35" d="M60.0867 4.53704C60.2653 5.25835 60.3225 6.00395 60.3225 6.74607C60.3225 7.48993 60.2567 8.23378 60.1283 8.96724C60.1006 9.15103 60.059 9.33309 60.0191 9.51516C59.9758 9.69549 59.9463 9.88102 59.8925 10.0579C59.7885 10.4151 59.6949 10.7757 59.5579 11.1225C59.3151 11.8248 58.9857 12.4958 58.606 13.1287C58.8227 12.4195 59.0585 11.7294 59.2354 11.0202C59.4261 10.318 59.5787 9.60706 59.7018 8.89094C59.8353 8.17656 59.9185 7.45525 59.9862 6.72873C60.0486 6.00221 60.0867 5.27396 60.0867 4.53357V4.53704Z" fill="white"/>
<path d="M22.213 18.2759C22.0136 19.7064 21.998 20.8854 21.998 20.8854C21.6598 20.0393 21.4656 18.7249 21.3529 17.5545C18.9185 15.5657 16.4251 13.7659 14.1762 11.8378C14.0236 12.6146 13.8884 13.57 13.949 14.3C13.949 14.3 13.5381 12.9458 13.4497 11.1997C10.6771 8.71843 8.3467 5.97015 7.07399 2.30115C7.07399 2.30115 5.99722 5.52453 5.90706 9.66862C7.08787 10.2755 7.97391 10.9448 7.97391 10.9448C7.38437 10.6362 6.58849 10.4437 5.90186 10.3258C5.91399 13.2076 6.43764 16.4587 8.11609 19.3561C9.33678 19.4376 11.1834 19.6335 12.3642 20.0913C12.3642 20.0913 10.5193 20.23 8.8166 20.4502C15.0431 29.2516 29.2232 29.6522 29.0447 29.6175C29.0447 29.6175 27.6887 23.1101 22.213 18.2741V18.2759Z" fill="#58722B"/>
<g style="mix-blend-mode:multiply" opacity="0.45">
<path d="M7.97391 10.9448C7.38437 10.6362 6.58849 10.4437 5.90186 10.3258C5.91399 13.2076 6.43764 16.4587 8.11609 19.3561C9.33678 19.4376 11.1834 19.6335 12.3642 20.0913C12.3642 20.0913 10.5193 20.23 8.8166 20.4502C15.0431 29.2516 29.2232 29.6522 29.0447 29.6175C29.0447 29.6175 26.4802 26.2502 19.9866 21.494C13.493 16.7379 8.06407 12.4672 7.07399 2.30115C7.07399 2.30115 5.99722 5.52453 5.90706 9.66862C7.08787 10.2755 7.97391 10.9448 7.97391 10.9448Z" fill="#58722B"/>
</g>
<path d="M17.667 25.7018C18.7958 25.7677 19.9072 25.8734 21.0204 25.9532C21.577 26 22.1336 26.0347 22.6919 26.0728C23.2503 26.1145 23.8086 26.137 24.3738 26.189C23.8172 26.2879 23.252 26.3451 22.6867 26.3572C22.4041 26.3728 22.1215 26.3607 21.8388 26.3607C21.5562 26.3503 21.2736 26.3364 20.9927 26.3173C20.4291 26.2705 19.8674 26.2064 19.3125 26.1058C18.7559 26.007 18.2045 25.8838 17.667 25.7018Z" fill="#2F4407"/>
<path d="M24.0691 21.3118C24.2477 21.5424 24.3864 21.7938 24.5078 22.0522C24.6309 22.3088 24.7332 22.5758 24.8182 22.8481C24.9031 23.1203 24.969 23.3994 25.0106 23.6821C25.054 23.9647 25.0713 24.2543 25.0436 24.5438C24.9222 24.2786 24.8268 24.015 24.7332 23.7497C24.6361 23.4861 24.5529 23.2209 24.4679 22.9556C24.3847 22.6885 24.3067 22.4215 24.239 22.1475C24.1697 21.8753 24.1055 21.5996 24.0674 21.3101L24.0691 21.3118Z" fill="#2F4407"/>
<path d="M12.4839 21.9802C13.0648 21.9924 13.6387 22.0184 14.2126 22.0479L15.9309 22.1293C16.5031 22.1606 17.0753 22.1727 17.6475 22.1935L19.3745 22.2247C18.811 22.3617 18.2319 22.4397 17.6527 22.4779C17.0736 22.516 16.4927 22.5177 15.9136 22.4935C15.3345 22.4623 14.7571 22.4137 14.1849 22.3305C13.6127 22.2473 13.0422 22.1415 12.4839 21.9802Z" fill="#2F4407"/>
<path d="M18.1553 16.1885C18.3477 16.4607 18.5055 16.7485 18.6477 17.0433C18.7916 17.3363 18.9165 17.638 19.0309 17.9432C19.1436 18.2484 19.2424 18.5605 19.3222 18.8778C19.4037 19.1934 19.4696 19.5159 19.4973 19.8488C19.3239 19.5627 19.1852 19.2697 19.0517 18.9714C18.9182 18.6749 18.7986 18.3732 18.6876 18.0698C18.5766 17.7664 18.4726 17.4594 18.3824 17.1456C18.2905 16.8335 18.209 16.5179 18.1553 16.1885Z" fill="#2F4407"/>
<path d="M8.15603 16.3718C8.69875 16.4915 9.23107 16.6284 9.76165 16.7706C10.294 16.9093 10.8194 17.0637 11.3482 17.211C11.8753 17.3654 12.4007 17.518 12.9261 17.6809C13.4515 17.8439 13.9768 18.0069 14.497 18.2029C13.9439 18.156 13.396 18.0711 12.855 17.9584C12.3123 17.8509 11.7782 17.7122 11.2459 17.5648C10.7153 17.4105 10.1899 17.2405 9.67322 17.0446C9.15651 16.8504 8.645 16.6371 8.1543 16.3753L8.15603 16.3718Z" fill="#2F4407"/>
<path d="M15.1691 13.6888C15.2904 13.9437 15.3754 14.2073 15.4465 14.4708C15.5193 14.7361 15.5731 15.0032 15.6164 15.2737C15.658 15.5441 15.6875 15.8146 15.6962 16.0903C15.7066 16.3643 15.7031 16.6417 15.6563 16.9209C15.5523 16.6591 15.4777 16.3955 15.4135 16.1302C15.3476 15.8649 15.2956 15.5979 15.254 15.3309C15.2124 15.0621 15.1812 14.7916 15.1656 14.5194C15.1482 14.2472 15.1413 13.9715 15.1691 13.6906V13.6888Z" fill="#2F4407"/>
<path d="M6.87527 12.0428C7.17871 12.1243 7.46481 12.2336 7.7457 12.3515C8.02833 12.4659 8.30229 12.5942 8.57452 12.7277C8.84675 12.8613 9.11551 13.0017 9.37907 13.1508C9.64436 13.2982 9.90618 13.4508 10.1663 13.6277C9.85416 13.593 9.55419 13.5115 9.26289 13.4109C8.96986 13.3121 8.68896 13.189 8.41327 13.0555C8.13757 12.9202 7.87055 12.7711 7.61219 12.6029C7.35383 12.4364 7.10241 12.2579 6.87354 12.0428H6.87527Z" fill="#2F4407"/>
<path d="M11.2048 9.90796C11.3105 10.1264 11.3799 10.3501 11.4371 10.5755C11.4961 10.8009 11.5377 11.0281 11.5689 11.257C11.5984 11.4858 11.6192 11.7165 11.6209 11.9488C11.6244 12.1811 11.6157 12.4152 11.5706 12.6545C11.4649 12.436 11.3955 12.2124 11.3383 11.9869C11.2793 11.7615 11.2377 11.5344 11.2065 11.3055C11.177 11.0766 11.1562 10.846 11.1545 10.6137C11.151 10.3813 11.1597 10.1472 11.2048 9.90969V9.90796Z" fill="#2F4407"/>
<path opacity="0.35" d="M20.3297 18.0674C20.0765 17.9113 19.8268 17.7535 19.5789 17.594L18.8264 17.1189C18.3322 16.7912 17.8397 16.4583 17.3646 16.1028C16.4058 15.4023 15.4868 14.6481 14.5973 13.8609C13.713 13.0667 12.8599 12.2396 12.0536 11.3692C11.2439 10.5022 10.4757 9.59539 9.77002 8.64172C10.6127 9.47748 11.445 10.315 12.2964 11.1317C13.1477 11.9483 14.006 12.7546 14.8886 13.5366C15.7642 14.3238 16.6641 15.0868 17.5745 15.8358C18.0305 16.2103 18.4917 16.5779 18.9547 16.9455L19.6517 17.4935C19.8823 17.6807 20.1095 17.8732 20.3349 18.0639L20.3297 18.0674Z" fill="white"/>
<path opacity="0.35" d="M27.1905 26.5007C26.8385 26.0256 26.5039 25.5488 26.1692 25.0702L25.1705 23.6398L24.1717 22.2093C23.8405 21.729 23.4989 21.2573 23.1816 20.7562C23.6342 21.136 24.0521 21.5538 24.437 21.9995C24.6364 22.2162 24.8133 22.452 25.0005 22.6792C25.1774 22.9132 25.3543 23.1491 25.5242 23.3901C25.8588 23.8738 26.1744 24.3732 26.4553 24.8899C26.7379 25.4066 26.9963 25.9372 27.1888 26.4973L27.1905 26.5007Z" fill="white"/>
<g style="mix-blend-mode:multiply" opacity="0.45">
<path d="M40.8029 58.2726C63.3377 58.2726 81.6058 50.1167 81.6058 40.0559C81.6058 29.9951 63.3377 21.8392 40.8029 21.8392C18.2681 21.8392 0 29.9951 0 40.0559C0 50.1167 18.2681 58.2726 40.8029 58.2726Z" fill="#DBBB95"/>
</g>
<path d="M40.8043 55.4879C61.3789 55.4879 78.0579 48.0415 78.0579 38.856C78.0579 29.6705 61.3789 22.2241 40.8043 22.2241C20.2298 22.2241 3.55078 29.6705 3.55078 38.856C3.55078 48.0415 20.2298 55.4879 40.8043 55.4879Z" fill="#B26928"/>
<path d="M40.8029 51.4655C63.3377 51.4655 81.6058 43.3096 81.6058 33.2488C81.6058 23.188 63.3377 15.0321 40.8029 15.0321C18.2681 15.0321 0 23.188 0 33.2488C0 43.3096 18.2681 51.4655 40.8029 51.4655Z" fill="#C47C33"/>
<path d="M40.8017 47.8689C60.0222 47.8689 75.6035 40.9132 75.6035 32.3329C75.6035 23.7526 60.0222 16.7969 40.8017 16.7969C21.5813 16.7969 6 23.7526 6 32.3329C6 40.9132 21.5813 47.8689 40.8017 47.8689Z" fill="#B26928"/>
<path d="M40.8017 19.7238C58.9161 19.7238 73.7967 25.9035 75.4492 33.7963C75.5497 33.3143 75.6035 32.8271 75.6035 32.3329C75.6035 23.7517 60.0224 16.7969 40.8017 16.7969C21.5811 16.7969 6 23.7517 6 32.3329C6 32.8271 6.05375 33.3143 6.15432 33.7963C7.80676 25.9017 22.6856 19.7238 40.8017 19.7238Z" fill="#9E5112"/>
<path opacity="0.45" d="M61.9361 47.0396C64.9688 45.9906 67.9477 44.8011 70.7393 43.2874C72.1282 42.521 73.4789 41.6887 74.7152 40.716C75.9498 39.7502 77.0976 38.6613 77.9698 37.392C78.412 36.7643 78.7778 36.0881 79.0396 35.3789C79.1662 35.0235 79.2651 34.6593 79.3344 34.2917C79.4003 33.9224 79.4298 33.5496 79.4315 33.1768C79.4419 32.4295 79.2789 31.6822 79.0223 30.9678C78.7622 30.2534 78.4016 29.5668 77.9577 28.9287C77.7513 28.5992 77.493 28.3045 77.2572 27.9924L76.867 27.5519L76.6728 27.3317L76.4665 27.1202L76.0521 26.6989C75.9099 26.5619 75.7608 26.4318 75.6151 26.2983C75.329 26.0261 75.0169 25.7799 74.7117 25.5267C73.4824 24.5193 72.1403 23.6419 70.7601 22.8218C72.234 23.4616 73.6506 24.2419 74.9805 25.1678C75.31 25.4036 75.6411 25.6377 75.9532 25.8978C76.111 26.0261 76.2723 26.1492 76.4266 26.2827L76.8826 26.6919L77.1098 26.8965L77.3248 27.115L77.7531 27.5571C78.0166 27.8727 78.301 28.171 78.5368 28.5125C78.6564 28.6807 78.7917 28.8385 78.8975 29.0189L79.2286 29.5477C79.3327 29.728 79.4211 29.9188 79.5165 30.1043C79.617 30.2881 79.6899 30.4858 79.7679 30.6817C80.0731 31.4637 80.2811 32.3047 80.2933 33.1647C80.3071 33.593 80.269 34.0212 80.1996 34.4426C80.1234 34.8622 80.0158 35.2749 79.8754 35.6772C79.5893 36.4765 79.1905 37.2238 78.7154 37.9105C78.2386 38.5971 77.6872 39.2196 77.1011 39.7987C76.5133 40.3761 75.8908 40.9136 75.2337 41.3991C73.9176 42.3701 72.5183 43.2094 71.0601 43.9168C68.1488 45.3404 65.0676 46.353 61.9292 47.0379L61.9361 47.0396Z" fill="white"/>
<path d="M41.7517 22.2185C40.4305 20.3424 38.589 18.9501 36.8066 17.5439C35.9708 16.885 35.1506 16.3336 34.8992 15.2672C34.6495 14.2147 34.4085 13.1414 34.3322 12.0594C34.2767 11.2826 33.8987 10.2648 32.9676 10.2752C31.2337 10.296 31.7868 14.1644 31.2909 15.2152C30.7603 16.3353 29.6194 17.0809 28.6952 17.8542C26.67 19.55 24.7245 21.2978 23.5194 23.6958C22.3768 25.9708 22.3438 28.693 23.6581 30.9021C24.317 32.01 25.295 32.9273 26.4879 33.4215C27.5976 33.8792 28.8097 33.959 29.9939 34.0578C31.2181 34.1601 32.4613 34.0925 33.6889 34.089C35.1264 34.0856 36.5153 34.0717 37.9457 33.8671C39.1526 33.6937 40.238 33.3105 41.1969 32.5424C42.1852 31.75 42.8823 30.557 43.2689 29.3675C44.0752 26.8776 43.203 24.2784 41.7552 22.2203L41.7517 22.2185ZM32.9486 11.2601C32.9486 11.2601 32.952 11.2601 32.9555 11.2601C32.9607 11.2618 32.9676 11.2636 32.9763 11.267C32.9642 11.2636 32.9555 11.2618 32.9486 11.2601Z" fill="#C9FA89"/>
<g style="mix-blend-mode:multiply" opacity="0.45">
<path d="M32.9585 11.2616C32.9585 11.2616 32.9519 11.2616 32.9497 11.2616C32.9585 11.2638 32.9695 11.266 32.9849 11.2704C32.9739 11.266 32.9651 11.2638 32.9585 11.2616Z" fill="#8DC437"/>
<g style="mix-blend-mode:multiply" opacity="0.45">
<path d="M29.9905 34.0561C30.2228 34.0752 30.4569 34.0873 30.691 34.096C28.6588 33.1475 27.0324 31.4067 27.3982 28.2162C28.1612 21.5735 30.0841 21.9012 31.8995 19.2882C33.7149 16.6752 32.8064 14.9326 32.9884 12.4652C33.0526 11.5861 33.3612 10.9844 33.7323 10.5735C33.5346 10.3897 33.2832 10.2718 32.9676 10.2752C31.2337 10.296 31.7868 14.1644 31.2909 15.2152C30.7603 16.3353 29.6194 17.0809 28.6952 17.8542C26.67 19.55 24.7245 21.2978 23.5194 23.6959C22.3768 25.9708 22.3438 28.693 23.6581 30.9021C24.317 32.0101 25.295 32.9273 26.4879 33.4215C27.5976 33.8792 28.8096 33.959 29.9939 34.0578L29.9905 34.0561ZM32.9468 11.2601C32.9468 11.2601 32.9503 11.2601 32.9537 11.2601C32.9589 11.2618 32.9659 11.2636 32.9746 11.267C32.9624 11.2636 32.9537 11.2618 32.9468 11.2601Z" fill="#8DC437"/>
</g>
</g>
<g style="mix-blend-mode:multiply" opacity="0.45">
<path d="M32.8493 26.7541C32.8493 25.8958 32.8684 25.0392 32.9083 24.1809C32.9516 23.3226 33.0088 22.4661 33.1215 21.6078C30.3871 26.3969 33.1215 31.8987 33.1215 31.8987C33.0071 31.0404 32.9499 30.1838 32.9083 29.3255C32.8684 28.4672 32.8493 27.6107 32.8493 26.7524V26.7541Z" fill="#8DC437"/>
</g>
<g style="mix-blend-mode:multiply" opacity="0.45">
<path d="M28.614 24.06C27.5528 26.5378 28.3782 29.9675 29.5572 31.5732C29.1238 30.701 28.8273 29.7543 28.6677 28.7815C28.6209 28.5388 28.6018 28.2926 28.5724 28.0464C28.5585 27.8001 28.536 27.5522 28.5412 27.3042C28.5325 26.8083 28.5741 26.3124 28.6452 25.82C28.6799 25.5738 28.7319 25.331 28.7839 25.0883C28.8463 24.8473 28.907 24.6062 28.985 24.3704C29.1376 23.8988 29.3266 23.4376 29.5572 23.0006C29.7827 22.5602 30.0479 22.1423 30.3427 21.7487C30.6461 21.362 30.9687 20.9893 31.3519 20.6841C31.3519 20.6841 29.6734 21.5823 28.6122 24.06H28.614Z" fill="#8DC437"/>
</g>
<path opacity="0.45" d="M40.9182 31.6836C41.05 31.5119 41.1592 31.3281 41.2615 31.1391C41.3639 30.9519 41.4575 30.7594 41.539 30.5635C41.7037 30.1716 41.8355 29.7659 41.9291 29.3532C42.1233 28.5296 42.1753 27.68 42.1216 26.8407C42.0574 26.0015 41.91 25.1658 41.6361 24.3803C41.3656 23.5913 40.9772 22.844 40.4917 22.1626C40.0149 21.4742 39.4427 20.8535 38.8184 20.2847C38.5081 19.9986 38.1821 19.7264 37.8474 19.4646C37.5111 19.2028 37.1695 18.9496 36.8227 18.6947C36.4759 18.4381 36.1256 18.178 35.7962 17.8884C35.4668 17.5989 35.1529 17.2798 34.8998 16.914C34.6501 16.5464 34.4611 16.1337 34.3657 15.7054C34.2651 15.2771 34.2478 14.8385 34.2755 14.4084C34.305 14.8385 34.3744 15.2633 34.5114 15.6638C34.6466 16.0644 34.8512 16.4337 35.1148 16.7562C35.3766 17.0804 35.6887 17.3596 36.0233 17.6162C36.3597 17.8711 36.71 18.1139 37.0672 18.3497C37.7885 18.8178 38.5011 19.3293 39.1635 19.9033C39.8224 20.4807 40.4258 21.1309 40.939 21.8522C41.4436 22.5787 41.8546 23.3746 42.1268 24.2208C42.2603 24.6438 42.3591 25.0773 42.4285 25.5125C42.4996 25.946 42.5412 26.3864 42.5464 26.8269C42.5533 27.2673 42.5343 27.7077 42.4736 28.1429C42.4129 28.5781 42.3175 29.0081 42.1875 29.426C42.0522 29.8422 41.8858 30.2479 41.676 30.6311C41.4662 31.0126 41.2217 31.3767 40.92 31.6853L40.9182 31.6836Z" fill="white"/>
<path opacity="0.45" d="M37.5615 21.5011C37.8546 21.7092 38.099 21.9814 38.3227 22.264C38.5447 22.5484 38.7371 22.857 38.9088 23.1761C39.2469 23.8176 39.4827 24.5095 39.6422 25.2134L39.7463 25.7458C39.7723 25.9244 39.7914 26.103 39.8122 26.2815C39.8312 26.4601 39.8538 26.6387 39.8555 26.8191C39.8625 26.9994 39.8659 27.178 39.8694 27.3583C39.8729 27.7172 39.8347 28.0744 39.8122 28.4299C39.7619 28.7853 39.7064 29.1373 39.6301 29.4859C39.585 29.1287 39.5694 28.7767 39.5451 28.4264L39.4931 27.9028C39.4723 27.7294 39.4706 27.5543 39.4428 27.3826C39.3926 27.0375 39.37 26.6908 39.3024 26.3509C39.2729 26.181 39.2504 26.0093 39.2192 25.8394L39.1134 25.3331C38.9608 24.6621 38.7753 23.998 38.5239 23.3564C38.4562 23.1986 38.4007 23.0339 38.3245 22.8778L38.2187 22.6403C38.1823 22.5605 38.1389 22.486 38.1008 22.4079C37.9447 22.0958 37.7696 21.7941 37.5633 21.5028L37.5615 21.5011Z" fill="white"/>
<path opacity="0.45" d="M35.4199 23.4609C35.732 23.8823 35.947 24.3608 36.1187 24.8516C36.2869 25.344 36.4083 25.8538 36.4707 26.3705C36.5348 26.8872 36.5539 27.4108 36.5054 27.9293C36.4672 28.4477 36.3562 28.961 36.1811 29.4499C36.1308 28.9298 36.1222 28.4269 36.0771 27.9258C36.0441 27.4264 35.9904 26.9305 35.9297 26.4381C35.8707 25.9439 35.7927 25.4532 35.706 24.9591C35.6193 24.4649 35.524 23.9707 35.4199 23.4609Z" fill="white"/>
<path d="M35.5635 18.4526C35.8461 18.5896 36.1149 18.7561 36.3767 18.9312C36.6385 19.1063 36.8917 19.2971 37.1362 19.4965C37.6234 19.8987 38.0846 20.3392 38.4973 20.8229C39.333 21.7818 39.9919 22.9071 40.422 24.1157C40.6422 24.7191 40.7861 25.3468 40.8814 25.9796C40.9803 26.6125 40.9976 27.2558 40.9716 27.8904C40.9057 29.1631 40.6179 30.4133 40.1376 31.5716C40.4029 30.3457 40.5624 29.1111 40.5468 27.8835C40.5225 26.6576 40.3179 25.4421 39.9104 24.296C39.503 23.1499 38.91 22.0679 38.1696 21.0882C37.7985 20.5992 37.3945 20.1311 36.9593 19.6924C36.5275 19.2485 36.0629 18.8341 35.5652 18.4526H35.5635Z" fill="#8CB53C"/>
<path d="M30.6753 18.4526C30.1777 18.8341 29.7147 19.2502 29.2812 19.6924C28.846 20.1328 28.4403 20.5992 28.071 21.0882C27.3306 22.0679 26.7376 23.1499 26.3301 24.296C25.9209 25.4438 25.718 26.6576 25.6937 27.8835C25.6799 29.1111 25.8377 30.3457 26.1029 31.5716C25.6209 30.4133 25.3348 29.1631 25.2689 27.8904C25.2429 27.2541 25.2585 26.6125 25.3591 25.9796C25.4527 25.3468 25.5984 24.7173 25.8186 24.1157C26.2486 22.9071 26.9075 21.7835 27.7432 20.8229C28.1559 20.3392 28.6171 19.8987 29.1044 19.4965C29.3506 19.2971 29.602 19.1063 29.8638 18.9312C30.1257 18.7561 30.3944 18.5896 30.6771 18.4526H30.6753Z" fill="#8CB53C"/>
<path d="M33.1228 21.6078C33.2355 22.4661 33.2927 23.3226 33.3361 24.1809C33.376 25.0392 33.395 25.8958 33.395 26.7541C33.395 27.6124 33.3777 28.469 33.3361 29.3273C33.2927 30.1856 33.2355 31.0421 33.1228 31.9004C33.0084 31.0421 32.9512 30.1856 32.9095 29.3273C32.8697 28.469 32.8506 27.6124 32.8506 26.7541C32.8506 25.8958 32.8697 25.0392 32.9095 24.1809C32.9529 23.3226 33.0101 22.4661 33.1228 21.6078Z" fill="#8CB53C"/>
<path d="M31.3546 20.6841C30.7685 21.4591 30.3108 22.3053 29.9432 23.1792C29.586 24.0566 29.3207 24.9686 29.1854 25.9015C29.1161 26.3679 29.0693 26.8378 29.0589 27.3094C29.0433 27.5452 29.0589 27.7811 29.0537 28.0186L29.071 28.3741L29.0779 28.5527L29.0918 28.7295C29.1681 29.678 29.338 30.623 29.5582 31.5732C29.1248 30.701 28.8283 29.7543 28.6687 28.7815C28.6219 28.5388 28.6028 28.2926 28.5734 28.0464C28.5595 27.8001 28.5369 27.5522 28.5422 27.3042C28.5335 26.8083 28.5751 26.3124 28.6462 25.82C28.6809 25.5738 28.7329 25.331 28.7849 25.0883C28.8473 24.8473 28.908 24.6062 28.986 24.3704C29.1386 23.8988 29.3276 23.4376 29.5582 23.0006C29.7836 22.5602 30.0489 22.1423 30.3437 21.7487C30.6471 21.362 30.9697 20.9893 31.3529 20.6841H31.3546Z" fill="#8CB53C"/>
<path d="M34.8875 20.6841C35.2707 20.9893 35.5949 21.362 35.8966 21.7487C36.1914 22.1423 36.4567 22.5602 36.6821 23.0006C36.9127 23.4393 37.1 23.8988 37.2543 24.3704C37.3341 24.6062 37.393 24.8473 37.4554 25.0883C37.5074 25.331 37.5595 25.5738 37.5941 25.82C37.6652 26.3107 37.7068 26.8083 37.6982 27.3042C37.7016 27.5522 37.6791 27.8001 37.667 28.0464C37.6375 28.2926 37.6202 28.5388 37.5716 28.7815C37.4121 29.7543 37.1173 30.701 36.6821 31.5732C36.9023 30.6247 37.0722 29.678 37.1485 28.7295L37.1624 28.5527L37.1693 28.3741L37.1867 28.0186C37.1832 27.7811 37.1971 27.5452 37.1815 27.3094C37.1711 26.8378 37.1242 26.3662 37.0549 25.9015C36.9196 24.9686 36.6561 24.0566 36.2972 23.1792C35.9296 22.3053 35.4718 21.4591 34.8857 20.6841H34.8875Z" fill="#8CB53C"/>
<path d="M59.0463 22.8061C57.7892 21.2039 56.0917 20.0058 54.4496 18.8441L54.1236 18.6134C54.0491 18.5597 53.9745 18.5077 53.9 18.4557C53.222 17.9823 52.6862 17.6078 52.5198 16.9749C52.2787 16.0628 52.0568 15.1716 51.9874 14.2855C51.9042 13.2261 51.2557 12.1632 49.9969 12.1632C49.99 12.1632 49.9813 12.1632 49.9744 12.1632C49.4074 12.1701 48.6496 12.4112 48.2647 13.5243C48.0549 14.1312 47.9925 14.8768 47.9353 15.534C47.8936 16.0143 47.8434 16.6107 47.7393 16.8084C47.3908 17.469 46.6556 17.9944 45.9447 18.5025C45.7661 18.629 45.5823 18.7608 45.4072 18.8943C43.3785 20.4185 41.4555 21.9703 40.2245 24.1672C38.9674 26.4144 39.0263 28.9754 40.3822 31.0215C41.1226 32.1381 42.2115 33.0068 43.4496 33.4646C44.561 33.8772 45.7262 33.9639 46.8533 34.0472L47.0475 34.061C47.5763 34.1009 48.1069 34.1113 48.6323 34.1113C48.9947 34.1113 49.3536 34.1061 49.7073 34.1009C50.0281 34.0957 50.361 34.0905 50.6835 34.0905C52.1695 34.0871 53.5133 34.0697 54.8987 33.8911C56.2911 33.7125 57.4285 33.2929 58.377 32.6115C59.3601 31.9058 60.1508 30.8221 60.6051 29.5615C61.3645 27.4548 60.8114 25.055 59.048 22.8061H59.0463Z" fill="#FACA84"/>
<g style="mix-blend-mode:multiply" opacity="0.45">
<path d="M48.3494 30.3204C47.9281 26.9479 48.561 23.083 49.473 20.763C50.3868 18.4447 49.6135 17.1789 50.1059 14.3682C50.2568 13.5117 50.5827 12.884 50.9642 12.4245C50.6955 12.2615 50.3729 12.1661 49.9949 12.1661C49.988 12.1661 49.9793 12.1661 49.9724 12.1661C49.4054 12.1731 48.6477 12.4141 48.2627 13.5273C48.0529 14.1341 47.9905 14.8797 47.9333 15.5369C47.8917 16.0172 47.8414 16.6137 47.7374 16.8113C47.3888 17.472 46.6537 17.9974 45.9427 18.5054C45.7641 18.632 45.5804 18.7637 45.4052 18.8973C43.3765 20.4214 41.4536 21.9733 40.2225 24.1702C38.9654 26.4173 39.0244 28.9783 40.3803 31.0244C41.1207 32.141 42.2096 33.0097 43.4476 33.4675C44.5591 33.8802 45.7243 33.9669 46.8513 34.0501L47.0455 34.064C47.5744 34.1038 48.105 34.1143 48.6303 34.1143C48.9927 34.1143 49.3517 34.1091 49.7054 34.1038C50.0262 34.0986 50.3591 34.0934 50.6816 34.0934C50.7822 34.0934 50.8827 34.0934 50.9816 34.0934C49.7782 33.4033 48.5887 32.2364 48.3494 30.3221V30.3204Z" fill="#FACA84"/>
</g>
<path opacity="0.45" d="M53.6196 19.4277C54.2473 19.6757 54.8438 20.0034 55.4212 20.3623C55.9934 20.7282 56.5448 21.1305 57.0545 21.5882C57.3094 21.8154 57.5591 22.0512 57.7897 22.3061C58.0221 22.5592 58.2458 22.821 58.4504 23.1002C58.6567 23.3776 58.8457 23.6689 59.0139 23.9724C59.1023 24.1215 59.1751 24.281 59.2549 24.4353C59.3243 24.5949 59.4006 24.7526 59.4595 24.9174C59.5844 25.2433 59.6815 25.5815 59.7508 25.9248C59.8202 26.2681 59.867 26.6184 59.8704 26.9686C59.8791 27.6708 59.7681 28.3748 59.5237 29.0268C59.2861 29.6822 58.9272 30.2856 58.492 30.8145C58.0516 31.3381 57.5348 31.8028 56.9401 32.1288C57.4672 31.7074 57.9146 31.2063 58.2839 30.6601C58.6567 30.1157 58.9445 29.5175 59.1335 28.8967C59.515 27.6518 59.4422 26.308 58.9671 25.1046C58.9133 24.952 58.8457 24.8047 58.7815 24.6555C58.7087 24.5099 58.6428 24.3625 58.5613 24.2203C58.4087 23.9325 58.2302 23.6603 58.0446 23.3898C57.6736 22.8505 57.2349 22.3546 56.7719 21.8847C56.5396 21.6489 56.2933 21.4252 56.0437 21.2068C55.794 20.9865 55.5356 20.7767 55.2721 20.5721C54.745 20.1612 54.1936 19.7797 53.6196 19.4277Z" fill="white"/>
<path opacity="0.45" d="M55.4839 24.1714C55.6937 24.35 55.8654 24.5667 56.0249 24.7939C56.1809 25.021 56.3127 25.2672 56.4254 25.5221C56.6474 26.0319 56.7809 26.5868 56.8086 27.1503C56.8398 27.7121 56.7618 28.2791 56.5919 28.8097C56.4167 29.3385 56.1549 29.8344 55.8012 30.2523C55.9607 29.7286 56.1012 29.2206 56.1896 28.7091C56.2746 28.1976 56.311 27.6861 56.2832 27.178C56.259 26.6682 56.174 26.1619 56.037 25.6608C55.9 25.1597 55.7197 24.6656 55.4856 24.1731L55.4839 24.1714Z" fill="white"/>
<path opacity="0.45" d="M52.356 24.1714C52.6715 24.5858 52.8848 25.0678 53.0409 25.5637C53.1952 26.0614 53.2871 26.5798 53.3079 27.1017C53.3304 27.6236 53.2975 28.149 53.1813 28.6588C53.079 29.1703 52.8883 29.6593 52.6369 30.1101C52.6438 29.9801 52.6577 29.8517 52.6733 29.7252C52.6871 29.5986 52.7114 29.4755 52.7149 29.3489C52.7253 29.2241 52.7357 29.0992 52.7496 28.9744C52.7669 28.8513 52.7634 28.7247 52.7721 28.6016C52.8068 28.1074 52.8033 27.6167 52.7825 27.126C52.7634 26.6353 52.7114 26.1463 52.6386 25.6556C52.5675 25.1632 52.4739 24.6742 52.356 24.1714Z" fill="white"/>
<path opacity="0.45" d="M50.96 13.2609C51.1386 13.3718 51.2703 13.5452 51.3796 13.7308C51.4836 13.9198 51.5495 14.1296 51.5842 14.3463C51.5946 14.4001 51.5981 14.4538 51.6033 14.5093L51.6085 14.5908L51.6119 14.6636L51.6275 14.9566L51.6605 15.541C51.683 15.9294 51.7056 16.3178 51.7402 16.7027C51.761 16.8935 51.7766 17.0877 51.8113 17.2767C51.8443 17.4674 51.8824 17.6564 51.9622 17.8471C51.7905 17.7275 51.6674 17.5454 51.5668 17.3616C51.4645 17.1761 51.3952 16.9801 51.3328 16.7807C51.2183 16.3837 51.1559 15.9762 51.1334 15.5687C51.123 15.3659 51.1212 15.1613 51.1282 14.9584C51.1334 14.8561 51.1368 14.7555 51.149 14.6532L51.1611 14.5093C51.1663 14.4642 51.1715 14.4191 51.1715 14.374C51.1871 14.0117 51.1368 13.6337 50.96 13.2626V13.2609Z" fill="white"/>
<path d="M53.9893 21.0091C54.9481 21.4894 55.796 22.1916 56.5 23.0239C57.1988 23.8596 57.7363 24.8671 57.9565 25.9681C58.1698 27.0674 58.0467 28.2274 57.6375 29.2452C57.23 30.2665 56.5988 31.1716 55.8342 31.9172C56.3925 31.0069 56.8745 30.0689 57.1658 29.084C57.4623 28.1026 57.523 27.0761 57.3357 26.0895C57.1381 25.1029 56.6942 24.17 56.1047 23.3239C55.5134 22.476 54.7973 21.7026 53.9893 21.0073V21.0091Z" fill="#AA7733"/>
<path d="M46.265 21.0092C45.457 21.7045 44.7392 22.4778 44.1496 23.3257C43.5601 24.1718 43.1179 25.1047 42.9185 26.0913C42.7313 27.0779 42.792 28.1044 43.0885 29.0858C43.3798 30.0689 43.8618 31.0087 44.4201 31.9191C43.6555 31.1735 43.026 30.2683 42.6168 29.2471C42.2059 28.2275 42.0845 27.0692 42.2978 25.9699C42.518 24.8689 43.0555 23.8615 43.7543 23.0257C44.4565 22.1917 45.3062 21.4895 46.265 21.0109V21.0092Z" fill="#AA7733"/>
<path d="M51.7935 20.0088C52.1819 20.366 52.4992 20.7925 52.7957 21.2312C53.0852 21.6751 53.3384 22.1433 53.5551 22.6288C53.9851 23.6015 54.2712 24.6419 54.4082 25.6996C54.4724 26.2284 54.514 26.7607 54.5036 27.293V27.4924L54.4932 27.6918C54.488 27.8253 54.481 27.9571 54.4724 28.0906C54.4446 28.3542 54.429 28.6195 54.3857 28.8813C54.2348 29.9303 53.9574 30.9568 53.5343 31.9192C53.7042 30.884 53.8395 29.8593 53.8898 28.8345L53.9019 28.642L53.9054 28.4496L53.9158 28.0664L53.9123 27.6832V27.4924L53.9036 27.3017L53.888 26.9202L53.8586 26.5388C53.8516 26.4122 53.836 26.2856 53.8239 26.159C53.81 26.0325 53.7996 25.9059 53.7788 25.781C53.6488 24.7719 53.4199 23.7784 53.0922 22.8108C52.9292 22.3271 52.7384 21.8502 52.5252 21.3821C52.3119 20.9139 52.0726 20.4544 51.7935 20.0088Z" fill="#AA7733"/>
<path d="M48.4619 20.0088C48.1828 20.4527 47.9435 20.9122 47.7302 21.3821C47.517 21.8502 47.3262 22.3271 47.1632 22.8108C46.8355 23.7784 46.6049 24.7736 46.4766 25.781C46.4558 25.9059 46.4454 26.0342 46.4315 26.159C46.4194 26.2856 46.4038 26.4122 46.3968 26.5388L46.3674 26.9202L46.3518 27.3017L46.3431 27.4924V27.6832L46.3396 28.0664L46.35 28.4496L46.3535 28.642L46.3656 28.8345C46.4176 29.8593 46.5529 30.884 46.7211 31.9192C46.298 30.9586 46.0206 29.9303 45.8697 28.8813C45.8264 28.6195 45.809 28.3542 45.783 28.0906C45.7744 27.9589 45.7674 27.8253 45.7622 27.6918L45.7535 27.4924V27.293C45.7431 26.7607 45.7848 26.2284 45.8489 25.6996C45.9859 24.6419 46.272 23.6015 46.702 22.6288C46.9187 22.1433 47.1702 21.6734 47.4615 21.2312C47.7562 20.7925 48.0753 20.366 48.4637 20.0088H48.4619Z" fill="#AA7733"/>
<path d="M50.1291 22.9059C50.2591 23.6567 50.3285 24.4075 50.377 25.1583C50.4238 25.9091 50.4446 26.6598 50.4446 27.4106C50.4446 28.1614 50.4238 28.9122 50.377 29.663C50.3285 30.4138 50.2608 31.1646 50.1291 31.9154C49.9973 31.1646 49.9297 30.4138 49.8811 29.663C49.8343 28.9122 49.8135 28.1614 49.8135 27.4106C49.8135 26.6598 49.836 25.9091 49.8811 25.1583C49.9297 24.4075 49.9973 23.6567 50.1291 22.9059Z" fill="#AA7733"/>
<g style="mix-blend-mode:multiply" opacity="0.45">
<path d="M49.8144 27.4115C49.8144 26.6607 49.8369 25.9099 49.882 25.1591C49.9306 24.4083 49.9982 23.6575 50.13 22.9067C47.6556 27.0179 50.13 31.9197 50.13 31.9197C49.9982 31.1689 49.9306 30.4181 49.882 29.6673C49.8352 28.9165 49.8144 28.1658 49.8144 27.415V27.4115Z" fill="#FACA84"/>
</g>
<g style="mix-blend-mode:multiply" opacity="0.45">
<path d="M20.7395 41.2503C26.8223 41.2503 31.7534 40.179 31.7534 38.8574C31.7534 37.5359 26.8223 36.4646 20.7395 36.4646C14.6567 36.4646 9.72559 37.5359 9.72559 38.8574C9.72559 40.179 14.6567 41.2503 20.7395 41.2503Z" fill="#B26928"/>
</g>
<path d="M31.3541 26.9837C29.8508 25.066 27.8186 23.632 25.8524 22.2431L25.4622 21.9674C25.3721 21.9033 25.2836 21.8408 25.1935 21.7784C24.382 21.2114 23.7404 20.7623 23.541 20.0063C23.2532 18.9157 22.9879 17.8476 22.9029 16.7864C22.8024 15.5189 22.0273 14.2462 20.5205 14.2462C20.5119 14.2462 20.5032 14.2462 20.4928 14.2462C19.8131 14.2532 18.908 14.5427 18.4467 15.8744C18.1953 16.5992 18.1208 17.4921 18.0531 18.2793C18.0046 18.8533 17.9439 19.5677 17.8191 19.8052C17.4012 20.5959 16.5221 21.2253 15.6707 21.8339C15.4574 21.9865 15.2372 22.1443 15.0274 22.3021C12.5982 24.1279 10.2973 25.9832 8.82516 28.6118C7.32011 31.3012 7.3912 34.3668 9.01416 36.8151C9.9002 38.1519 11.2041 39.1906 12.6849 39.7402C14.0148 40.2344 15.4106 40.3384 16.7596 40.4373L16.992 40.4546C17.6249 40.5014 18.2595 40.5153 18.8889 40.5153C19.3224 40.5153 19.7524 40.5083 20.1755 40.5031C20.5604 40.4979 20.9575 40.491 21.3441 40.491C23.1232 40.4875 24.7305 40.4667 26.3899 40.2535C28.0562 40.0385 29.4173 39.5373 30.5531 38.7207C31.7287 37.8762 32.6754 36.5793 33.2216 35.069C34.1301 32.5479 33.4695 29.6765 31.3576 26.9837H31.3541Z" fill="#FACA84"/>
<g style="mix-blend-mode:multiply" opacity="0.45">
<path d="M18.5515 35.9766C18.0469 31.94 18.8046 27.3138 19.897 24.5395C20.9911 21.7635 20.0652 20.2498 20.6547 16.886C20.8351 15.8595 21.2252 15.1087 21.683 14.559C21.3605 14.3648 20.9755 14.2487 20.523 14.2487C20.5143 14.2487 20.5056 14.2487 20.4952 14.2487C19.8155 14.2556 18.9104 14.5452 18.4492 15.8768C18.1978 16.6016 18.1232 17.4946 18.0556 18.2818C18.007 18.8557 17.9463 19.5701 17.8215 19.8076C17.4036 20.5983 16.5245 21.2277 15.6732 21.8363C15.4599 21.9889 15.2397 22.1467 15.0299 22.3045C12.6006 24.1303 10.2997 25.9856 8.8276 28.6143C7.32255 31.3036 7.39364 34.3692 9.0166 36.8175C9.90264 38.1544 11.2066 39.193 12.6873 39.7427C14.0173 40.2368 15.4131 40.3409 16.7621 40.4397L16.9944 40.457C17.6273 40.5039 18.2619 40.5177 18.8913 40.5177C19.3248 40.5177 19.7548 40.5108 20.1779 40.5056C20.5628 40.5004 20.9599 40.4935 21.3466 40.4935C21.468 40.4935 21.5859 40.4935 21.7072 40.4935C20.2681 39.6681 18.8445 38.2705 18.5567 35.98L18.5515 35.9766Z" fill="#FACA84"/>
</g>
<path opacity="0.45" d="M24.8557 22.9413C25.6083 23.2395 26.3209 23.6314 27.011 24.0597C27.6959 24.4966 28.3565 24.9787 28.9652 25.5266C29.2703 25.7988 29.5686 26.0814 29.8443 26.3866C30.1217 26.69 30.3904 27.0039 30.6349 27.3368C30.8829 27.668 31.1083 28.0165 31.3094 28.3806C31.4152 28.5592 31.5036 28.7482 31.5973 28.9355C31.6805 29.1262 31.7707 29.3152 31.8435 29.5112C31.9926 29.9013 32.1105 30.3053 32.192 30.7162C32.2735 31.1272 32.3325 31.5451 32.3359 31.9664C32.3446 32.8056 32.2145 33.6501 31.9198 34.4303C31.6354 35.2141 31.2071 35.9354 30.6852 36.57C30.1564 37.1977 29.5391 37.7543 28.8282 38.1427C29.4593 37.6381 29.9951 37.0399 30.4373 36.3845C30.8829 35.7325 31.2279 35.0181 31.4533 34.2743C31.9094 32.7848 31.8227 31.1757 31.2539 29.7348C31.1898 29.551 31.1083 29.3759 31.032 29.1973C30.9453 29.0239 30.8673 28.8453 30.7702 28.6771C30.5881 28.3321 30.3731 28.0061 30.1512 27.6836C29.7073 27.0368 29.1836 26.4456 28.627 25.882C28.3496 25.5994 28.0548 25.3324 27.7566 25.0706C27.4584 24.807 27.1497 24.5556 26.8324 24.3111C26.2013 23.8187 25.5424 23.3626 24.854 22.9413H24.8557Z" fill="white"/>
<path opacity="0.45" d="M27.085 28.6167C27.3364 28.83 27.541 29.0901 27.7317 29.3606C27.919 29.6328 28.0768 29.9258 28.2103 30.231C28.4773 30.8414 28.6351 31.5055 28.668 32.1782C28.7062 32.851 28.6126 33.529 28.408 34.1636C28.1981 34.7965 27.8843 35.3895 27.463 35.8906C27.6537 35.2646 27.8219 34.656 27.9277 34.0439C28.03 33.4319 28.0716 32.8198 28.0404 32.2112C28.0109 31.6008 27.9103 30.9939 27.7456 30.3957C27.5826 29.7958 27.3659 29.2045 27.085 28.615V28.6167Z" fill="white"/>
<path opacity="0.45" d="M23.3413 28.6176C23.7193 29.1135 23.9742 29.6909 24.1597 30.2839C24.3435 30.8786 24.4545 31.4993 24.4805 32.1236C24.5082 32.7478 24.4684 33.3772 24.3296 33.9875C24.2083 34.5996 23.9777 35.1857 23.6777 35.7249C23.6864 35.5689 23.7037 35.4163 23.721 35.2637C23.7366 35.1129 23.7661 34.9655 23.7696 34.8129C23.7817 34.662 23.7956 34.5129 23.8112 34.3655C23.832 34.2182 23.8268 34.0673 23.8389 33.9199C23.8806 33.3286 23.8754 32.7408 23.8511 32.1548C23.8285 31.567 23.7661 30.9826 23.6794 30.3948C23.5927 29.807 23.4818 29.221 23.3413 28.6176Z" fill="white"/>
<path opacity="0.45" d="M21.6685 15.559C21.8817 15.6908 22.0413 15.8988 22.1696 16.1208C22.2927 16.3462 22.3742 16.5993 22.414 16.856C22.4262 16.9201 22.4314 16.986 22.4366 17.0502L22.4435 17.1473L22.4487 17.234L22.4678 17.5842L22.5059 18.283C22.532 18.7494 22.5597 19.2124 22.6013 19.6736C22.6256 19.9025 22.6464 20.1348 22.6863 20.362C22.7262 20.5909 22.7712 20.8163 22.8683 21.0451C22.662 20.9012 22.5164 20.6828 22.395 20.4643C22.2719 20.2423 22.1904 20.0065 22.1158 19.769C21.9788 19.2921 21.9043 18.8049 21.8783 18.3194C21.8661 18.0767 21.8627 17.8322 21.8731 17.5894C21.88 17.468 21.8835 17.3467 21.8973 17.2236L21.9129 17.0502C21.9181 16.9964 21.9251 16.9409 21.9251 16.8872C21.9424 16.452 21.8835 16.0011 21.6719 15.5573L21.6685 15.559Z" fill="white"/>
<path d="M25.2969 24.8317C26.443 25.4056 27.4591 26.2466 28.3 27.2436C29.1358 28.2441 29.7791 29.4509 30.0444 30.767C30.2993 32.083 30.1536 33.4702 29.6629 34.6891C29.1739 35.9115 28.4197 36.9935 27.5059 37.8865C28.1752 36.7976 28.7509 35.674 29.1011 34.4949C29.4566 33.321 29.5277 32.0917 29.304 30.9109C29.0664 29.7318 28.5359 28.6134 27.8319 27.6008C27.1244 26.5865 26.2661 25.6605 25.2986 24.8282L25.2969 24.8317Z" fill="#AA7733"/>
<path d="M16.0536 24.8328C15.0861 25.6651 14.2278 26.591 13.5204 27.6053C12.8164 28.6179 12.2841 29.7363 12.0483 30.9154C11.8246 32.0962 11.8957 33.3238 12.2511 34.4994C12.5996 35.6768 13.177 36.8004 13.8463 37.891C12.9326 36.998 12.1766 35.916 11.6893 34.6936C11.1986 33.4747 11.0512 32.0875 11.3079 30.7715C11.5714 29.4554 12.2147 28.2486 13.0522 27.2481C13.8932 26.2511 14.9092 25.4102 16.0554 24.8362L16.0536 24.8328Z" fill="#AA7733"/>
<path d="M22.6689 23.634C23.1336 24.0623 23.5134 24.5721 23.8671 25.0975C24.2139 25.6281 24.5156 26.1898 24.7757 26.7707C25.2907 27.9359 25.634 29.1791 25.797 30.4449C25.8733 31.0778 25.9235 31.7159 25.9114 32.3522V32.5915L25.8993 32.8308C25.8923 32.9903 25.8854 33.1481 25.875 33.3076C25.842 33.6232 25.823 33.9405 25.771 34.2544C25.5906 35.5097 25.2577 36.7391 24.7514 37.8904C24.9543 36.6507 25.1173 35.4248 25.1779 34.1989L25.1918 33.97L25.197 33.7394L25.2092 33.2799L25.2057 32.8221V32.5933L25.1953 32.3644L25.1779 31.9066L25.1433 31.4506C25.1363 31.298 25.1173 31.1472 25.1017 30.9963C25.0843 30.8455 25.0722 30.6929 25.0479 30.5437C24.8936 29.3369 24.6179 28.1457 24.226 26.9892C24.0301 26.4101 23.8012 25.8396 23.5463 25.2795C23.2897 24.7177 23.0036 24.1681 22.6707 23.6375L22.6689 23.634Z" fill="#AA7733"/>
<path d="M18.6825 23.6342C18.3496 24.1665 18.0635 24.7162 17.8069 25.2762C17.552 25.838 17.3231 26.4068 17.1272 26.9859C16.7353 28.1442 16.4596 29.3336 16.3053 30.5405C16.281 30.6913 16.2689 30.8422 16.2515 30.993C16.2359 31.1439 16.2169 31.2947 16.2099 31.4473L16.1752 31.9033L16.1579 32.3611L16.1475 32.59V32.8188L16.1423 33.2766L16.1544 33.7361L16.1596 33.9667L16.1735 34.1956C16.2342 35.4215 16.3972 36.6474 16.6001 37.8871C16.0938 36.7358 15.7626 35.5082 15.5805 34.2511C15.5268 33.9372 15.5094 33.6199 15.4765 33.3043C15.4661 33.1466 15.4591 32.987 15.4522 32.8275L15.4418 32.5882V32.3489C15.4297 31.7109 15.4782 31.0745 15.5545 30.4416C15.7175 29.1759 16.0608 27.9309 16.5758 26.7674C16.8341 26.1866 17.1376 25.6248 17.4844 25.0942C17.8381 24.5688 18.2178 24.059 18.6825 23.6307V23.6342Z" fill="#AA7733"/>
<path d="M20.6783 27.1035C20.8344 28.0017 20.9159 28.9016 20.9748 29.7998C21.0303 30.698 21.0563 31.5979 21.0563 32.496C21.0563 33.3942 21.0303 34.2941 20.9748 35.1923C20.9159 36.0905 20.8344 36.9904 20.6766 37.8886C20.5188 36.9904 20.4373 36.0905 20.3784 35.1923C20.3229 34.2941 20.2969 33.3942 20.2969 32.496C20.2969 31.5979 20.3229 30.698 20.3784 29.7998C20.4373 28.9016 20.5188 28.0017 20.6749 27.1035H20.6783Z" fill="#AA7733"/>
<g style="mix-blend-mode:multiply" opacity="0.45">
<path d="M20.2976 32.496C20.2976 31.5979 20.3236 30.698 20.3791 29.7998C20.4381 28.9016 20.5196 28.0017 20.6756 27.1035C17.7141 32.0227 20.6756 37.8903 20.6756 37.8903C20.5178 36.9921 20.4363 36.0922 20.3774 35.194C20.3219 34.2959 20.2959 33.396 20.2959 32.4978L20.2976 32.496Z" fill="#FACA84"/>
</g>
<g style="mix-blend-mode:multiply" opacity="0.45">
<path d="M61.5724 41.2503C67.1055 41.2503 71.591 40.179 71.591 38.8574C71.591 37.5359 67.1055 36.4646 61.5724 36.4646C56.0392 36.4646 51.5537 37.5359 51.5537 38.8574C51.5537 40.179 56.0392 41.2503 61.5724 41.2503Z" fill="#B26928"/>
</g>
<path d="M71.7529 26.7369C70.2218 24.5625 68.0891 22.95 66.0222 21.3201C65.0547 20.5554 64.1045 19.9173 63.8115 18.6828C63.5236 17.4638 63.2427 16.2206 63.1543 14.967C63.0901 14.0671 62.6515 12.888 61.573 12.9001C59.5633 12.9244 60.2066 17.4066 59.6292 18.6238C59.0137 19.9225 57.6941 20.7843 56.6208 21.6825C54.2748 23.647 52.0207 25.6723 50.6249 28.45C49.3002 31.0856 49.262 34.2414 50.7862 36.7989C51.5508 38.082 52.6813 39.1467 54.065 39.7189C55.3499 40.2494 56.7561 40.3413 58.1259 40.4558C59.5442 40.5737 60.9851 40.4957 62.407 40.4922C64.0733 40.4887 65.6824 40.4731 67.3383 40.2356C68.7376 40.0344 69.9946 39.5905 71.1061 38.701C72.2522 37.7838 73.0585 36.4018 73.5059 35.0216C74.4404 32.1364 73.4296 29.1245 71.7511 26.7404L71.7529 26.7369ZM61.5521 14.041C61.5521 14.041 61.5556 14.041 61.5591 14.041C61.566 14.0428 61.5729 14.0462 61.5834 14.048C61.5695 14.0445 61.5591 14.041 61.5504 14.0393L61.5521 14.041Z" fill="#FA9C84"/>
<g style="mix-blend-mode:multiply" opacity="0.45">
<path d="M58.1256 40.4521C58.3944 40.4747 58.6649 40.4885 58.9371 40.4989C56.5842 39.3996 54.6976 37.3831 55.1225 33.6863C56.005 25.9911 58.2349 26.3691 60.3364 23.3417C62.4379 20.3143 61.3871 18.296 61.5987 15.4367C61.6732 14.4189 62.0322 13.7218 62.4605 13.245C62.2316 13.0317 61.9403 12.8965 61.5744 12.9C59.5648 12.9242 60.2081 17.4065 59.6307 18.6237C59.0151 19.9224 57.6956 20.7841 56.6223 21.6823C54.2763 23.6469 52.0222 25.6721 50.6264 28.4499C49.3017 31.0854 49.2635 34.2412 50.7876 36.7987C51.5523 38.0818 52.6828 39.1465 54.0665 39.7187C55.3513 40.2493 56.7576 40.3412 58.1274 40.4556L58.1256 40.4521ZM61.5519 14.0409C61.5519 14.0409 61.5553 14.0409 61.5588 14.0409C61.5657 14.0426 61.5727 14.0461 61.5831 14.0478C61.5692 14.0444 61.5588 14.0409 61.5501 14.0392L61.5519 14.0409Z" fill="#FA9C84"/>
</g>
<path d="M64.583 22.371C64.9107 22.5305 65.2211 22.723 65.5245 22.9258C65.828 23.1287 66.121 23.3489 66.4054 23.5813C66.9706 24.0477 67.5029 24.5575 67.9815 25.1193C68.9508 26.2307 69.7137 27.5346 70.2113 28.9339C70.4662 29.6327 70.6344 30.3609 70.7437 31.0944C70.8581 31.8278 70.8789 32.5717 70.8477 33.3086C70.7714 34.7825 70.4385 36.232 69.8802 37.5741C70.1871 36.154 70.3709 34.7235 70.3553 33.3017C70.3275 31.8816 70.09 30.4736 69.6166 29.1454C69.145 27.8172 68.4583 26.5654 67.6 25.4296C67.17 24.8626 66.7019 24.3216 66.1973 23.8119C65.6962 23.2986 65.1587 22.8166 64.583 22.3744V22.371Z" fill="#B54B39"/>
<path d="M58.9208 22.3708C58.3452 22.8129 57.8077 23.2932 57.3066 23.8082C56.802 24.318 56.3338 24.859 55.9038 25.426C55.0455 26.5617 54.3589 27.8136 53.8872 29.1418C53.4139 30.47 53.1781 31.8779 53.1486 33.298C53.1312 34.7198 53.3168 36.1503 53.6237 37.5704C53.0654 36.2284 52.7324 34.7805 52.6562 33.3049C52.6249 32.568 52.6457 31.8242 52.7602 31.0907C52.8694 30.3573 53.0376 29.629 53.2908 28.9302C53.7901 27.531 54.5531 26.227 55.5206 25.1156C55.9992 24.5538 56.5332 24.044 57.0967 23.5776C57.3811 23.347 57.6741 23.1268 57.9776 22.9222C58.281 22.7193 58.5914 22.5268 58.9191 22.3673L58.9208 22.3708Z" fill="#B54B39"/>
<path d="M61.7506 26.0289C61.8824 27.0225 61.9483 28.016 61.9986 29.0096C62.0454 30.0031 62.0662 30.9966 62.0662 31.9902C62.0662 32.9837 62.0454 33.9773 61.9986 34.9708C61.9483 35.9644 61.8824 36.9579 61.7506 37.9514C61.6189 36.9579 61.553 35.9644 61.5027 34.9708C61.4559 33.9773 61.4351 32.9837 61.4351 31.9902C61.4351 30.9966 61.4576 30.0031 61.5027 29.0096C61.553 28.016 61.6189 27.0225 61.7506 26.0289Z" fill="#B54B39"/>
<g style="mix-blend-mode:multiply" opacity="0.45">
<path d="M61.4379 31.9902C61.4379 30.9966 61.4604 30.0031 61.5055 29.0096C61.5558 28.016 61.6217 27.0225 61.7535 26.0289C58.5838 31.5775 61.7535 37.9514 61.7535 37.9514C61.6217 36.9579 61.5558 35.9644 61.5055 34.9708C61.4587 33.9773 61.4379 32.9837 61.4379 31.9902Z" fill="#FA9C84"/>
</g>
<path d="M59.7045 24.9592C59.0248 25.8574 58.4943 26.8371 58.0677 27.8497C57.6533 28.8675 57.3464 29.9217 57.1903 31.0037C57.1106 31.543 57.0551 32.0874 57.043 32.6353C57.0256 32.9093 57.043 33.1833 57.0378 33.4572L57.0568 33.8682L57.0638 34.0745L57.0811 34.2808C57.1695 35.3801 57.3672 36.4743 57.6221 37.5753C57.1193 36.5644 56.7777 35.4686 56.5921 34.3398C56.5367 34.0589 56.5158 33.7728 56.4812 33.4884C56.4656 33.2023 56.4396 32.9162 56.4448 32.6284C56.4343 32.0545 56.4829 31.4788 56.5661 30.9101C56.6077 30.6257 56.6667 30.3431 56.7274 30.0622C56.8002 29.783 56.8696 29.5039 56.9615 29.2316C57.1383 28.6854 57.3568 28.1514 57.6238 27.6434C57.8839 27.1336 58.1926 26.6481 58.5341 26.1938C58.8844 25.7447 59.2607 25.3129 59.7045 24.961V24.9592Z" fill="#B54B39"/>
<path d="M63.7988 24.9579C64.2427 25.3099 64.6172 25.7434 64.9692 26.1907C65.3108 26.6468 65.6195 27.1305 65.8795 27.6403C66.1466 28.1483 66.3633 28.6807 66.5419 29.2286C66.6338 29.5008 66.7032 29.78 66.776 30.0591C66.8367 30.34 66.8956 30.6227 66.9372 30.907C67.0205 31.4758 67.069 32.0514 67.0586 32.6254C67.0621 32.9132 67.0378 33.1993 67.0222 33.4854C66.9893 33.7697 66.9667 34.0558 66.9112 34.3367C66.7274 35.4638 66.3841 36.5596 65.8813 37.5723C66.1362 36.4729 66.3338 35.3771 66.4223 34.2778L66.4396 34.0715L66.4465 33.8651L66.4656 33.4542C66.4604 33.1802 66.4778 32.9062 66.4604 32.6323C66.4483 32.0844 66.3945 31.5399 66.313 31.0007C66.157 29.9187 65.8501 28.8645 65.4357 27.8466C65.0091 26.834 64.4803 25.8544 63.7988 24.9562V24.9579Z" fill="#B54B39"/>
<g style="mix-blend-mode:multiply" opacity="0.45">
<path d="M56.5316 28.8688C55.3022 31.7384 56.2576 35.7126 57.624 37.5731C57.1211 36.5622 56.7795 35.4664 56.594 34.3376C56.5385 34.0567 56.5177 33.7706 56.483 33.4862C56.4674 33.2001 56.4414 32.914 56.4466 32.6262C56.4362 32.0523 56.4848 31.4766 56.568 30.9079C56.6096 30.6235 56.6686 30.3409 56.7293 30.06C56.8021 29.7808 56.8714 29.5016 56.9633 29.2294C57.1402 28.6832 57.3587 28.1492 57.6257 27.6411C57.8858 27.1314 58.1944 26.6459 58.536 26.1916C58.8863 25.7425 59.2625 25.3107 59.7064 24.9587C59.7064 24.9587 57.7609 25.9991 56.5316 28.8688Z" fill="#FA9C84"/>
</g>
<path opacity="0.45" d="M70.7873 37.6987C70.9399 37.501 71.0665 37.286 71.1861 37.0693C71.3058 36.8526 71.4116 36.6289 71.5087 36.4017C71.6994 35.9474 71.8537 35.4775 71.9612 35.0007C72.1866 34.0471 72.2473 33.0622 72.1832 32.0912C72.1086 31.1202 71.9369 30.1509 71.6196 29.2406C71.3058 28.3268 70.855 27.4616 70.2932 26.6709C69.7418 25.8733 69.0777 25.1537 68.3564 24.4948C67.9957 24.1636 67.6195 23.8481 67.2328 23.5446C66.8444 23.2429 66.4473 22.9482 66.045 22.6534C65.6428 22.3551 65.237 22.0552 64.8556 21.7188C64.4741 21.3824 64.11 21.0148 63.8169 20.5883C63.5274 20.1617 63.3089 19.6849 63.1979 19.1873C63.0817 18.6914 63.0609 18.1833 63.0922 17.6857C63.1268 18.1833 63.2083 18.6775 63.3644 19.1404C63.5204 19.6051 63.758 20.0334 64.0632 20.4045C64.3666 20.779 64.729 21.105 65.1174 21.4015C65.5075 21.6963 65.9133 21.9789 66.3277 22.2511C67.1634 22.7938 67.9888 23.3851 68.7569 24.0509C69.5198 24.7202 70.2186 25.4728 70.8134 26.3085C71.3977 27.1495 71.8745 28.0737 72.1884 29.0516C72.3427 29.5406 72.4571 30.0434 72.5386 30.548C72.6218 31.0508 72.6687 31.5606 72.6756 32.0704C72.6843 32.5801 72.6617 33.0917 72.5924 33.5962C72.5213 34.1008 72.412 34.5984 72.2612 35.0839C72.1051 35.566 71.9109 36.0376 71.6682 36.4798C71.4254 36.9202 71.1411 37.3433 70.7908 37.7022L70.7873 37.6987Z" fill="white"/>
<path opacity="0.45" d="M66.896 25.9038C67.2358 26.1448 67.5185 26.4604 67.7786 26.7864C68.0369 27.1176 68.2589 27.473 68.4583 27.8441C68.8501 28.5879 69.1224 29.389 69.3079 30.2057L69.4293 30.8212C69.4605 31.0276 69.4813 31.2357 69.5056 31.4437C69.5281 31.6518 69.5541 31.8581 69.5541 32.0662C69.5611 32.2743 69.5663 32.4823 69.5697 32.6904C69.5732 33.1066 69.5281 33.521 69.5021 33.9319C69.4431 34.3429 69.379 34.7521 69.2923 35.1561C69.2403 34.7417 69.2212 34.3342 69.1935 33.9284L69.1345 33.3216C69.112 33.1204 69.1085 32.9176 69.0755 32.7182C69.0166 32.3194 68.9906 31.9171 68.9126 31.5235C68.8779 31.3258 68.8536 31.1264 68.8155 30.9305L68.6924 30.3444C68.5155 29.5659 68.3005 28.7977 68.0092 28.0539C67.9312 27.8718 67.8653 27.6794 67.7786 27.499L67.6555 27.2233C67.6138 27.1314 67.5636 27.0447 67.5202 26.9546C67.3399 26.5939 67.137 26.2437 66.8977 25.9055L66.896 25.9038Z" fill="white"/>
<path opacity="0.45" d="M64.4134 28.1759C64.774 28.6631 65.0254 29.218 65.2231 29.7867C65.419 30.3572 65.5577 30.9467 65.6306 31.5467C65.7051 32.1449 65.7259 32.7518 65.6705 33.3534C65.6271 33.9534 65.4988 34.5498 65.2959 35.1151C65.2387 34.5117 65.2283 33.9291 65.1745 33.35C65.1381 32.7708 65.074 32.1986 65.0046 31.6264C64.937 31.0542 64.8451 30.4838 64.7445 29.9133C64.6457 29.3394 64.533 28.7689 64.4116 28.1776L64.4134 28.1759Z" fill="white"/>
<g style="mix-blend-mode:multiply" opacity="0.45">
<path d="M40.8029 47.5106C47.2937 47.5106 52.5555 46.4393 52.5555 45.1178C52.5555 43.7963 47.2937 42.725 40.8029 42.725C34.3121 42.725 29.0503 43.7963 29.0503 45.1178C29.0503 46.4393 34.3121 47.5106 40.8029 47.5106Z" fill="#B26928"/>
</g>
<path d="M50.8036 33.0883C49.2726 30.914 47.1398 29.3014 45.073 27.6715C44.1055 26.9069 43.1553 26.2688 42.8622 25.0342C42.5744 23.8153 42.2935 22.572 42.2051 21.3184C42.1409 20.4185 41.7022 19.2394 40.6237 19.2516C38.6141 19.2758 39.2574 23.758 38.68 24.9753C38.0644 26.274 36.7449 27.1357 35.6716 28.0339C33.3256 29.9985 31.0715 32.0237 29.6757 34.8015C28.351 37.437 28.3128 40.5928 29.8369 43.1503C30.6016 44.4335 31.7321 45.4981 33.1158 46.0703C34.4007 46.6009 35.8069 46.6928 37.1767 46.8072C38.595 46.9251 40.0359 46.8471 41.4578 46.8436C43.1241 46.8402 44.7331 46.8246 46.3891 46.587C47.7883 46.3859 49.0454 45.942 50.1569 45.0525C51.303 44.1352 52.1093 42.7533 52.5566 41.3731C53.4912 38.4878 52.4804 35.476 50.8019 33.0918L50.8036 33.0883ZM40.6029 20.3925C40.6029 20.3925 40.6064 20.3925 40.6099 20.3925C40.6168 20.3942 40.6237 20.3977 40.6341 20.3994C40.6203 20.396 40.6099 20.3925 40.6012 20.3908L40.6029 20.3925Z" fill="#FA9C84"/>
<g style="mix-blend-mode:multiply" opacity="0.45">
<path d="M37.1798 46.8037C37.4486 46.8262 37.7191 46.8401 37.9913 46.8505C35.6384 45.7512 33.7518 43.7346 34.1767 40.0379C35.0592 32.3427 37.2891 32.7207 39.3906 29.6933C41.4938 26.6658 40.4413 24.6475 40.6529 21.7883C40.7274 20.7705 41.0864 20.0734 41.5147 19.5966C41.2858 19.3833 40.9945 19.2481 40.6286 19.2515C38.619 19.2758 39.2623 23.758 38.6849 24.9752C38.0693 26.2739 36.7498 27.1357 35.6765 28.0339C33.3305 29.9984 31.0764 32.0237 29.6806 34.8014C28.3558 37.437 28.3177 40.5928 29.8418 43.1503C30.6065 44.4334 31.737 45.498 33.1207 46.0702C34.4055 46.6008 35.8118 46.6927 37.1816 46.8072L37.1798 46.8037ZM40.6061 20.3925C40.6061 20.3925 40.6095 20.3925 40.613 20.3925C40.6199 20.3942 40.6269 20.3977 40.6373 20.3994C40.6234 20.3959 40.613 20.3925 40.6043 20.3907L40.6061 20.3925Z" fill="#FA9C84"/>
</g>
<path d="M43.6353 28.7253C43.963 28.8849 44.2733 29.0773 44.5768 29.2802C44.8802 29.4831 45.1733 29.7033 45.4576 29.9356C46.0229 30.4021 46.5552 30.9118 47.0338 31.4736C48.003 32.5851 48.766 33.889 49.2636 35.2883C49.5185 35.987 49.6867 36.7153 49.7959 37.4488C49.9103 38.1822 49.9312 38.9261 49.8999 39.663C49.8237 41.1368 49.4907 42.5864 48.9324 43.9285C49.2393 42.5084 49.4231 41.0779 49.4075 39.656C49.3798 38.236 49.1422 36.828 48.6689 35.4998C48.1972 34.1716 47.5106 32.9197 46.6523 31.784C46.2223 31.217 45.7541 30.676 45.2495 30.1662C44.7484 29.653 44.2109 29.171 43.6353 28.7288V28.7253Z" fill="#B54B39"/>
<path d="M37.9726 28.7258C37.3969 29.1679 36.8594 29.6482 36.3583 30.1632C35.8537 30.673 35.3856 31.214 34.9556 31.7809C34.0973 32.9167 33.4106 34.1686 32.939 35.4968C32.4656 36.825 32.2298 38.2329 32.2003 39.653C32.183 41.0748 32.3685 42.5053 32.6754 43.9254C32.1171 42.5833 31.7842 41.1355 31.7079 39.6599C31.6767 38.923 31.6975 38.1791 31.8119 37.4457C31.9212 36.7122 32.0894 35.984 32.3443 35.2852C32.8436 33.8859 33.6066 32.582 34.5741 31.4706C35.0527 30.9088 35.5867 30.399 36.1502 29.9326C36.4346 29.702 36.7276 29.4818 37.0311 29.2772C37.3345 29.0743 37.6449 28.8818 37.9726 28.7223V28.7258Z" fill="#B54B39"/>
<path d="M40.8029 32.3831C40.9347 33.3766 41.0005 34.3701 41.0508 35.3637C41.0976 36.3572 41.1185 37.3508 41.1185 38.3443C41.1185 39.3378 41.0976 40.3314 41.0508 41.3249C41.0005 42.3185 40.9347 43.312 40.8029 44.3056C40.6711 43.312 40.6052 42.3185 40.5549 41.3249C40.5081 40.3314 40.4873 39.3378 40.4873 38.3443C40.4873 37.3508 40.5098 36.3572 40.5549 35.3637C40.6052 34.3701 40.6711 33.3766 40.8029 32.3831Z" fill="#B54B39"/>
<g style="mix-blend-mode:multiply" opacity="0.45">
<path d="M40.4857 38.3443C40.4857 37.3508 40.5083 36.3572 40.5534 35.3637C40.6036 34.3701 40.6695 33.3766 40.8013 32.3831C37.6317 37.9316 40.8013 44.3056 40.8013 44.3056C40.6695 43.312 40.6036 42.3185 40.5534 41.3249C40.5065 40.3314 40.4857 39.3378 40.4857 38.3443Z" fill="#FA9C84"/>
</g>
<path d="M38.7553 31.3114C38.0756 32.2096 37.545 33.1893 37.1185 34.2019C36.7041 35.2197 36.3972 36.2739 36.2411 37.3559C36.1614 37.8951 36.1059 38.4396 36.0937 38.9875C36.0764 39.2615 36.0937 39.5354 36.0885 39.8094L36.1076 40.2203L36.1145 40.4267L36.1319 40.633C36.2203 41.7323 36.418 42.8264 36.6729 43.9275C36.17 42.9166 35.8285 41.8208 35.6429 40.692C35.5874 40.4111 35.5666 40.125 35.5319 39.8406C35.5163 39.5545 35.4903 39.2684 35.4955 38.9806C35.4851 38.4066 35.5337 37.831 35.6169 37.2623C35.6585 36.9779 35.7175 36.6953 35.7782 36.4144C35.851 36.1352 35.9203 35.856 36.0122 35.5838C36.1891 35.0376 36.4076 34.5036 36.6746 33.9955C36.9347 33.4858 37.2433 33.0002 37.5849 32.546C37.9352 32.0969 38.3114 31.6651 38.7553 31.3131V31.3114Z" fill="#B54B39"/>
<path d="M42.8496 31.3111C43.2935 31.663 43.668 32.0965 44.02 32.5439C44.3616 32.9999 44.6702 33.4837 44.9303 33.9934C45.1974 34.5015 45.4141 35.0338 45.5927 35.5817C45.6846 35.854 45.7539 36.1331 45.8268 36.4123C45.8875 36.6932 45.9464 36.9758 45.988 37.2602C46.0713 37.8289 46.1198 38.4046 46.1094 38.9785C46.1129 39.2663 46.0886 39.5524 46.073 39.8385C46.04 40.1229 46.0175 40.409 45.962 40.6899C45.7782 41.8169 45.4349 42.9128 44.9321 43.9254C45.187 42.8261 45.3846 41.7302 45.473 40.6309L45.4904 40.4246L45.4973 40.2183L45.5164 39.8073C45.5112 39.5334 45.5285 39.2594 45.5112 38.9854C45.4991 38.4375 45.4453 37.8931 45.3638 37.3538C45.2078 36.2736 44.9009 35.2176 44.4864 34.1998C44.0599 33.1872 43.531 32.2075 42.8496 31.3093V31.3111Z" fill="#B54B39"/>
<g style="mix-blend-mode:multiply" opacity="0.45">
<path d="M35.5819 35.2206C34.3525 38.0902 35.3079 42.0644 36.6743 43.9249C36.1714 42.914 35.8298 41.8182 35.6443 40.6894C35.5888 40.4085 35.568 40.1224 35.5333 39.838C35.5177 39.5519 35.4917 39.2658 35.4969 38.978C35.4865 38.4041 35.5351 37.8284 35.6183 37.2597C35.6599 36.9753 35.7189 36.6927 35.7795 36.4118C35.8524 36.1326 35.9217 35.8534 36.0136 35.5812C36.1905 35.035 36.409 34.501 36.676 33.9929C36.9361 33.4832 37.2447 32.9977 37.5863 32.5434C37.9366 32.0943 38.3128 31.6625 38.7567 31.3105C38.7567 31.3105 36.8112 32.3509 35.5819 35.2206Z" fill="#FA9C84"/>
</g>
<path opacity="0.45" d="M49.8391 44.0508C49.9917 43.8531 50.1183 43.6381 50.2379 43.4214C50.3575 43.2046 50.4633 42.9809 50.5604 42.7538C50.7511 42.2995 50.9055 41.8296 51.013 41.3528C51.2384 40.3991 51.2991 39.4142 51.2349 38.4432C51.1604 37.4722 50.9887 36.503 50.6714 35.5926C50.3575 34.6789 49.9067 33.8136 49.3449 33.023C48.7935 32.2253 48.1294 31.5058 47.4081 30.8469C47.0475 30.5157 46.6712 30.2001 46.2845 29.8967C45.8961 29.595 45.4991 29.3002 45.0968 29.0054C44.6945 28.7072 44.2888 28.4072 43.9073 28.0708C43.5259 27.7345 43.1617 27.3669 42.8687 26.9403C42.5791 26.5138 42.3606 26.0369 42.2497 25.5393C42.1335 25.0434 42.1127 24.5354 42.1439 24.0377C42.1786 24.5354 42.2601 25.0295 42.4161 25.4925C42.5722 25.9572 42.8097 26.3855 43.1149 26.7565C43.4183 27.1311 43.7807 27.457 44.1691 27.7535C44.5593 28.0483 44.965 28.3309 45.3794 28.6032C46.2152 29.1459 47.0405 29.7372 47.8087 30.403C48.5716 31.0723 49.2704 31.8248 49.8651 32.6606C50.4494 33.5015 50.9263 34.4257 51.2401 35.4036C51.3944 35.8926 51.5089 36.3955 51.5904 36.9C51.6736 37.4029 51.7204 37.9127 51.7274 38.4224C51.736 38.9322 51.7135 39.4437 51.6441 39.9483C51.573 40.4529 51.4638 40.9505 51.3129 41.436C51.1569 41.918 50.9627 42.3897 50.7199 42.8318C50.4772 43.2722 50.1928 43.6953 49.8426 44.0542L49.8391 44.0508Z" fill="white"/>
<path opacity="0.45" d="M45.9482 32.2592C46.2881 32.5002 46.5707 32.8157 46.8308 33.1417C47.0892 33.4729 47.3111 33.8284 47.5105 34.1994C47.9024 34.9433 48.1746 35.7444 48.3601 36.561L48.4815 37.1766C48.5127 37.3829 48.5335 37.591 48.5578 37.7991C48.5803 38.0071 48.6064 38.2135 48.6064 38.4215C48.6133 38.6296 48.6185 38.8377 48.622 39.0458C48.6254 39.4619 48.5803 39.8763 48.5543 40.2873C48.4954 40.6982 48.4312 41.1074 48.3445 41.5114C48.2925 41.097 48.2734 40.6895 48.2457 40.2838L48.1867 39.6769C48.1642 39.4758 48.1607 39.2729 48.1278 39.0735C48.0688 38.6747 48.0428 38.2724 47.9648 37.8788C47.9301 37.6812 47.9058 37.4818 47.8677 37.2858L47.7446 36.6998C47.5677 35.9212 47.3527 35.1531 47.0614 34.4092C46.9834 34.2272 46.9175 34.0347 46.8308 33.8544L46.7077 33.5787C46.6661 33.4868 46.6158 33.4001 46.5725 33.3099C46.3921 32.9493 46.1893 32.599 45.95 32.2609L45.9482 32.2592Z" fill="white"/>
<path opacity="0.45" d="M43.4666 34.5282C43.8272 35.0154 44.0787 35.5703 44.2763 36.139C44.4723 36.7095 44.611 37.299 44.6838 37.899C44.7584 38.4972 44.7792 39.104 44.7237 39.7057C44.6803 40.3057 44.552 40.9021 44.3491 41.4674C44.2919 40.864 44.2815 40.2814 44.2278 39.7022C44.1914 39.1231 44.1272 38.5509 44.0579 37.9787C43.9902 37.4065 43.8983 36.8361 43.7978 36.2656C43.6989 35.6917 43.5862 35.1212 43.4648 34.5299L43.4666 34.5282Z" fill="white"/>
</svg>
